<?xml version="1.0" encoding="UTF-8"?>
<svg width="191px" height="117px" viewBox="0 0 191 117" version="1.1" xmlns="http://www.w3.org/2000/svg" xmlns:xlink="http://www.w3.org/1999/xlink">
    <!-- Generator: Sketch 49.2 (51160) - http://www.bohemiancoding.com/sketch -->
    <title>1</title>
    <desc>Created with Sketch.</desc>
    <defs></defs>
    <g id="Page-1" stroke="none" stroke-width="1" fill="none" fill-rule="evenodd">
        <g id="猩派客官网首页" transform="translate(-138.000000, -41.000000)">
            <g id="Page-1" transform="translate(138.000000, 41.000000)">
                <g id="Group-4">
                    <path d="M105.1559,28.6191 C104.1829,28.8801 103.6549,29.1751 103.5709,29.5021 C103.4849,29.8291 103.4429,30.3851 103.4429,31.1691 L103.4429,53.0171 C103.4429,54.4141 103.5709,55.1661 103.8229,55.2751 C104.0769,55.3841 104.8599,54.8721 106.1709,53.7381 C108.3699,51.8631 110.1469,51.9941 111.4999,54.1301 C112.0929,55.0021 112.3159,56.0051 112.1679,57.1391 C112.0179,58.2721 111.4379,59.3191 110.4229,60.2781 C109.8289,60.8451 109.2809,61.3361 108.7729,61.7501 C108.2659,62.1641 107.7469,62.5781 107.2189,62.9941 C106.6879,63.4081 106.1089,63.8321 105.4739,64.2691 C104.8399,64.7041 104.0769,65.2271 103.1889,65.8391 C101.2429,67.1031 99.6779,67.3111 98.4939,66.4601 C97.3089,65.6101 96.7179,63.9631 96.7179,61.5211 L96.7179,28.4881 C96.7179,26.2641 97.1939,24.6511 98.1439,23.6471 C99.0969,22.6451 100.6729,21.9251 102.8719,21.4891 C104.2249,21.2271 105.4939,20.9651 106.6789,20.7031 C107.8619,20.4421 109.0359,20.1481 110.1999,19.8201 C111.3629,19.4931 112.5569,19.1451 113.7859,18.7741 C115.0119,18.4051 116.3439,17.9561 117.7819,17.4331 C119.5159,16.9541 120.8059,16.8551 121.6529,17.1391 C122.4979,17.4231 123.0899,18.0651 123.4299,19.0681 C123.8949,20.3341 123.9059,21.4131 123.4609,22.3071 C123.0169,23.2011 122.0329,23.8441 120.5099,24.2361 C118.7349,24.8471 117.1479,25.3271 115.7529,25.6751 C114.3559,26.0241 112.8969,26.4171 111.3739,26.8531 C111.7119,28.4661 112.0179,30.0041 112.2939,31.4641 C112.5679,32.9261 112.8749,34.2881 113.2139,35.5531 C114.3979,34.6811 115.5189,33.7431 116.5769,32.7401 C117.6349,31.7371 118.6289,30.7121 119.5589,29.6651 C120.5319,28.4881 121.5159,27.9221 122.5089,27.9651 C123.5029,28.0081 124.3589,28.4661 125.0789,29.3381 C125.8399,30.3421 126.1779,31.2681 126.0939,32.1191 C126.0099,32.9691 125.3959,33.9611 124.2549,35.0951 C123.5759,35.7931 122.9109,36.4471 122.2559,37.0571 C121.5999,37.6681 120.9119,38.2671 120.1939,38.8561 C119.4739,39.4441 118.7129,40.0451 117.9099,40.6551 C117.1059,41.2661 116.2379,41.8971 115.3089,42.5521 C115.8989,44.3401 116.5339,45.9641 117.2119,47.4251 C117.8879,48.8871 118.6289,50.2601 119.4319,51.5461 C120.2359,52.8331 121.0919,54.0871 122.0019,55.3071 C122.9109,56.5281 123.9149,57.7931 125.0149,59.1011 C125.6499,59.9291 126.1469,60.6601 126.5069,61.2921 C126.8649,61.9241 127.0779,62.5241 127.1409,63.0921 C127.2049,63.6581 127.1309,64.2131 126.9189,64.7601 C126.7069,65.3051 126.3679,65.8821 125.9039,66.4931 C124.3809,68.3681 122.4559,68.0631 120.1299,65.5771 C118.3109,63.3961 116.6509,61.1291 115.1499,58.7741 C113.6469,56.4191 112.2829,53.7811 111.0579,50.8591 C109.8289,47.9381 108.7509,44.6671 107.8219,41.0471 C106.8889,37.4281 106.1089,33.2641 105.4739,28.5531 C105.3879,28.5531 105.3349,28.5641 105.3149,28.5861 C105.2929,28.6091 105.2399,28.6191 105.1559,28.6191 Z M122.4139,8.2751 C122.8359,9.5411 122.8159,10.6201 122.3509,11.5141 C121.8849,12.4081 120.6999,13.0511 118.7969,13.4431 C115.2019,14.3161 111.3939,14.9911 107.3769,15.4711 C103.3569,15.9511 99.1699,16.3651 94.8149,16.7141 C94.3069,16.8021 93.9579,16.9541 93.7669,17.1721 C93.5769,17.3901 93.4819,17.7181 93.4819,18.1531 L93.4819,32.1511 C93.4819,36.7301 93.3429,40.7531 93.0689,44.2201 C92.7929,47.6871 92.3819,50.7181 91.8309,53.3121 C91.2809,55.9071 90.5839,58.1421 89.7379,60.0171 C88.8909,61.8921 87.8989,63.5711 86.7559,65.0541 C85.5289,66.6661 84.2709,67.6811 82.9799,68.0951 C81.6899,68.5101 80.4959,68.0841 79.3969,66.8201 C78.9299,66.2531 78.6129,65.7411 78.4439,65.2831 C78.2739,64.8251 78.2429,64.3561 78.3489,63.8771 C78.4529,63.3961 78.6769,62.8731 79.0149,62.3071 C79.3529,61.7391 79.8409,61.0631 80.4749,60.2781 C81.6579,58.7961 82.6329,57.2701 83.3929,55.7001 C84.1539,54.1301 84.7579,52.2651 85.2019,50.1071 C85.6459,47.9481 85.9409,45.3761 86.0899,42.3891 C86.2389,39.4021 86.3119,35.7271 86.3119,31.3671 L86.3119,16.1251 C86.3119,13.7701 86.8289,12.0481 87.8669,10.9571 C88.9019,9.8681 90.6689,9.3001 93.1639,9.2561 C97.1409,9.1691 101.0419,8.8871 104.8709,8.4061 C108.6989,7.9261 112.7709,7.1421 117.0839,6.0511 C119.9179,5.3541 121.6949,6.0951 122.4139,8.2751 Z M82.5689,19.2651 C81.7219,20.0941 80.8449,20.4651 79.9359,20.3761 C79.0259,20.2891 77.9579,19.6801 76.7309,18.5451 C75.8849,17.8041 74.9429,16.9971 73.9079,16.1251 C72.8709,15.2531 72.0359,14.5551 71.4019,14.0321 C70.3869,13.1601 69.7829,12.2981 69.5929,11.4481 C69.4029,10.5981 69.7089,9.6061 70.5129,8.4711 C71.2319,7.5131 72.0889,6.9781 73.0829,6.8691 C74.0759,6.7611 75.1239,7.1421 76.2229,8.0141 C77.0269,8.6251 77.7149,9.1691 78.2849,9.6491 C78.8569,10.1301 79.3529,10.5641 79.7769,10.9571 C80.1989,11.3491 80.5909,11.7091 80.9509,12.0361 C81.3089,12.3641 81.6799,12.7021 82.0609,13.0511 C82.9909,14.0101 83.6039,14.9911 83.9019,15.9941 C84.1959,16.9971 83.7959,18.0651 82.6949,19.1991 L82.5689,19.2651 Z M81.4259,46.4111 C80.5799,49.8561 79.6819,53.1061 78.7299,56.1581 C77.7789,59.2101 76.5609,62.2421 75.0819,65.2501 C74.4879,66.5581 73.6429,67.3871 72.5439,67.7361 C71.4439,68.0841 70.4069,67.9741 69.4339,67.4091 C68.4199,66.7981 67.8049,66.0021 67.5949,65.0211 C67.3829,64.0401 67.7209,62.7211 68.6099,61.0631 C69.8369,58.7091 70.8829,56.1471 71.7509,53.3781 C72.6169,50.6091 73.4529,47.6321 74.2569,44.4491 C74.5949,42.9231 75.1019,41.8761 75.7799,41.3091 C76.4549,40.7431 77.4499,40.5891 78.7619,40.8511 C80.0309,41.0701 80.9089,41.5931 81.3949,42.4211 C81.8799,43.2501 81.8909,44.5801 81.4259,46.4111 Z M78.8239,34.7021 C77.9779,35.5311 77.0899,35.9021 76.1599,35.8141 C75.2299,35.7271 74.1719,35.0731 72.9889,33.8521 C72.4379,33.5031 71.6759,32.9151 70.7029,32.0851 C69.7309,31.2581 68.7359,30.4511 67.7209,29.6651 C66.7479,28.7491 66.1559,27.8661 65.9459,27.0161 C65.7319,26.1661 66.0499,25.1521 66.8969,23.9741 C68.3339,22.1001 70.2369,22.0351 72.6069,23.7791 C73.4529,24.4761 74.4259,25.2501 75.5259,26.1001 C76.6249,26.9511 77.5559,27.7471 78.3179,28.4881 C79.2909,29.4481 79.9029,30.4291 80.1569,31.4321 C80.4109,32.4351 79.9879,33.5031 78.8879,34.6371 L78.8239,34.7021 Z" id="Fill-1" fill="#FFFFFF"></path>
                    <path d="M153.8219,28.5532 C155.9799,30.5152 158.5169,32.2172 161.4369,33.6562 C164.2689,32.4352 166.7659,31.0622 168.9239,29.5342 C169.5989,29.0112 169.8219,28.7172 169.5899,28.6512 C169.3569,28.5862 169.0289,28.5532 168.6059,28.5532 L153.8219,28.5532 Z M174.8239,53.8682 C174.8239,53.5202 174.7599,53.3022 174.6339,53.2142 C174.5079,53.1272 174.2099,53.0832 173.7449,53.0832 L146.6529,53.0832 C146.3129,53.0832 146.1029,53.1492 146.0189,53.2802 C145.9329,53.4102 145.8909,53.7382 145.8909,54.2612 L145.8909,58.9052 C145.8909,59.4282 145.9329,59.7552 146.0189,59.8862 C146.1029,60.0172 146.3769,60.0822 146.8429,60.0822 L174.3799,60.0822 C174.6759,60.0822 174.8239,59.9082 174.8239,59.5592 L174.8239,53.8682 Z M182.5649,59.6242 C182.5649,61.0202 182.4699,62.1642 182.2799,63.0582 C182.0899,63.9522 181.7299,64.6612 181.2009,65.1852 C180.6709,65.7082 179.9419,66.0782 179.0109,66.2972 C178.0799,66.5142 176.8759,66.6242 175.3949,66.6242 L145.1939,66.6242 C143.7119,66.6242 142.5179,66.5262 141.6089,66.3292 C140.6979,66.1332 139.9799,65.7742 139.4509,65.2502 C138.9219,64.7272 138.5629,64.0172 138.3729,63.1242 C138.1829,62.2302 138.0879,61.0632 138.0879,59.6242 L138.0879,53.3452 C138.0879,51.8632 138.1919,50.6752 138.4039,49.7802 C138.6159,48.8862 138.9959,48.1992 139.5469,47.7192 C140.0949,47.2402 140.8249,46.9252 141.7349,46.7712 C142.6459,46.6182 143.7979,46.5422 145.1939,46.5422 L175.3949,46.5422 C176.8329,46.5422 178.0179,46.6302 178.9479,46.8042 C179.8779,46.9782 180.6179,47.3052 181.1689,47.7852 C181.7179,48.2652 182.0899,48.9512 182.2799,49.8452 C182.4699,50.7402 182.5649,51.9062 182.5649,53.3452 L182.5649,59.6242 Z M156.2979,11.2842 C156.1279,10.9352 156.0219,10.6952 155.9799,10.5642 C155.3869,9.5622 155.1749,8.5812 155.3449,7.6212 C155.5129,6.6622 156.1699,5.8552 157.3119,5.2002 C157.6929,4.9832 158.1369,4.8312 158.6449,4.7422 C159.1519,4.6562 159.6689,4.6782 160.1989,4.8082 C160.7279,4.9392 161.2469,5.2122 161.7539,5.6262 C162.2609,6.0412 162.6839,6.6402 163.0219,7.4252 C163.4889,8.4282 163.9529,9.7142 164.4189,11.2842 L180.8519,11.2842 C187.3649,10.9352 190.2839,13.1382 189.6079,17.8912 C189.4819,18.6762 189.3539,19.4612 189.2269,20.2462 C189.0999,21.0312 188.8879,21.9042 188.5929,22.8632 C188.0849,24.5202 187.4279,25.5672 186.6259,26.0022 C185.8219,26.4392 184.7849,26.3732 183.5159,25.8062 C182.8399,25.5452 182.3309,25.2612 181.9949,24.9562 C181.6549,24.6512 181.4449,24.2912 181.3599,23.8762 C181.2749,23.4632 181.2959,22.9502 181.4229,22.3392 C181.5509,21.7292 181.7399,20.9652 181.9949,20.0492 C182.2049,19.4842 182.2159,19.0262 182.0259,18.6762 C181.8359,18.3272 181.4449,18.1532 180.8519,18.1532 L153.0609,18.1532 C153.5679,18.2832 154.0539,18.5022 154.5209,18.8072 C155.3669,19.4182 155.8429,20.0602 155.9479,20.7362 C156.0529,21.4132 155.9379,22.0552 155.5989,22.6662 L174.5079,22.6662 C176.2829,22.6662 177.6159,22.9392 178.5049,23.4842 C179.3929,24.0292 179.9519,24.7052 180.1849,25.5112 C180.4169,26.3192 180.3439,27.1912 179.9639,28.1282 C179.5829,29.0672 178.9889,29.9272 178.1859,30.7122 C175.6489,33.1982 172.9409,35.3132 170.0649,37.0572 C172.8149,37.9292 175.4469,38.6052 177.9649,39.0852 C180.4809,39.5662 183.0299,39.9352 185.6109,40.1972 C187.6409,40.4162 188.9509,40.8632 189.5439,41.5372 C190.1359,42.2142 190.3259,43.1632 190.1159,44.3842 C189.9029,45.8662 189.3959,46.7822 188.5929,47.1312 C187.7889,47.4802 186.3919,47.5012 184.4049,47.1962 C182.7129,46.9342 180.9159,46.6072 179.0109,46.2152 C177.1079,45.8232 175.1729,45.3652 173.2059,44.8412 C171.2389,44.3182 169.2929,43.7522 167.3679,43.1402 C165.4429,42.5312 163.5939,41.8552 161.8169,41.1132 C158.0949,42.5092 154.0539,43.7082 149.6989,44.7112 C145.3409,45.7142 140.4989,46.6962 135.1699,47.6542 C133.3919,48.0042 132.1549,47.9592 131.4559,47.5232 C130.7599,47.0882 130.2609,46.2372 129.9659,44.9722 C129.6699,43.6632 129.8269,42.7052 130.4419,42.0942 C131.0539,41.4842 132.2279,41.0472 133.9629,40.7852 C137.1769,40.3062 140.4349,39.7392 143.7339,39.0852 C147.0329,38.4312 150.2479,37.6022 153.3779,36.5992 C152.2779,35.8582 151.1989,35.0192 150.1429,34.0812 C149.0849,33.1442 148.0059,32.0642 146.9069,30.8432 C145.0039,32.2822 143.1209,33.4162 141.2589,34.2442 C139.6109,34.9862 138.2869,35.3242 137.2939,35.2582 C136.2999,35.1932 135.5699,34.5942 135.1059,33.4592 C134.5969,32.1952 134.5659,31.1922 135.0099,30.4502 C135.4549,29.7092 136.5649,28.9902 138.3419,28.2922 C140.2449,27.5502 142.0729,26.4712 143.8299,25.0532 C145.5839,23.6372 147.0969,22.1652 148.3659,20.6382 C149.5079,19.2432 150.5859,18.4142 151.6019,18.1532 L140.8789,18.1532 C140.1169,18.1532 139.5989,18.3272 139.3249,18.6762 C139.0499,19.0262 138.9119,19.6362 138.9119,20.5072 L138.9119,22.2082 C138.9119,23.4742 138.5739,24.4442 137.8969,25.1192 C137.2189,25.7952 136.3319,26.1332 135.2319,26.1332 C134.0049,26.1332 133.0639,25.8502 132.4089,25.2822 C131.7529,24.7162 131.4249,23.7352 131.4249,22.3392 L131.4249,18.8072 C131.4249,16.2342 132.0169,14.3372 133.2019,13.1152 C134.3849,11.8962 136.2889,11.2842 138.9119,11.2842 L156.2979,11.2842 Z" id="Fill-3" fill="#FFFFFF"></path>
                    <path d="M62.9308,61.7177 C62.4868,61.2807 61.6508,61.0637 60.4258,61.0637 L46.5588,61.0637 L46.5588,55.5687 L57.4438,55.5687 C58.5848,55.5687 59.3988,55.3297 59.8868,54.8497 C60.3708,54.3697 60.6158,53.5847 60.6158,52.4947 C60.6158,51.3177 60.3708,50.4887 59.8868,50.0097 C59.3988,49.5297 58.5848,49.2897 57.4438,49.2897 L46.5588,49.2897 L46.5588,44.5137 L58.5228,44.5137 C59.7918,44.5137 60.6158,44.2757 60.9958,43.7947 C61.3768,43.3147 61.5668,42.5097 61.5668,41.3747 C61.5668,40.2407 61.3768,39.4347 60.9958,38.9537 C60.6158,38.4747 59.7918,38.2347 58.5228,38.2347 L46.5588,38.2347 L46.5588,34.8607 C46.5588,34.1937 46.0178,31.7557 43.3418,31.6967 C40.4618,31.6347 39.9608,34.0447 39.9608,34.8607 L39.9608,38.2347 L33.6498,38.2347 C34.1568,37.1877 34.3998,36.2827 34.3798,35.5197 C34.3578,34.7577 33.5528,33.5177 32.6088,33.2447 C30.9448,32.7627 29.1158,33.3547 28.2168,34.8767 C28.1598,34.9737 28.1088,35.0687 28.0668,35.1597 C27.3468,36.9487 26.6278,38.4537 25.9088,39.6737 C25.1888,40.8947 24.3008,42.1377 23.2448,43.4027 C22.6948,44.0127 22.3128,44.5577 22.1028,45.0377 C22.0168,41.0257 21.6158,37.0037 20.8958,32.9687 C20.1778,28.9357 19.0768,24.9997 17.5978,21.1617 C18.5698,19.8537 19.4898,18.5117 20.3578,17.1387 C21.2228,15.7647 22.0388,14.3817 22.8008,12.9847 C23.7718,11.1537 24.1428,9.7467 23.9108,8.7657 C23.6768,7.7847 23.0758,7.0107 22.1028,6.4437 C20.1558,5.2667 18.5068,5.9857 17.1528,8.6017 C16.6868,9.5627 16.2008,10.4567 15.6938,11.2847 C15.1858,12.1127 14.6798,12.9197 14.1708,13.7047 C13.5788,12.7017 13.0068,11.7647 12.4578,10.8917 C11.9078,10.0197 11.3578,9.1917 10.8088,8.4057 C9.7928,7.0977 8.8198,6.3887 7.8888,6.2797 C6.9588,6.1717 6.0498,6.5527 5.1608,7.4247 C4.2308,8.3417 3.7978,9.2677 3.8608,10.2047 C3.9238,11.1427 4.4408,12.3097 5.4148,13.7047 C6.9378,15.8847 8.2488,18.0657 9.3478,20.2457 C8.7138,21.0307 8.0688,21.7507 7.4138,22.4047 C6.7578,23.0587 6.0918,23.6907 5.4148,24.3017 C4.1028,25.4367 3.3308,26.4597 3.0988,27.3757 C2.8668,28.2917 3.0038,29.3607 3.5118,30.5817 C4.1028,31.6277 4.9498,32.1837 6.0498,32.2497 C7.1488,32.3147 8.3338,31.7367 9.6018,30.5157 C10.0688,30.0367 10.5438,29.5457 11.0308,29.0447 C11.5168,28.5437 11.9918,28.0297 12.4578,27.5067 C12.7528,28.3797 13.0288,29.2397 13.2828,30.0907 C13.5368,30.9417 13.7688,31.8467 13.9808,32.8057 C12.2878,35.1597 10.7338,37.1777 9.3168,38.8567 C7.8998,40.5357 6.5778,41.8977 5.3508,42.9447 C3.0678,44.9507 2.4538,46.9127 3.5118,48.8317 C4.2728,50.0967 5.1608,50.7937 6.1758,50.9247 C7.1928,51.0557 8.3548,50.4887 9.6658,49.2237 C10.6388,48.1767 11.6008,47.1207 12.5538,46.0507 C13.5058,44.9837 14.4258,43.8827 15.3138,42.7477 C15.3978,45.1027 15.3758,47.4577 15.2498,49.8127 C15.1218,52.1677 14.8258,54.3917 14.3618,56.4847 C14.1498,57.4007 13.9588,58.1087 13.7908,58.6117 C13.6208,59.1117 13.3998,59.4387 13.1238,59.5927 C12.8488,59.7437 12.4898,59.7227 12.0448,59.5267 C11.6008,59.3307 10.9768,59.0137 10.1748,58.5777 C7.6778,57.0507 5.8798,57.5307 4.7808,60.0177 C4.3148,61.0197 4.2618,62.0127 4.6218,62.9937 C4.9808,63.9747 5.7958,64.8137 7.0648,65.5117 C9.2638,66.7757 11.2738,67.4087 13.0928,67.4087 C17.2378,67.4087 19.9028,64.4867 21.0878,58.6437 C21.3828,56.9857 21.6048,55.3067 21.7528,53.6067 C21.9018,51.9057 22.0168,50.1617 22.1028,48.3737 C22.2708,48.6347 22.4188,48.8107 22.5468,48.8977 C23.3918,49.8127 24.2598,50.1727 25.1488,49.9767 C26.0348,49.7797 26.9238,49.1157 27.8118,47.9807 C28.6588,46.8917 29.4618,45.7357 30.2238,44.5137 L39.9608,44.5137 L39.9608,49.2897 L30.0958,49.2897 C28.9548,49.2897 28.1398,49.5297 27.6538,50.0097 C27.1668,50.4887 26.9238,51.3177 26.9238,52.4947 C26.9238,53.5847 27.1668,54.3697 27.6538,54.8497 C28.1398,55.3297 28.9548,55.5687 30.0958,55.5687 L39.9608,55.5687 L39.9608,61.0637 L25.4008,61.0637 C24.1318,61.0637 23.2758,61.2807 22.8318,61.7177 C22.3878,62.1537 22.1658,62.9827 22.1658,64.2037 C22.1658,65.3367 22.3878,66.1547 22.8318,66.6567 C23.2758,67.1577 24.1318,67.4087 25.4008,67.4087 L60.4258,67.4087 C61.6508,67.4087 62.4868,67.1577 62.9308,66.6567 C63.3748,66.1547 63.5978,65.3367 63.5978,64.2037 C63.5978,62.9827 63.3748,62.1537 62.9308,61.7177" id="Fill-5" fill="#FFFFFF"></path>
                    <path d="M17.8542,82.2612 C18.3762,81.5152 18.9452,81.0392 19.5512,80.8332 C20.1582,80.6252 20.8232,80.7422 21.5402,81.1852 C22.2602,81.6272 22.6602,82.1302 22.7442,82.6972 C22.8242,83.2632 22.6722,83.8232 22.2852,84.3752 L14.9102,94.6922 L23.7382,107.1232 C24.0122,107.5102 24.1042,107.9592 24.0072,108.4692 C23.9112,108.9802 23.5022,109.4712 22.7822,109.9402 C22.0112,110.4372 21.3672,110.6042 20.8572,110.4372 C20.3472,110.2712 19.8842,109.8982 19.4672,109.3192 L11.9282,98.8762 L4.4272,109.3592 C3.5722,110.6042 2.4642,110.7832 1.1122,109.8982 C0.5612,109.5402 0.2072,109.0622 0.0552,108.4692 C-0.0958,107.8752 0.0632,107.2472 0.5312,106.5842 L8.9462,94.7342 L1.6092,84.4992 C1.3062,84.0302 1.2392,83.4842 1.4032,82.8632 C1.5672,82.2422 1.9002,81.7512 2.3972,81.3912 C3.1172,80.8942 3.7322,80.6672 4.2422,80.7092 C4.7512,80.7492 5.2442,81.0882 5.7112,81.7242 L11.9702,90.5482 L17.8542,82.2612 Z" id="Fill-7" fill="#FF973F"></path>
                    <path d="M41.4738,99.249 C41.4988,96.819 41.0528,94.976 40.1258,93.719 C39.1998,92.462 37.9908,91.847 36.4998,91.874 C35.0088,91.902 33.8758,92.586 33.1008,93.925 C32.3298,95.265 31.9298,97.055 31.9008,99.291 C31.8748,101.445 32.2248,103.151 32.9578,104.409 C33.6908,105.666 34.8448,106.293 36.4148,106.293 C37.9908,106.293 39.2208,105.742 40.1048,104.636 C40.9898,103.532 41.4438,101.736 41.4738,99.249 Z M31.9428,114.498 C31.9428,114.719 31.9088,114.953 31.8368,115.203 C31.7698,115.452 31.6308,115.686 31.4248,115.907 C31.2178,116.127 30.9398,116.307 30.5948,116.446 C30.2488,116.582 29.8158,116.652 29.2888,116.652 C28.2148,116.624 27.5028,116.37 27.1578,115.885 C26.8128,115.403 26.6398,114.94 26.6398,114.498 L26.6398,89.844 C26.6398,89.402 26.8498,88.941 27.2798,88.457 C27.7098,87.974 28.3668,87.717 29.2468,87.69 C30.1318,87.69 30.7878,87.938 31.2178,88.436 C31.6428,88.933 31.8578,89.402 31.8578,89.844 L31.8578,91.583 C32.3848,90.175 33.1558,89.105 34.1788,88.374 C35.2028,87.642 36.3778,87.275 37.6998,87.275 C38.8878,87.275 40.0368,87.475 41.1408,87.875 C42.2448,88.277 43.2178,88.947 44.0638,89.886 C44.9068,90.826 45.5798,92.056 46.0938,93.574 C46.6038,95.092 46.8608,96.971 46.8608,99.209 C46.8608,101.031 46.6378,102.654 46.1948,104.078 C45.7528,105.499 45.1338,106.702 44.3288,107.681 C43.5288,108.663 42.5688,109.408 41.4528,109.919 C40.3318,110.429 39.0988,110.686 37.7418,110.686 C36.3908,110.686 35.2448,110.423 34.3058,109.898 C33.3658,109.374 32.5778,108.408 31.9428,106.999 L31.9428,114.498 Z" id="Fill-9" fill="#FF973F"></path>
                    <path d="M54.0627,99.2089 C54.0917,101.7209 54.5557,103.5319 55.4527,104.6359 C56.3497,105.7419 57.6007,106.2929 59.2007,106.2929 C60.8057,106.2929 61.9767,105.6659 62.7217,104.4089 C63.4717,103.1509 63.8297,101.4329 63.7997,99.2489 C63.7747,97.0129 63.3787,95.2369 62.6207,93.9249 C61.8587,92.6129 60.6917,91.9309 59.1207,91.8749 C57.5457,91.8469 56.3037,92.4349 55.3897,93.6349 C54.4797,94.8369 54.0377,96.6949 54.0627,99.2089 Z M63.6777,106.9989 C63.0417,108.4079 62.2547,109.3739 61.3147,109.8979 C60.3757,110.4229 59.2307,110.6859 57.8747,110.6859 C56.5217,110.6859 55.2887,110.4289 54.1677,109.9189 C53.0477,109.4079 52.0867,108.6629 51.2877,107.6809 C50.4867,106.7019 49.8637,105.4999 49.4257,104.0779 C48.9827,102.6539 48.7597,101.0309 48.7597,99.2089 C48.7597,96.9709 49.0167,95.0919 49.5267,93.5739 C50.0367,92.0559 50.7137,90.8259 51.5567,89.8859 C52.3987,88.9469 53.3717,88.2769 54.4797,87.8759 C55.5837,87.4749 56.7287,87.2749 57.9167,87.2749 C59.2427,87.2749 60.4177,87.6419 61.4377,88.3749 C62.4607,89.1049 63.2357,90.1749 63.7577,91.5839 L63.7577,89.8439 C63.7577,89.4019 63.9727,88.9329 64.4027,88.4359 C64.8327,87.9379 65.4847,87.6899 66.3697,87.6899 C67.2537,87.7169 67.9107,87.9739 68.3357,88.4569 C68.7657,88.9409 68.9807,89.4019 68.9807,89.8439 L68.9807,108.2829 C68.9807,108.7259 68.8077,109.1869 68.4627,109.6709 C68.1177,110.1529 67.4057,110.4099 66.3277,110.4379 C65.7757,110.4379 65.3337,110.3679 65.0047,110.2289 C64.6717,110.0919 64.4027,109.9129 64.1957,109.6919 C63.9897,109.4709 63.8507,109.2349 63.7787,108.9869 C63.7117,108.7379 63.6777,108.5039 63.6777,108.2829 L63.6777,106.9989 Z" id="Fill-11" fill="#FFFFFF"></path>
                    <path d="M77.8083,108.3232 C77.8083,108.8492 77.5723,109.3382 77.1053,109.7952 C76.6333,110.2502 75.9973,110.4792 75.1973,110.4792 C74.3963,110.4792 73.7613,110.2562 73.2933,109.8162 C72.8213,109.3742 72.5853,108.8772 72.5853,108.3232 L72.5853,90.0932 C72.5853,89.2652 72.8643,88.6562 73.4153,88.2692 C73.9673,87.8842 74.5613,87.6902 75.1973,87.6902 C75.8333,87.6902 76.4273,87.8752 76.9783,88.2482 C77.5303,88.6232 77.8083,89.2382 77.8083,90.0932 L77.8083,108.3232 Z M72.3793,82.7182 C72.3793,81.9152 72.6493,81.2462 73.1883,80.7092 C73.7273,80.1702 74.3963,79.9002 75.1973,79.9002 C75.9973,79.9002 76.6673,80.1702 77.2063,80.7092 C77.7453,81.2462 78.0153,81.9152 78.0153,82.7182 C78.0153,83.5182 77.7453,84.1882 77.2063,84.7272 C76.6673,85.2662 75.9973,85.5352 75.1973,85.5352 C74.3963,85.5352 73.7273,85.2662 73.1883,84.7272 C72.6493,84.1882 72.3793,83.5182 72.3793,82.7182 Z" id="Fill-13" fill="#FFFFFF"></path>
                    <path d="M87.5881,108.7382 C87.5881,109.2352 87.3441,109.6432 86.8591,109.9622 C86.3791,110.2772 85.7481,110.4502 84.9771,110.4792 C84.2021,110.5052 83.5741,110.3472 83.0901,110.0012 C82.6061,109.6562 82.3651,109.2352 82.3651,108.7382 L82.3651,81.1422 C82.3651,80.3972 82.5511,79.8372 82.9251,79.4642 C83.2961,79.0922 83.9831,78.9062 84.9771,78.9062 C85.9711,78.9062 86.6531,79.1062 87.0281,79.5062 C87.3991,79.9062 87.5881,80.5762 87.5881,81.5152 L87.5881,96.3072 L95.5021,88.3932 C96.0241,87.8422 96.6271,87.6082 97.3041,87.6902 C97.9791,87.7722 98.5511,88.0482 99.0231,88.5172 C99.4901,88.9892 99.7601,89.5812 99.8321,90.2992 C99.8991,91.0192 99.5881,91.7372 98.8971,92.4552 L92.1451,98.9602 L99.2721,105.7542 C100.0421,106.5562 100.4091,107.3172 100.3711,108.0342 C100.3291,108.7532 100.0801,109.3252 99.6251,109.7532 C99.1661,110.1802 98.6021,110.4232 97.9231,110.4792 C97.2461,110.5342 96.6601,110.3132 96.1631,109.8162 L87.5881,101.6542 L87.5881,108.7382 Z" id="Fill-15" fill="#FF973F"></path>
                    <path d="M103.0832,107.8686 C103.0832,107.0686 103.3532,106.3966 103.8872,105.8596 C104.4262,105.3206 105.0962,105.0506 105.9002,105.0506 C106.7012,105.0506 107.3712,105.3206 107.9102,105.8596 C108.4492,106.3966 108.7182,107.0686 108.7182,107.8686 C108.7182,108.6706 108.4492,109.3386 107.9102,109.8776 C107.3712,110.4166 106.7012,110.6856 105.9002,110.6856 C105.0962,110.6856 104.4262,110.4166 103.8872,109.8776 C103.3532,109.3386 103.0832,108.6706 103.0832,107.8686" id="Fill-17" fill="#FFFFFF"></path>
                    <path d="M112.155,99.2089 C112.155,97.6339 112.383,96.1279 112.838,94.6919 C113.297,93.2559 113.97,91.9919 114.867,90.9009 C115.769,89.8109 116.885,88.9329 118.224,88.2689 C119.564,87.6079 121.118,87.2749 122.887,87.2749 C124.298,87.2749 125.587,87.5229 126.761,88.0209 C127.937,88.5179 128.825,89.0709 129.432,89.6779 C129.655,89.8989 129.87,90.1749 130.076,90.5079 C130.282,90.8379 130.434,91.1979 130.531,91.5839 C130.628,91.9709 130.657,92.3589 130.615,92.7439 C130.573,93.1309 130.413,93.4899 130.139,93.8219 C130.026,93.9609 129.862,94.1129 129.642,94.2769 C129.419,94.4429 129.158,94.5619 128.855,94.6309 C128.551,94.6979 128.232,94.6979 127.899,94.6309 C127.57,94.5619 127.238,94.3339 126.905,93.9459 C126.353,93.2829 125.78,92.7729 125.186,92.4139 C124.593,92.0559 123.856,91.8749 122.971,91.8749 C122.141,91.8749 121.383,92.0559 120.693,92.4139 C120.002,92.7729 119.412,93.2709 118.932,93.9039 C118.447,94.5409 118.069,95.3129 117.791,96.2249 C117.512,97.1369 117.378,98.1459 117.378,99.2489 C117.378,100.4099 117.533,101.4239 117.854,102.2959 C118.17,103.1659 118.591,103.8969 119.117,104.4909 C119.639,105.0859 120.233,105.5349 120.899,105.8379 C121.56,106.1419 122.238,106.2929 122.929,106.2929 C123.451,106.2929 123.889,106.2659 124.235,106.2109 C124.58,106.1559 124.862,106.0719 125.085,105.9619 C125.304,105.8529 125.498,105.7349 125.662,105.6109 C125.831,105.4869 125.995,105.3539 126.159,105.2169 C126.408,105.0229 126.673,104.8229 126.947,104.6149 C127.225,104.4089 127.515,104.2569 127.819,104.1599 C128.122,104.0629 128.455,104.0419 128.813,104.0969 C129.171,104.1539 129.558,104.3199 129.971,104.5959 C130.582,105.0089 130.94,105.4449 131.049,105.8989 C131.158,106.3559 131.007,106.9439 130.594,107.6619 C130.043,108.6279 129.116,109.4079 127.819,110.0009 C126.517,110.5959 124.917,110.8929 123.013,110.8929 C121.269,110.8929 119.724,110.6169 118.372,110.0649 C117.015,109.5129 115.879,108.7259 114.952,107.7019 C114.025,106.6809 113.33,105.4509 112.859,104.0149 C112.391,102.5789 112.155,100.9759 112.155,99.2089" id="Fill-19" fill="#FFFFFF"></path>
                    <path d="M142.943,106.2934 C144.792,106.2934 146.152,105.6804 147.024,104.4504 C147.896,103.2204 148.33,101.4874 148.33,99.2494 C148.33,97.0124 147.913,95.2244 147.088,93.8834 C146.257,92.5434 144.847,91.8744 142.859,91.8744 C141.865,91.8744 141.035,92.0674 140.374,92.4554 C139.713,92.8404 139.178,93.3654 138.777,94.0284 C138.378,94.6914 138.095,95.4644 137.931,96.3494 C137.762,97.2334 137.683,98.1724 137.683,99.1674 C137.683,101.4054 138.095,103.1514 138.925,104.4084 C139.751,105.6654 141.09,106.2934 142.943,106.2934 M142.943,87.2744 C144.847,87.2744 146.477,87.5804 147.833,88.1874 C149.185,88.7954 150.284,89.6374 151.127,90.7134 C151.969,91.7924 152.588,93.0624 152.992,94.5254 C153.392,95.9914 153.59,97.5644 153.59,99.2494 C153.59,100.9634 153.392,102.5304 152.992,103.9534 C152.588,105.3754 151.956,106.5984 151.084,107.6204 C150.213,108.6414 149.109,109.4434 147.77,110.0224 C146.43,110.6044 144.821,110.8924 142.943,110.8924 C141.065,110.8924 139.464,110.5954 138.137,110.0014 C136.811,109.4074 135.72,108.5924 134.865,107.5564 C134.005,106.5204 133.386,105.2864 132.999,103.8484 C132.611,102.4144 132.418,100.8514 132.418,99.1674 C132.418,97.4824 132.611,95.9154 132.999,94.4644 C133.386,93.0134 133.993,91.7564 134.823,90.6924 C135.648,89.6314 136.735,88.7954 138.074,88.1874 C139.414,87.5804 141.035,87.2744 142.943,87.2744" id="Fill-21" fill="#FFFFFF"></path>
                    <path d="M184.5426,97.1792 C184.5426,96.2942 184.4876,95.5212 184.3746,94.8582 C184.2646,94.1952 184.0666,93.6432 183.7756,93.2012 C183.4846,92.7592 183.0766,92.4282 182.5546,92.2072 C182.0276,91.9862 181.3626,91.8742 180.5626,91.8742 C179.9006,91.8742 179.2866,91.9442 178.7216,92.0802 C178.1526,92.2202 177.6646,92.4742 177.2476,92.8472 C176.8346,93.2222 176.5106,93.7402 176.2746,94.4012 C176.0386,95.0652 175.9206,95.9222 175.9206,96.9712 L175.9206,108.7382 C175.9206,109.2352 175.6806,109.6432 175.1966,109.9622 C174.7166,110.2772 174.0846,110.4502 173.3136,110.4792 C172.5386,110.5052 171.9116,110.3472 171.4266,110.0012 C170.9426,109.6562 170.7026,109.2352 170.7026,108.7382 L170.7026,97.1792 C170.7026,95.4102 170.4336,94.0852 169.8946,93.2012 C169.3546,92.3162 168.2856,91.8742 166.6846,91.8742 C166.0196,91.8742 165.4046,91.9442 164.8396,92.0802 C164.2716,92.2202 163.7916,92.4742 163.3916,92.8472 C162.9866,93.2222 162.6706,93.7402 162.4346,94.4012 C162.1986,95.0652 162.0856,95.9222 162.0856,96.9712 L162.0856,108.7382 C162.0856,109.2352 161.8406,109.6502 161.3566,109.9802 C160.8766,110.3132 160.2196,110.4792 159.3896,110.4792 C158.5606,110.4792 157.9326,110.3132 157.5066,109.9802 C157.0776,109.6502 156.8626,109.2352 156.8626,108.7382 L156.8626,89.2232 C156.8626,88.7262 157.0686,88.3472 157.4856,88.0842 C157.8986,87.8202 158.5766,87.6902 159.5166,87.6902 C160.4556,87.6902 161.1046,87.8352 161.4616,88.1242 C161.8196,88.4142 162.0006,88.7812 162.0006,89.2232 L162.0006,91.4192 C162.4686,90.2592 163.1546,89.2782 164.0526,88.4772 C164.9496,87.6752 166.0196,87.2752 167.2616,87.2752 C169.0056,87.2752 170.3776,87.6562 171.3846,88.4142 C172.3956,89.1752 173.1326,90.2592 173.6046,91.6682 C174.3206,90.4232 175.3056,89.3832 176.5656,88.5382 C177.8206,87.6962 179.2776,87.2752 180.9376,87.2752 C181.9566,87.2752 182.9716,87.4412 183.9816,87.7722 C184.9886,88.1052 185.8906,88.5962 186.6736,89.2442 C187.4606,89.8922 188.0976,90.6862 188.5816,91.6262 C189.0656,92.5652 189.3056,93.6562 189.3056,94.8982 L189.3056,108.7382 C189.3056,109.1802 189.2046,109.5742 188.9946,109.9192 C188.7876,110.2652 188.1896,110.4502 187.1916,110.4792 C186.1976,110.5052 185.5066,110.3892 185.1236,110.1262 C184.7356,109.8632 184.5426,109.4012 184.5426,108.7382 L184.5426,97.1792 Z" id="Fill-23" fill="#FFFFFF"></path>
                    <path d="M43.2424,28.4423 L52.2464,26.1873 L57.2824,10.4423 L46.8524,4.6723 L38.6504,5.7753 L32.1044,9.2173 C32.1044,9.2173 30.0904,16.0083 30.4254,16.5573 C30.7614,17.1073 37.7004,28.4423 37.7004,28.4423" id="Fill-25" fill="#FFFFFF"></path>
                    <path d="M49.1481,18.1352 L50.2451,19.5152 C50.2451,19.5152 50.9831,20.4402 50.2951,21.5252 C49.7481,22.3892 48.6991,22.4642 47.7941,22.1732 C47.7941,22.1732 45.4121,21.2502 43.2661,21.2502 C41.1171,21.2502 38.7201,22.1732 38.7201,22.1732 C37.8151,22.4642 36.7661,22.3892 36.2181,21.5252 C35.5311,20.4402 36.2681,19.5152 36.2681,19.5152 L37.3841,18.1352 C38.2061,16.8202 37.3841,16.1072 37.3841,16.1072 L34.0881,13.0572 L38.0991,7.4702 C39.5061,6.1292 40.6721,8.2282 40.6721,8.2282 C41.9971,10.2302 43.2661,10.8782 43.2661,10.8782 C43.2661,10.8782 44.5111,10.2302 45.8351,8.2282 C45.8351,8.2282 47.0011,6.1292 48.4091,7.4702 L52.3971,13.0572 L49.1481,16.1072 C49.1481,16.1072 48.3061,16.8402 49.1481,18.1352 M48.8971,24.3052 C45.9971,26.6462 43.2681,26.4542 43.2681,26.4542 C43.2681,26.4542 40.5391,26.6462 37.6381,24.3052 C37.6381,24.3052 36.7701,23.6172 37.4531,23.2372 C37.4531,23.2372 39.7701,21.7462 43.2681,21.7462 C46.7581,21.7462 49.0821,23.2372 49.0821,23.2372 C49.7651,23.6172 48.8971,24.3052 48.8971,24.3052 M55.8851,6.8382 L55.6351,6.8382 C54.8151,5.5082 53.7391,4.7592 52.8801,5.0652 C52.4461,5.2202 52.1301,5.6232 51.9421,6.1852 C50.4811,3.9792 48.6031,2.3472 46.4861,1.5282 C46.3651,1.4772 46.2861,1.4442 46.2461,1.4292 C46.2271,1.4232 46.2091,1.4132 46.1901,1.4072 C46.6561,0.9692 47.4861,0.9022 47.4861,0.9022 C45.9211,0.3942 44.7341,0.6672 44.7341,0.6672 C44.9671,0.2612 45.6041,0.0002 45.6041,0.0002 C39.2951,0.0572 35.6661,5.1222 35.6711,5.1242 C35.4121,5.4502 35.1641,5.7922 34.9231,6.1442 C34.7351,5.5892 34.4211,5.1892 33.9911,5.0352 C33.1251,4.7262 32.0381,5.4882 31.2161,6.8382 L30.6191,6.8382 C23.4481,6.8382 25.0751,13.6292 25.0751,13.6292 L25.9501,19.8162 L26.1471,21.0382 C26.7221,23.7372 28.9781,30.0122 37.5691,30.0122 L48.9481,30.0122 C57.5771,30.0122 59.8151,23.6822 60.3781,21.0032 L61.4281,13.6292 C61.4281,13.6292 63.0561,6.8382 55.8851,6.8382" id="Fill-27" fill="#FF973F"></path>
                    <path d="M50.1452,11.7544 L48.8652,11.7544 L47.5822,11.7544 L45.5972,11.7544 L44.7472,11.7544 L41.8442,11.7544 L41.2502,11.7544 L39.0092,11.7544 L37.7262,11.7544 L36.4452,11.7544 C36.4452,11.7544 36.5262,13.3974 36.8872,14.3584 C36.9392,14.5294 37.0162,14.6934 37.1182,14.8474 C37.8192,15.9034 39.4412,16.0614 40.7422,15.1994 C41.7302,14.5434 42.2472,13.4874 42.1292,12.5544 L42.7002,12.5544 L43.1982,13.4814 C43.2322,13.5454 43.3232,13.5454 43.3572,13.4814 L43.8552,12.5544 L44.4612,12.5544 C44.3442,13.4874 44.8602,14.5434 45.8492,15.1994 C47.1492,16.0614 48.7712,15.9034 49.4732,14.8474 C49.5752,14.6934 49.6512,14.5294 49.7042,14.3584 C50.0642,13.3974 50.1452,11.7544 50.1452,11.7544" id="Fill-29" fill="#FF973F"></path>
                    <path d="M41.2897,17.2089 C41.1987,17.2089 41.1477,17.3139 41.2037,17.3859 L41.4147,17.6539 C41.4147,17.6539 41.5267,17.8869 42.0097,17.8869 L42.5547,17.8869 C42.5547,17.8869 42.9237,17.8339 42.9237,18.2359 L42.9237,20.3809 L43.6667,20.3809 L43.6667,18.2359 C43.6667,17.8339 44.0367,17.8869 44.0367,17.8869 L44.5807,17.8869 C45.0637,17.8869 45.1767,17.6539 45.1767,17.6539 L45.3877,17.3859 C45.4437,17.3139 45.3927,17.2089 45.3017,17.2089 L41.2897,17.2089 Z" id="Fill-31" fill="#FF973F"></path>
                </g>
            </g>
        </g>
    </g>
</svg>