<?xml version="1.0" encoding="UTF-8"?>
<svg width="114px" height="45px" viewBox="0 0 114 45" version="1.1" xmlns="http://www.w3.org/2000/svg" xmlns:xlink="http://www.w3.org/1999/xlink">
    <!-- Generator: Sketch 49.2 (51160) - http://www.bohemiancoding.com/sketch -->
    <title>2</title>
    <desc>Created with Sketch.</desc>
    <defs></defs>
    <g id="Page-1" stroke="none" stroke-width="1" fill="none" fill-rule="evenodd">
        <g id="猩派客官网首页" transform="translate(-1695.000000, -41.000000)">
            <g id="Group" transform="translate(1695.000000, 41.000000)">
                <g id="Group-5">
                    <rect id="Rectangle-2" fill="#FFFFFF" x="0" y="0" width="114" height="45" rx="22.5"></rect>
                    <path d="M20.98,18.004 L22.786,18.004 L26.272,26.012 L26.314,26.012 L29.786,18.004 L31.592,18.004 L31.592,28 L30.066,28 L30.066,20.86 L30.01,20.86 L26.944,28 L25.628,28 L22.562,20.86 L22.506,20.86 L22.506,28 L20.98,28 L20.98,18.004 Z M33.552,18.004 L40.734,18.004 L40.734,19.306 L35.078,19.306 L35.078,22.218 L40.398,22.218 L40.398,23.52 L35.078,23.52 L35.078,26.698 L40.972,26.698 L40.972,28 L33.552,28 L33.552,18.004 Z M42.526,18.004 L44.066,18.004 L49.176,25.438 L49.232,25.438 L49.232,18.004 L50.758,18.004 L50.758,28 L49.274,28 L44.108,20.482 L44.052,20.482 L44.052,28 L42.526,28 L42.526,18.004 Z M52.732,18.004 L54.258,18.004 L54.258,24.22 C54.258,25.116 54.454,25.774 54.874,26.208 C55.294,26.642 55.952,26.866 56.862,26.866 C57.758,26.866 58.416,26.642 58.836,26.208 C59.242,25.774 59.452,25.116 59.452,24.22 L59.452,18.004 L60.978,18.004 L60.978,24.192 C60.978,25.494 60.614,26.488 59.9,27.174 C59.186,27.846 58.178,28.196 56.862,28.196 C55.532,28.196 54.524,27.86 53.824,27.188 C53.096,26.488 52.732,25.494 52.732,24.192 L52.732,18.004 Z" id="MENU" fill="#000000"></path>
                    <rect id="Rectangle" fill="#000000" x="77" y="17" width="16" height="2"></rect>
                    <rect id="Rectangle-Copy" fill="#000000" x="77" y="27" width="16" height="2"></rect>
                </g>
            </g>
        </g>
    </g>
</svg>