<?xml version="1.0" encoding="UTF-8"?>
<svg width="68px" height="68px" viewBox="0 0 68 68" version="1.1" xmlns="http://www.w3.org/2000/svg" xmlns:xlink="http://www.w3.org/1999/xlink">
    <!-- Generator: Sketch 49.2 (51160) - http://www.bohemiancoding.com/sketch -->
    <title>25</title>
    <desc>Created with Sketch.</desc>
    <defs></defs>
    <g id="Page-1" stroke="none" stroke-width="1" fill="none" fill-rule="evenodd">
        <g id="猩派客官网首页" transform="translate(-533.000000, -4877.000000)" fill="#FF983E" fill-rule="nonzero">
            <g id="用户" transform="translate(533.000000, 4877.000000)">
                <g id="Group-32" transform="translate(0.000000, 5.000000)">
                    <path d="M37.774,27.9343399 C41.4919681,24.4363479 43.6318218,19.5920412 43.7077338,14.5012596 C43.7836458,9.410478 41.7891756,4.5051347 38.1771429,0.898927241 C39.7569771,0.303650819 41.4323982,-0.000941390906 43.1217143,2.18556765e-06 C50.9708571,2.18556765e-06 57.3385714,6.49062772 57.3385714,14.4987934 C57.3385714,22.5069591 50.9757143,28.9975846 43.1217143,28.9975846 C41.2859223,28.9995062 39.4680817,28.638079 37.774,27.9343399 Z M44.5254286,33.830515 L49.64,33.830515 C59.7817143,33.830515 68,42.2108164 68,52.5581204 L68,53.766353 C68,57.0430798 62.6814286,57.7873511 55.3277143,57.9516707 C55.6837752,57.4072859 55.8681451,56.7694156 55.8571429,56.1199901 L55.8571429,54.5492877 C55.8982269,46.1670488 51.6217192,38.3479326 44.5254286,33.830515 Z M23.6931429,2.18556765e-06 C31.5422857,2.18556765e-06 37.91,6.49062772 37.91,14.4987934 C37.91,22.5069591 31.5471429,28.9975846 23.6931429,28.9975846 C15.844,28.9975846 9.47628571,22.5069591 9.47628571,14.4987934 C9.47628571,6.49062772 15.844,2.18556765e-06 23.6931429,2.18556765e-06 Z M18.36,33.830515 L30.2065714,33.830515 C40.3482857,33.830515 48.5665714,42.2108164 48.5665714,52.5581204 L48.5665714,53.766353 C48.5665714,57.8405133 40.3434286,58 30.2065714,58 L18.36,58 C8.21828571,58 0,57.9951671 0,53.766353 L0,52.5581204 C0,42.2156493 8.21828571,33.830515 18.36,33.830515 Z" id="Shape"></path>
                </g>
            </g>
        </g>
    </g>
</svg>