<?xml version="1.0" encoding="UTF-8"?>
<svg width="68px" height="68px" viewBox="0 0 68 68" version="1.1" xmlns="http://www.w3.org/2000/svg" xmlns:xlink="http://www.w3.org/1999/xlink">
    <!-- Generator: Sketch 49.2 (51160) - http://www.bohemiancoding.com/sketch -->
    <title>26</title>
    <desc>Created with Sketch.</desc>
    <defs></defs>
    <g id="Page-1" stroke="none" stroke-width="1" fill="none" fill-rule="evenodd">
        <g id="猩派客官网首页" transform="translate(-1315.000000, -4882.000000)" fill="#FF983E" fill-rule="nonzero">
            <g id="Group-33" transform="translate(1315.000000, 4882.000000)">
                <g id="后台2" transform="translate(3.000000, 6.000000)">
                    <path d="M56.7001476,0 L6.29985235,0 C2.83467519,0 0,2.86370628 0,6.36354316 L0,41.3637762 C0,44.8639859 2.77967235,48.2892471 6.17803404,48.9757163 L19.9494094,51.7577622 C19.9494094,51.7577622 8.09648785,56 15.75,56 L47.25,56 C54.9046196,56 43.0505907,51.7577622 43.0505907,51.7577622 L56.8230734,48.9757163 C60.2203277,48.2892471 63,44.8639859 63,41.3637762 L63,6.36354316 C63,2.86370628 60.1649557,0 56.7001476,0 Z M56.7001476,41.0457109 L6.29985235,41.0457109 L6.29985235,5.72741256 L56.7001476,5.72741256 L56.7001476,41.0457109 Z" id="Shape"></path>
                    <path d="M41.6916648,24 C41.6916648,22.5036139 42.612697,21.3223718 44,20.5105333 C43.750354,19.6752646 43.4190454,18.8753468 43.0116922,18.1220155 C41.4561315,18.5290994 40.197214,17.9196382 39.1388902,16.8614394 C38.0805664,15.8032405 37.7566568,14.5434864 38.163736,12.9884561 C37.4106874,12.5809612 36.6107787,12.2497859 35.7751085,12 C34.9630052,13.3875929 33.496643,14.3083616 32,14.3083616 C30.503631,14.3083616 29.0371318,13.3875929 28.2247545,12 C27.3894953,12.2495119 26.5895867,12.5809612 25.836538,12.9880451 C26.2433432,14.5436235 25.9197077,15.8028294 24.8613839,16.8614394 C23.8030601,17.9196383 22.5435944,18.5290994 20.9883078,18.1224266 C20.5809546,18.8753468 20.2497831,19.6752646 20,20.5105333 C21.387303,21.3225088 22.3081982,22.5036139 22.3081982,24 C22.3081982,25.4963861 21.387303,26.9631761 20,27.7750146 C20.249646,28.6105573 20.5809546,29.4104751 20.9883078,30.1638064 C22.5438685,29.7567225 23.8030601,30.0807728 24.8612469,31.1389717 C25.9192967,32.1974446 26.2432062,33.4565136 25.836401,35.0118179 C26.5894497,35.4190388 27.3893583,35.7506252 28.2250286,36 C29.0372688,34.6128181 30.503494,33.6915014 31.999863,33.6915014 C33.4965061,33.6915014 34.9628682,34.6128181 35.7749715,36 C36.6106417,35.7503511 37.4105504,35.4190388 38.163873,35.0114068 C37.7570678,33.4563765 38.0804293,32.1973076 39.1387531,31.1388347 C40.197077,30.0806358 41.4562686,29.4709006 43.0115551,29.8779844 C43.4189084,29.1246532 43.7500799,28.3247354 43.999863,27.4891926 C42.6126969,26.6774912 41.6916648,25.4963861 41.6916648,24 Z M32,29.2189223 C29.1178351,29.2189223 26.7815483,26.8821978 26.7815483,24.000137 C26.7815483,21.1178022 29.1179721,18.7813517 32,18.7813517 C34.8823019,18.7813517 37.2184517,21.1178022 37.2184517,24.000137 C37.2184517,26.8821978 34.8823019,29.2189223 32,29.2189223 Z" id="Shape"></path>
                </g>
            </g>
        </g>
    </g>
</svg>