<?xml version="1.0" encoding="UTF-8"?>
<svg width="46px" height="46px" viewBox="0 0 46 46" version="1.1" xmlns="http://www.w3.org/2000/svg" xmlns:xlink="http://www.w3.org/1999/xlink">
    <!-- Generator: Sketch 49.2 (51160) - http://www.bohemiancoding.com/sketch -->
    <title>27</title>
    <desc>Created with Sketch.</desc>
    <defs></defs>
    <g id="Page-1" stroke="none" stroke-width="1" fill="none" fill-rule="evenodd">
        <g id="猩派客官网首页" transform="translate(-541.000000, -4684.000000)" fill="#FF983E" fill-rule="nonzero">
            <g id="商品-1" transform="translate(541.000000, 4684.000000)">
                <g id="Group-49" transform="translate(3.000000, 3.000000)">
                    <path d="M36.6666667,0 L3.33333333,0 C1.5,0 0,1.5 0,3.33333333 L0,36.6666667 C0,38.5 1.5,40 3.33333333,40 L36.6666667,40 C38.5,40 40,38.5 40,36.6666667 L40,3.33333333 C40,1.5 38.5,0 36.6666667,0 Z M30.7083333,20.71875 C29.953125,25.9583333 25.4479167,30 20,30 C14.5572917,30 10.046875,25.9583333 9.29166667,20.71875 C8.26041667,20.4114583 7.5,19.4635417 7.5,18.3333333 C7.5,16.953125 8.61979167,15.8333333 10,15.8333333 C11.3802083,15.8333333 12.5,16.953125 12.5,18.3333333 C12.5,19.375 11.8645833,20.2604167 10.9635417,20.640625 C11.671875,24.9947917 15.4479167,28.3333333 20,28.3333333 C24.5520833,28.3333333 28.328125,24.9947917 29.0364583,20.640625 C28.1354167,20.2604167 27.5,19.375 27.5,18.3333333 C27.5,16.953125 28.6197917,15.8333333 30,15.8333333 C31.3802083,15.8333333 32.5,16.953125 32.5,18.3333333 C32.5,19.4635417 31.7395833,20.4114583 30.7083333,20.71875 Z M37.5,5.83333333 C37.5,6.75 36.75,7.5 35.8333333,7.5 L4.16666667,7.5 C3.25,7.5 2.5,6.75 2.5,5.83333333 L2.5,4.16666667 C2.5,3.25 3.25,2.5 4.16666667,2.5 L35.8333333,2.5 C36.75,2.5 37.5,3.25 37.5,4.16666667 L37.5,5.83333333 Z" id="Shape"></path>
                </g>
            </g>
        </g>
    </g>
</svg>