<?xml version="1.0" encoding="UTF-8"?>
<svg width="46px" height="46px" viewBox="0 0 46 46" version="1.1" xmlns="http://www.w3.org/2000/svg" xmlns:xlink="http://www.w3.org/1999/xlink">
    <!-- Generator: Sketch 49.2 (51160) - http://www.bohemiancoding.com/sketch -->
    <title>28</title>
    <desc>Created with Sketch.</desc>
    <defs></defs>
    <g id="Page-1" stroke="none" stroke-width="1" fill="none" fill-rule="evenodd">
        <g id="猩派客官网首页" transform="translate(-327.000000, -4831.000000)" fill="#FF983E" fill-rule="nonzero">
            <g id="分享" transform="translate(327.000000, 4831.000000)">
                <g id="Group-50" transform="translate(6.000000, 6.000000)">
                    <path d="M28.4375493,21.866108 C26.2910703,21.866108 24.3853931,22.8974973 23.1880615,24.4919567 L12.8748094,19.314176 C13.0378047,18.7415186 13.1250674,18.1369869 13.1250674,17.5119528 C13.1250674,16.8273205 13.020261,16.1672995 12.8259937,15.5467892 L23.1002596,10.3884733 C24.2909968,12.0507486 26.2376924,13.1339335 28.4375078,13.1339335 C32.0618944,13.1339335 35,10.1938661 35,6.56696675 C35,2.9401089 32.0618944,0 28.4375078,0 C24.8130797,0 21.8750156,2.9401089 21.8750156,6.56696675 C21.8750156,6.81789345 21.8896146,7.06537541 21.9169464,7.3090391 L11.0806575,12.7494504 C9.90398026,11.631237 8.31334453,10.9449446 6.56249222,10.9449446 C2.9381056,10.9449446 0,13.885012 0,17.5119113 C0,21.1388107 2.93806413,24.0788781 6.56249222,24.0788781 C8.37709106,24.0788781 10.0195701,23.3418691 11.2075285,22.1506936 L21.9360248,27.536902 C21.8960432,27.8299957 21.8748911,28.1289828 21.8748911,28.4330332 C21.8748911,32.0599326 24.8129553,35 28.4373834,35 C32.0618114,35 34.9998756,32.0599326 34.9998756,28.4330332 C34.9998341,24.8062169 32.0619773,21.866108 28.4375493,21.866108 Z" id="Shape"></path>
                </g>
            </g>
        </g>
    </g>
</svg>