<?xml version="1.0" encoding="UTF-8"?>
<svg width="46px" height="46px" viewBox="0 0 46 46" version="1.1" xmlns="http://www.w3.org/2000/svg" xmlns:xlink="http://www.w3.org/1999/xlink">
    <!-- Generator: Sketch 49.2 (51160) - http://www.bohemiancoding.com/sketch -->
    <title>29</title>
    <desc>Created with Sketch.</desc>
    <defs></defs>
    <g id="Page-1" stroke="none" stroke-width="1" fill="none" fill-rule="evenodd">
        <g id="猩派客官网首页" transform="translate(-409.000000, -5075.000000)" fill="#FF983E" fill-rule="nonzero">
            <g id="订单管理" transform="translate(409.000000, 5075.000000)">
                <g id="Group-51" transform="translate(4.000000, 2.000000)">
                    <path d="M37.7625,13.7902344 C37.7497768,13.7608398 37.7412946,13.7272461 37.7285714,13.6978516 C37.6819196,13.5760742 37.6267857,13.4542969 37.5674107,13.3367187 C37.5419643,13.2905273 37.5165179,13.2401367 37.4910714,13.1939453 C37.4783482,13.1729492 37.4698661,13.1519531 37.4571429,13.130957 C37.4316964,13.0847656 37.4020089,13.0385742 37.3723214,12.9923828 C37.346875,12.9545898 37.3214286,12.9167969 37.2959821,12.8748047 C37.1560268,12.669043 36.9948661,12.4716797 36.8125,12.2911133 L25.6669643,1.19257813 C25.0901786,0.621484375 24.3607143,0.23515625 23.571875,0.0797851562 C23.3131696,0.0251953125 23.0417411,0 22.7703125,0 L21.7142857,0 L4.58035714,0 C2.05267857,0 0,2.03242187 0,4.53515625 L0,38.4648438 C0,40.9717773 2.05267857,43 4.58035714,43 L33.4196429,43 C35.9515625,43 38,40.9675781 38,38.4648438 L38,16.125 L38,15.146582 C38,14.6804688 37.9194196,14.2227539 37.7625,13.7902344 Z M34.1321429,13.4375 L26.2946429,13.4375 C25.2640625,13.4375 24.4285714,12.6102539 24.4285714,11.5898438 L24.4285714,3.77089844 L29.9037946,9.22988281 L34.1321429,13.4375 Z M35.2857143,38.4648437 C35.2857143,39.4852539 34.4502232,40.3125 33.4196429,40.3125 L4.58035714,40.3125 C3.54977679,40.3125 2.71428571,39.4852539 2.71428571,38.4648437 L2.71428571,4.53515625 C2.71428571,3.51474609 3.54977679,2.6875 4.58035714,2.6875 L21.7142857,2.6875 L21.7142857,11.5898437 C21.7142857,14.0967773 23.7669643,16.125 26.2946429,16.125 L35.2857143,16.125 L35.2857143,38.4648437 Z" id="Shape"></path>
                    <path d="M6.4,11 L17.6,11 C18.374375,11 19,10.3296875 19,9.5 C19,8.6703125 18.374375,8 17.6,8 L6.4,8 C5.625625,8 5,8.6703125 5,9.5 C5,10.3296875 5.625625,11 6.4,11 Z" id="Shape"></path>
                    <path d="M6.4,19 L17.6,19 C18.374375,19 19,18.3296875 19,17.5 C19,16.6703125 18.374375,16 17.6,16 L6.4,16 C5.625625,16 5,16.6703125 5,17.5 C5,18.3296875 5.625625,19 6.4,19 Z" id="Shape"></path>
                    <path d="M5,25.5 C5,26.3296875 5.60328125,27 6.35,27 L30.65,27 C31.3967188,27 32,26.3296875 32,25.5 C32,24.6703125 31.3967188,24 30.65,24 L6.35,24 C5.60328125,24 5,24.6703125 5,25.5 Z" id="Shape"></path>
                    <path d="M30.65,32 L6.35,32 C5.60328125,32 5,32.6703125 5,33.5 C5,34.3296875 5.60328125,35 6.35,35 L30.65,35 C31.3967188,35 32,34.3296875 32,33.5 C32,32.6703125 31.3967188,32 30.65,32 Z" id="Shape"></path>
                </g>
            </g>
        </g>
    </g>
</svg>