<?xml version="1.0" encoding="UTF-8"?>
<svg width="114px" height="45px" viewBox="0 0 114 45" version="1.1" xmlns="http://www.w3.org/2000/svg" xmlns:xlink="http://www.w3.org/1999/xlink">
    <!-- Generator: Sketch 49.2 (51160) - http://www.bohemiancoding.com/sketch -->
    <title>3</title>
    <desc>Created with Sketch.</desc>
    <defs></defs>
    <g id="Page-1" stroke="none" stroke-width="1" fill="none" fill-rule="evenodd">
        <g id="猩派客菜单栏" transform="translate(-1695.000000, -41.000000)">
            <g id="Group" transform="translate(1695.000000, 41.000000)">
                <g id="Group-2">
                    <rect id="Rectangle-2-Copy" fill="#000000" x="0" y="0" width="114" height="45" rx="22.5"></rect>
                    <path d="M25.32,17.808 C26.482,17.808 27.448,18.102 28.204,18.718 C28.932,19.306 29.38,20.118 29.534,21.126 L28.05,21.126 C27.882,20.454 27.56,19.95 27.084,19.628 C26.608,19.306 26.02,19.152 25.292,19.152 C24.214,19.152 23.402,19.516 22.856,20.258 C22.338,20.93 22.086,21.854 22.086,23.016 C22.086,24.22 22.338,25.144 22.842,25.802 C23.374,26.502 24.2,26.852 25.32,26.852 C26.048,26.852 26.664,26.67 27.14,26.306 C27.644,25.914 27.994,25.326 28.19,24.542 L29.674,24.542 C29.45,25.704 28.932,26.614 28.106,27.272 C27.336,27.888 26.412,28.196 25.334,28.196 C23.696,28.196 22.464,27.664 21.638,26.628 C20.91,25.732 20.56,24.528 20.56,23.016 C20.56,21.532 20.924,20.328 21.68,19.39 C22.52,18.326 23.724,17.808 25.32,17.808 Z M31.214,18.004 L32.726,18.004 L32.726,26.698 L38.228,26.698 L38.228,28 L31.214,28 L31.214,18.004 Z M43.912,17.808 C45.424,17.808 46.628,18.298 47.51,19.292 C48.35,20.23 48.77,21.476 48.77,23.016 C48.77,24.542 48.35,25.774 47.51,26.726 C46.628,27.706 45.424,28.196 43.912,28.196 C42.386,28.196 41.182,27.692 40.314,26.712 C39.474,25.76 39.068,24.528 39.068,23.016 C39.068,21.49 39.474,20.258 40.314,19.306 C41.182,18.298 42.386,17.808 43.912,17.808 Z M43.912,19.152 C42.848,19.152 42.022,19.502 41.434,20.23 C40.874,20.916 40.594,21.84 40.594,23.016 C40.594,24.178 40.874,25.102 41.434,25.788 C42.022,26.488 42.848,26.852 43.912,26.852 C44.976,26.852 45.802,26.502 46.376,25.816 C46.936,25.144 47.23,24.206 47.23,23.016 C47.23,21.812 46.936,20.874 46.376,20.188 C45.802,19.488 44.976,19.152 43.912,19.152 Z M53.81,17.808 C54.972,17.808 55.882,18.046 56.54,18.55 C57.24,19.068 57.632,19.866 57.73,20.958 L56.218,20.958 C56.078,20.314 55.826,19.838 55.434,19.558 C55.042,19.264 54.482,19.124 53.726,19.124 C53.068,19.124 52.564,19.222 52.214,19.418 C51.78,19.642 51.57,20.006 51.57,20.51 C51.57,20.958 51.808,21.308 52.312,21.574 C52.536,21.7 53.11,21.91 54.048,22.19 C55.392,22.61 56.274,22.932 56.666,23.17 C57.52,23.688 57.954,24.402 57.954,25.326 C57.954,26.222 57.604,26.922 56.904,27.44 C56.204,27.944 55.224,28.196 53.964,28.196 C52.746,28.196 51.794,27.944 51.108,27.468 C50.282,26.88 49.834,25.956 49.75,24.696 L51.262,24.696 C51.374,25.48 51.654,26.054 52.102,26.39 C52.508,26.698 53.124,26.852 53.964,26.852 C54.72,26.852 55.322,26.712 55.77,26.46 C56.218,26.208 56.442,25.858 56.442,25.41 C56.442,24.85 56.12,24.416 55.49,24.094 C55.266,23.982 54.608,23.758 53.502,23.422 C52.27,23.03 51.514,22.764 51.206,22.596 C50.436,22.134 50.058,21.462 50.058,20.594 C50.058,19.712 50.422,19.026 51.164,18.522 C51.864,18.046 52.746,17.808 53.81,17.808 Z M59.368,18.004 L66.55,18.004 L66.55,19.306 L60.894,19.306 L60.894,22.218 L66.214,22.218 L66.214,23.52 L60.894,23.52 L60.894,26.698 L66.788,26.698 L66.788,28 L59.368,28 L59.368,18.004 Z" id="CLOSE" fill="#FFFFFF"></path>
                    <rect id="Rectangle-Copy-4" fill="#FFFFFF" transform="translate(86.363961, 22.363961) rotate(-45.000000) translate(-86.363961, -22.363961) " x="78.363961" y="21.363961" width="16" height="2"></rect>
                    <rect id="Rectangle-Copy-5" fill="#FFFFFF" transform="translate(86.363961, 22.363961) scale(-1, 1) rotate(-45.000000) translate(-86.363961, -22.363961) " x="78.363961" y="21.363961" width="16" height="2"></rect>
                </g>
            </g>
        </g>
    </g>
</svg>