<svg xmlns="http://www.w3.org/2000/svg" width="46" height="46" viewBox="0 0 46 46">
  <path fill="#FF983E" d="M12.8906306,0 L5.48805985,0 C2.50132267,0 5.2140789e-05,2.47787189 5.2140789e-05,5.46460508 L5.2140789e-05,12.8672702 C5.2140789e-05,15.8540034 2.50137482,18.2296445 5.48805985,18.2296445 L18.2297731,18.2296445 L18.229773,5.46460503 C18.229773,2.47797607 15.8773157,0 12.8906306,0 Z M15.5554603,15.5554394 L5.48805985,15.5554394 C3.99461313,15.5554394 2.71886301,14.3605586 2.71886301,12.8672701 L2.71886296,5.46460503 C2.71886296,3.97126448 3.99456099,2.71885932 5.4880598,2.71885932 L12.8906306,2.71885932 C14.3840773,2.71885932 15.5554602,3.97121239 15.5554602,5.46460503 L15.5554603,15.5554394 Z M33.6542923,0 L26.251513,0 C23.2647759,0 20.7702269,2.47787189 20.7702269,5.46460508 L20.7702269,18.2296966 L33.6542923,18.2296966 C36.6409252,18.2296966 39,15.8540033 39,12.8673223 L39,5.46460503 C38.9999479,2.47797607 36.6408731,0 33.6542923,0 Z M33.6542923,15.5554394 L23.4445397,15.5554394 L23.4445397,5.46460503 C23.4445397,3.97126448 24.7582226,2.71885932 26.251461,2.71885932 L33.6541881,2.71885932 C35.1475306,2.71885932 36.2810328,3.97121239 36.2810328,5.46460503 L36.2810328,12.8672701 L36.281137,12.8672701 C36.281137,14.3605065 35.1475306,15.5554394 33.6542923,15.5554394 Z M0,26.2281347 L0,33.6306956 C0,36.6174288 2.50132267,38.9999479 5.48800771,38.9999479 L12.8905785,38.9999479 C15.8773157,38.9999479 18.2297209,36.6174288 18.2297209,33.6306956 L18.2297209,20.7703034 L5.48805985,20.7703034 C2.50132267,20.7703034 0,23.2414016 0,26.2281347 Z M15.5554082,33.6306956 C15.5554082,35.1241404 14.3840774,36.2810885 12.8905785,36.2810885 L5.48805985,36.2810885 C3.99461313,36.2810885 2.71886301,35.1241924 2.71886301,33.6306956 L2.71886296,26.2281347 C2.71886296,24.73469 3.99456099,23.4445605 5.4880598,23.4445605 L15.5554603,23.4445605 L15.5554603,33.6306956 L15.5554082,33.6306956 Z M33.6541881,20.7703034 L20.7702791,20.7703034 L20.7702791,33.6307478 C20.7702791,36.6174288 23.264828,39 26.2515131,39 L33.654136,39 C36.6408211,39 38.9998958,36.617481 38.9998958,33.6307478 L38.9998958,26.2281347 C38.9999479,23.2414536 36.6408731,20.7703034 33.6541881,20.7703034 Z" transform="translate(4 4)"/>
</svg>
