<?xml version="1.0" encoding="UTF-8"?>
<svg width="46px" height="46px" viewBox="0 0 46 46" version="1.1" xmlns="http://www.w3.org/2000/svg" xmlns:xlink="http://www.w3.org/1999/xlink">
    <!-- Generator: Sketch 49.2 (51160) - http://www.bohemiancoding.com/sketch -->
    <title>31</title>
    <desc>Created with Sketch.</desc>
    <defs></defs>
    <g id="Page-1" stroke="none" stroke-width="1" fill="none" fill-rule="evenodd">
        <g id="猩派客官网首页" transform="translate(-753.000000, -4832.000000)" fill="#FF983E" fill-rule="nonzero">
            <g id="Group-78" transform="translate(753.000000, 4832.000000)">
                <g id="Group-77" transform="translate(1.000000, 3.000000)">
                    <path d="M42.4701739,13.699748 C41.5302806,12.5717029 40.2354278,11.7988719 38.8205886,11.5156606 C36.4208613,4.51218049 29.946597,0 22.2924668,0 C14.678332,0 8.21906604,4.47857913 5.79434155,11.424457 C4.23951824,11.5780631 2.8046813,12.3028921 1.72980343,13.4693388 C0.614930096,14.6837873 0,16.2678507 0,17.9287171 L0,23.0649226 C0,26.6698668 2.87967275,29.6075843 6.41927057,29.6075843 L9.72389501,29.6075843 C10.8087717,29.6075843 11.6936712,28.7579503 11.6936712,27.7163087 L11.6936712,13.2725309 C11.6936712,12.3460938 10.9937507,11.5732629 10.0788547,11.4148566 C11.0837405,9.12036481 12.7135553,7.2098884 14.8083173,5.87543502 C16.9630724,4.5025801 19.5527781,3.7777511 22.2924668,3.7777511 C25.027156,3.7777511 27.6218612,4.5025801 29.7866152,5.87543502 C31.8763777,7.200288 33.5261902,9.10116406 34.5660721,11.3860554 L34.276105,11.3860554 C33.1912283,11.3860554 32.3063288,12.2356895 32.3063288,13.2773311 L32.3063288,27.7211088 C32.3063288,28.1099244 32.4363141,28.4843394 32.6712873,28.8059522 C32.3913191,29.1179647 32.1163504,29.4347774 31.8513806,29.7419897 C29.9415976,31.9452778 28.1318033,34.0285612 25.0771503,34.5277811 C24.3972276,33.5437417 23.2373594,32.9341174 22.0024997,32.9341174 C19.9727304,32.9341174 18.3229179,34.5181807 18.3229179,36.4670587 C18.3229179,38.4159367 19.9727304,40 22.0024997,40 C22.8923986,40 23.7473014,39.6927877 24.4172253,39.1311652 C25.0321555,38.6175447 25.4521077,37.9215169 25.6120896,37.1582863 C27.6918532,36.8174727 29.5666402,35.9054362 31.3414385,34.3693748 C32.956255,32.9725189 34.346097,31.1916477 35.5759573,29.6027841 L37.5807295,29.6027841 C41.1203272,29.6027841 44,26.6698668 44,23.0601224 L44,17.923917 C43.9950006,16.3782551 43.4550619,14.875795 42.4701739,13.699748 Z M7.75411884,25.825033 L6.41927057,25.825033 C5.05442567,25.825033 3.93955234,24.5865835 3.93955234,23.0649226 L3.93955234,17.923917 C3.93955234,17.7079083 3.96954892,17.4870995 4.02954213,17.2278891 C4.039541,17.1798872 4.05953871,17.1270851 4.074537,17.0694828 C4.13952962,16.8534741 4.21452107,16.675867 4.29951145,16.5174607 C4.30451086,16.5078603 4.30951033,16.4934597 4.31450974,16.4838594 C4.31950915,16.4790592 4.31950915,16.474259 4.32450862,16.4646586 C4.55448248,16.0566423 4.88444497,15.7206288 5.27440066,15.4950198 C5.43438249,15.4038162 5.60436314,15.3270131 5.78434272,15.2694108 L5.82933759,15.2550102 L5.83933647,15.25021 L5.84433588,15.25021 C6.03931371,15.1926077 6.23429158,15.1638065 6.41927057,15.1638065 L7.75411884,15.1638065 L7.75411884,25.825033 Z M40.0604477,23.0649226 C40.0604477,24.5865834 38.9455743,25.825033 37.5807295,25.825033 L36.2458812,25.825033 L36.2458812,15.1638065 L37.5807295,15.1638065 C38.2306556,15.1638065 38.8455858,15.4470179 39.3105329,15.9558382 C39.8004772,16.5030601 40.0654471,17.2038881 40.0554482,17.9287171 L40.0554482,23.0649226 L40.0604477,23.0649226 Z M27.7040032,28.1229339 C26.0229318,30.0754132 24.0497232,30.9896694 21.5024901,31 C18.8732536,31 17.1409301,30.1993801 15.3061023,28.143595 C15.085718,27.8853306 14.9780884,27.5599173 15.0037145,27.2190083 C15.0293405,26.857438 15.1984728,26.5268595 15.4803597,26.2892562 C15.6956188,26.1033058 15.9775058,26.0051653 16.2850188,26.0051653 C16.689911,26.0051653 17.0794275,26.1756198 17.3305632,26.464876 C18.6016171,27.8543389 19.6932884,28.3450413 21.5024901,28.3450413 C23.2296884,28.3450413 24.4802414,27.7768595 25.6795423,26.4545454 C25.9204275,26.1704545 26.309944,26 26.7148362,26 C27.0223493,26 27.3093615,26.0981405 27.5194954,26.2789256 C27.7962571,26.5113637 27.9705145,26.8522727 27.9961406,27.213843 C28.0217667,27.554752 27.9192623,27.875 27.7040032,28.1229339 Z" id="Shape"></path>
                </g>
            </g>
        </g>
    </g>
</svg>