<?xml version="1.0" encoding="UTF-8"?>
<svg width="46px" height="46px" viewBox="0 0 46 46" version="1.1" xmlns="http://www.w3.org/2000/svg" xmlns:xlink="http://www.w3.org/1999/xlink">
    <!-- Generator: Sketch 49.2 (51160) - http://www.bohemiancoding.com/sketch -->
    <title>32</title>
    <desc>Created with Sketch.</desc>
    <defs></defs>
    <g id="Page-1" stroke="none" stroke-width="1" fill="none" fill-rule="evenodd">
        <g id="猩派客官网首页" transform="translate(-1327.000000, -4680.000000)" fill="#FF983E" fill-rule="nonzero">
            <g id="粉丝-copy" transform="translate(1327.000000, 4680.000000)">
                <g id="Group-38" transform="translate(3.000000, 3.000000)">
                    <path d="M35.4700029,26.4222222 C33.7236683,26.4399373 32.5121486,27.2498485 31.7400849,28.1654966 C30.9823825,27.238223 29.768565,26.4222222 27.9779975,26.4222222 C26.794626,26.4222222 25.8123128,26.7914709 25.0586315,27.5216642 C23.6787974,28.8569382 23.6506492,30.8681531 23.6650106,30.9307094 C23.6305434,31.1338792 22.9176483,35.9640058 31.2925867,39.985882 C31.5846857,40.1272203 31.9298523,40.1228843 32.2180291,39.9742565 C37.282974,37.3834264 40.0529825,34.2688944 39.9714102,30.8520988 C40.1115766,30.5824974 39.9001782,26.4222222 35.4700029,26.4222222 Z" id="Shape"></path>
                    <path d="M31.8181818,12.5278409 C31.8181818,5.62162724 26.2113414,0 19.3182425,0 C12.4251436,0 6.81830324,5.61935564 6.81830324,12.5278409 C6.81830324,17.4043853 9.61860696,21.630118 13.6864702,23.6978364 C6.19103974,26.1051582 0,32.9273228 0,39.8613635 C0,40.4900271 1.13610056,41 1.13610056,41 L27.5859948,41 C27.5859948,41 27.0046286,40.6711868 26.1722437,40.1379301 C24.4321116,39.0225774 20.752959,36.5028118 20.3194843,31.734736 C19.7732494,25.7263699 25.0276436,23.6705773 25.0276436,23.6705773 C29.0558426,21.5886614 31.8181818,17.3759904 31.8181818,12.5278409 Z" id="Shape"></path>
                </g>
            </g>
        </g>
    </g>
</svg>