<?xml version="1.0" encoding="UTF-8"?>
<svg width="46px" height="46px" viewBox="0 0 46 46" version="1.1" xmlns="http://www.w3.org/2000/svg" xmlns:xlink="http://www.w3.org/1999/xlink">
    <!-- Generator: Sketch 49.2 (51160) - http://www.bohemiancoding.com/sketch -->
    <title>33</title>
    <desc>Created with Sketch.</desc>
    <defs></defs>
    <g id="Page-1" stroke="none" stroke-width="1" fill="none" fill-rule="evenodd">
        <g id="猩派客官网首页" transform="translate(-1109.000000, -4831.000000)" fill="#FF983E" fill-rule="nonzero">
            <g id="门店管理" transform="translate(1109.000000, 4831.000000)">
                <g id="Group-34" transform="translate(0.000000, 2.000000)">
                    <path d="M46,34.3849217 L46,30.4603132 C46,30.4603132 43.4722222,29.9976108 43.4722222,29.769047 C43.4722222,29.5404831 43.4722222,29.3063446 43.2444444,29.3063446 C43.4722222,28.8436422 45.0833333,27.4611096 45.0833333,27.4611096 L42.3222222,23.5365012 C42.3222222,23.5365012 40.4833333,25.1531723 40.0222222,25.3817361 C39.7944444,25.3817361 39.5611111,25.1531723 39.3333333,25.1531723 C39.1055556,25.1531723 38.4111111,22.6166711 38.4111111,22.6166711 L34.5,22.6166711 C34.5,22.6166711 34.0388889,24.9246084 33.35,25.1531723 C33.1222222,25.1531723 32.8888889,25.3817361 32.6611111,25.3817361 C32.2,25.1531723 30.3611111,23.5365012 30.3611111,23.5365012 L27.6,27.4611096 C27.6,27.4611096 28.9777778,28.8436422 29.2111111,29.3063446 C29.2111111,29.5349084 29.2111111,29.5349084 28.9833333,29.769047 C28.2944444,29.9976108 26.6833333,30.2317494 26.6833333,30.2317494 L26.6833333,34.1563578 C26.6833333,34.1563578 28.7555556,34.6190603 29.2111111,34.8476241 C29.2111111,35.0761879 29.4388889,35.3103265 29.4388889,35.5388904 C28.9777778,36.2301566 27.6,37.1555615 27.6,37.1555615 L30.5888889,41.0801699 C30.5888889,41.0801699 32.8888889,39.4634988 33.35,39.4634988 C33.5777778,39.4634988 33.8111111,39.6920626 34.0388889,39.6920626 C34.5,39.9206265 34.7277778,42 34.7277778,42 L38.6388889,42 C38.6388889,42 38.8666667,39.6920626 39.1,39.6920626 C39.3333333,39.6920626 39.5611111,39.4634988 40.0222222,39.4634988 C40.25,39.6920626 41.8611111,41.0801699 41.8611111,41.0801699 L45.7722222,37.1555615 C45.7722222,37.1555615 44.3944444,36.2301566 43.9333333,35.5388904 C43.9333333,35.3103265 44.1611111,35.0761879 44.1611111,34.8476241 C43.7,34.8476241 46,34.3849217 46,34.3849217 Z M36.1111111,37.3841253 C33.35,37.3841253 31.2833333,35.3047518 31.2833333,32.5396868 C31.2833333,29.7746217 33.3555556,27.6952482 36.1111111,27.6952482 C38.8722222,27.6952482 40.9388889,29.7746217 40.9388889,32.5396868 C40.9388889,35.0761879 38.8722222,37.3841253 36.1111111,37.3841253 Z M6.21111111,3.69046987 L36.5722222,3.69046987 C37.7222222,3.69046987 38.4111111,2.99920361 38.4111111,1.84523493 C38.4111111,0.69126626 37.7222222,0 36.5722222,0 L6.21111111,0 C5.06111111,0 4.37222222,0.69126626 4.37222222,1.84523493 C4.37222222,2.76506504 5.28888889,3.69046987 6.21111111,3.69046987 Z M10.8111111,15.692859 C10.8111111,18.4634988 13.1111111,21 16.1,21 C19.0888889,21 21.3888889,18.6920626 21.3888889,15.692859 C21.3888889,18.4634988 23.6888889,21 26.6777778,21 C29.6666667,21 31.9666667,18.6920626 31.9666667,15.692859 C31.9666667,18.4634988 34.2666667,21 37.2555556,21 C40.2444444,21 42.5444444,18.6920626 42.5444444,15.692859 L38.8666667,5.99840722 L3.67777778,5.99840722 L0,15.692859 C0,18.4634988 2.3,21 5.28888889,21 C8.51111111,21 10.8111111,18.4634988 10.8111111,15.692859 Z M24.6111111,34.8476241 L6.9,34.8476241 L6.9,22.6166711 L3.91111111,22.6166711 L3.91111111,35.5388904 C3.91111111,36.692859 5.06111111,38.0753916 6.21111111,38.0753916 L25.3,38.0753916 C24.8388889,36.9269976 24.6111111,35.7730289 24.6111111,34.8476241 Z" id="Shape"></path>
                </g>
            </g>
        </g>
    </g>
</svg>