<?xml version="1.0" encoding="UTF-8"?>
<svg width="46px" height="46px" viewBox="0 0 46 46" version="1.1" xmlns="http://www.w3.org/2000/svg" xmlns:xlink="http://www.w3.org/1999/xlink">
    <!-- Generator: Sketch 49.2 (51160) - http://www.bohemiancoding.com/sketch -->
    <title>34</title>
    <desc>Created with Sketch.</desc>
    <defs></defs>
    <g id="Page-1" stroke="none" stroke-width="1" fill="none" fill-rule="evenodd">
        <g id="猩派客官网首页" transform="translate(-1193.000000, -5076.000000)" fill="#FF983E" fill-rule="nonzero">
            <g id="订单管理-copy-2" transform="translate(1193.000000, 5076.000000)">
                <g id="Group-37" transform="translate(6.000000, 2.000000)">
                    <path d="M30.7316935,23.1428571 L30.7316935,7.71428571 C30.7316935,7.24714286 30.3526693,6.85714283 29.8840111,6.85714287 L26.4634035,6.85714287 L26.4634035,10.2805714 C26.4634035,11.2302857 25.7036478,12 24.7637704,12 L9.38170681,12 C8.44353667,12 7.68292737,11.2311428 7.68292737,10.2805714 L7.68292737,6.85714287 L4.26231976,6.85714287 C3.80134444,6.85714287 3.41463739,7.24114286 3.41463739,7.71428571 L3.41463739,36.8571428 C3.41463739,37.3242857 3.79366154,37.7142857 4.26231976,37.7142857 L16.2195074,37.7142857 C17.162432,37.7142857 17.9268234,38.4817976 17.9268234,39.4285714 C17.9268234,40.3753453 17.162432,41.1428571 16.2195074,41.1428571 L1.7047604,41.1428571 C0.761559668,41.1404929 -0.00141097131,40.3713387 5.34785688e-06,39.4242857 L5.34785688e-06,5.14714287 C-0.0011279319,4.69218916 0.177897574,4.25544203 0.497650397,3.93309773 C0.817403221,3.61075343 1.25165546,3.42925242 1.7047604,3.42857142 L7.68292737,3.42857142 L7.68292737,1.71942856 C7.68292737,0.769714301 8.442683,0 9.38256048,0 L24.764624,0 C25.7027942,0 26.4634035,0.768857152 26.4634035,1.71942856 L26.4634035,3.42857142 L32.4415704,3.42857142 C33.3831553,3.42857142 34.1463255,4.19914287 34.1463255,5.14714287 L34.1463255,23.1428571 C34.1463255,24.089631 33.3819341,24.8571428 32.4390095,24.8571428 C31.4960849,24.8571428 30.7316935,24.089631 30.7316935,23.1428571 Z M11.0975594,4.27714284 L11.0975594,7.72285716 C11.0975594,8.18485715 11.4817055,8.57142858 11.957193,8.57142858 L22.1891378,8.57142858 C22.4152386,8.5734832 22.6328789,8.48520573 22.7941181,8.32604149 C22.9553572,8.16687725 23.0469682,7.94988301 23.0487715,7.72285716 L23.0487715,4.27714284 C23.0487715,3.81514285 22.6646254,3.42857142 22.1891378,3.42857142 L11.957193,3.42857142 C11.7310922,3.42651681 11.5134519,3.51479428 11.3522128,3.67395852 C11.1909737,3.83312276 11.0993627,4.050117 11.0975594,4.27714284 Z M5.97561137,18 C5.97561031,17.0542294 6.7384421,16.2871329 7.68036642,16.2857143 L26.4659644,16.2857143 C27.4075492,16.2857143 28.1707195,17.0468571 28.1707195,18 C28.1707205,18.9457706 27.4078887,19.7128671 26.4659644,19.7142857 L7.68036642,19.7142857 C7.22758403,19.7149718 6.79318717,19.5344979 6.4732617,19.2127839 C6.15333623,18.8910698 5.97424842,18.4546292 5.97561137,18 Z M5.97561137,31.7142857 C5.97561137,30.7671429 6.74561089,30 7.69061031,30 L14.5045085,30 C15.4474331,30 16.2118245,30.7675119 16.2118245,31.7142857 C16.2118245,32.6610596 15.4474331,33.4285714 14.5045085,33.4285714 L7.69146398,33.4285714 C7.23717835,33.4308522 6.80071956,33.2512478 6.47868702,32.9295093 C6.15665447,32.6077709 5.97560569,32.1704315 5.97561137,31.7142857 Z M5.97561137,24.8571429 C5.97561137,23.91 6.73792795,23.1428572 7.67609814,23.1428571 L17.0799947,23.1428571 C18.0190185,23.1428571 18.7804814,23.904 18.7804814,24.8571429 C18.7804814,25.8042857 18.0181649,26.5714286 17.0799947,26.5714286 L7.67609814,26.5714286 C6.73707433,26.5714286 5.97561137,25.8102857 5.97561137,24.8571429 Z M34.3469351,32.1111428 C34.7063252,32.1111428 35.0025445,32.4068571 34.9999835,32.7711429 L34.9999835,34.0894286 C34.9999847,34.4532681 34.7067332,34.7484836 34.3443741,34.7494286 L33.5555942,34.7494286 C33.1962041,34.7494286 32.8129117,35.0322857 32.7036435,35.3785714 L32.2520584,36.4825714 C32.0821804,36.8022857 32.1513267,37.2754285 32.4057168,37.5308571 L32.9657165,38.0914286 C33.2218139,38.3485714 33.2218139,38.7677143 32.9657165,39.0248571 L32.0352292,39.9574286 C31.7787221,40.2140655 31.3638101,40.2140655 31.107303,39.9574286 L30.550718,39.396 C30.2954742,39.1405714 29.8251087,39.0711429 29.5058406,39.2434286 L28.4063291,39.6977143 C28.0623049,39.8048571 27.7788905,40.1897143 27.7788904,40.5522857 L27.7788904,41.3408571 C27.7770193,41.7044448 27.4836854,41.9985937 27.1215738,42 L25.8086478,42 C25.4463431,41.9990603 25.1527378,41.7046394 25.1513311,41.3408571 L25.1513311,40.5522857 C25.1513311,40.1897143 24.869624,39.8048571 24.5238925,39.6977143 L23.4226737,39.2434286 C23.1042592,39.0711429 22.6347473,39.1405714 22.3812109,39.396 L21.8212112,39.9574286 C21.5647041,40.2140655 21.1497921,40.2140655 20.893285,39.9574286 L19.9636514,39.0248571 C19.7078606,38.7667158 19.7078606,38.3495699 19.9636514,38.0914286 L20.5227974,37.5308571 C20.7788948,37.2754286 20.8471874,36.8022857 20.6773095,36.4825714 L20.2231635,35.3785714 C20.1156026,35.0322857 19.7331638,34.7494286 19.3720664,34.7477143 L18.5841401,34.7477143 C18.2214472,34.7477146 17.9272945,34.4527446 17.9268234,34.0885714 L17.9268234,32.7711429 C17.9268234,32.4068571 18.2221891,32.1111428 18.5841401,32.1111428 L19.3720664,32.1111428 C19.7331638,32.1111428 20.1173099,31.8282857 20.2240171,31.482 L20.6773095,30.3762857 C20.8480411,30.0557143 20.7788948,29.5851428 20.5227974,29.328 L19.9645051,28.7657143 C19.7089116,28.5081601 19.7089116,28.0915542 19.9645051,27.834 L20.893285,26.9022857 C21.1485287,26.6451428 21.5668212,26.6451428 21.8212112,26.9022857 L22.3820646,27.4637143 C22.638162,27.7191429 23.1051129,27.7894286 23.4235273,27.618 L24.5238925,27.1654286 C24.869624,27.0574286 25.1513311,26.6734286 25.1513311,26.3082857 L25.1513311,25.5171428 C25.1513311,25.1545714 25.4475504,24.8571428 25.8086478,24.8571429 L27.1215738,24.8571429 C27.4818175,24.8571429 27.7788905,25.1545714 27.7788904,25.5171428 L27.7788904,26.3082857 C27.7788904,26.6717143 28.0623049,27.0565714 28.4063291,27.1637143 L29.5041333,27.618 C29.8234014,27.7894286 30.2937669,27.7191428 30.548157,27.4637143 L31.1081567,26.9031429 C31.3647623,26.645936 31.7803309,26.645936 32.0369366,26.9031429 L32.9674238,27.8357143 C33.2235212,28.0911428 33.2235212,28.5102857 32.9674238,28.7682857 L32.4074242,29.3297143 C32.1521804,29.586 32.0830341,30.0574286 32.2537657,30.3762857 L32.7053508,31.482 C32.8137654,31.8282857 33.1962041,32.1111428 33.5564478,32.1111428 L34.3469351,32.1111428 Z M29.6902307,33.3711429 C29.6902308,32.1932382 29.064381,31.1048093 28.048433,30.515857 C27.032485,29.9269046 25.7807854,29.9269046 24.7648374,30.515857 C23.7488894,31.1048093 23.1230397,32.1932382 23.1230397,33.3711429 C23.1230397,34.2455965 23.4690611,35.0842222 24.0849593,35.7024739 C24.7008575,36.3207257 25.5361637,36.6679416 26.407062,36.6677143 C27.277734,36.6679416 28.112823,36.320816 28.7285611,35.702725 C29.3442992,35.0846341 29.6902307,34.2462263 29.6902307,33.372 L29.6902307,33.3711429 Z" id="Shape"></path>
                </g>
            </g>
        </g>
    </g>
</svg>