<?xml version="1.0" encoding="UTF-8"?>
<svg width="46px" height="46px" viewBox="0 0 46 46" version="1.1" xmlns="http://www.w3.org/2000/svg" xmlns:xlink="http://www.w3.org/1999/xlink">
    <!-- Generator: Sketch 49.2 (51160) - http://www.bohemiancoding.com/sketch -->
    <title>35</title>
    <desc>Created with Sketch.</desc>
    <defs></defs>
    <g id="Page-1" stroke="none" stroke-width="1" fill="none" fill-rule="evenodd">
        <g id="猩派客官网首页" transform="translate(-1463.000000, -5078.000000)" fill="#FF983E" fill-rule="nonzero">
            <g id="财务管理" transform="translate(1463.000000, 5078.000000)">
                <g id="Group-52" transform="translate(4.000000, 4.000000)">
                    <path d="M4.43499256,17.2625741 C5.22816196,17.2625741 5.8699852,16.6264142 5.8699852,15.8417672 C5.8699852,8.67324337 11.7598822,2.84157122 19.0007098,2.84157122 C26.2401177,2.84157122 32.1300147,8.67324333 32.1300147,15.8417672 C32.1300147,18.3226419 31.4223271,20.7340864 30.0826249,22.8160567 C29.6565927,23.4779016 29.8541859,24.3561729 30.5226389,24.7773121 C30.7608865,24.9285678 31.0285172,25 31.2919749,25 C31.7656309,25 32.2308979,24.7676003 32.5041643,24.3423294 C34.1367502,21.8039085 35,18.8644534 35,15.8418098 C35,7.10676074 27.8222405,0 19.0007098,0 C10.1777595,0 3,7.10680333 3,15.8418098 C2.99999996,16.6263715 3.64182316,17.2625741 4.43499256,17.2625741 Z" id="Shape"></path>
                    <path d="M23.675992,8.38320229 C23.2439042,7.91937275 22.5435124,7.91937275 22.1119714,8.38320229 L19.016443,11.7060422 L15.8880233,8.34780442 C15.4559355,7.88406519 14.7560905,7.88406519 14.3240027,8.34780442 C13.8919991,8.81154364 13.8919991,9.56347752 14.3240027,10.0265395 L17.9065078,13.8722204 C17.905204,13.8959243 17.8937635,13.9161517 17.8937635,13.9402619 L17.8937635,15.1274903 L15.1287467,15.1274903 C14.5178597,15.1274903 14.0226391,15.6590905 14.0226391,16.3148541 C14.0226391,16.9706178 14.5178176,17.5020825 15.1287467,17.5020825 L17.8937635,17.5020825 L17.8937635,19.8765845 L15.1287467,19.8765845 C14.5178597,19.8765845 14.0226391,20.408275 14.0226391,21.0638128 C14.0226391,21.7194862 14.5178176,22.2511315 15.1287467,22.2511315 L17.8937635,22.2511315 L17.8937635,25.8128619 C17.8937635,26.4686255 18.3889841,27 18.9998711,27 C19.61059,27 20.1057685,26.4686255 20.1057685,25.8128619 L20.1057685,22.2511315 L22.8707853,22.2511315 C23.4815882,22.2511315 23.9768509,21.719441 23.9768509,21.0638128 C23.9768509,20.4082298 23.4815461,19.8765845 22.8707853,19.8765845 L20.1057685,19.8765845 L20.1057685,17.5020825 L22.8707853,17.5020825 C23.4815882,17.5020825 23.9768509,16.9706178 23.9768509,16.3148541 C23.9768509,15.6590905 23.4815461,15.1274903 22.8707853,15.1274903 L20.1057685,15.1274903 L20.1057685,13.9402619 C20.1057685,13.926762 20.0989968,13.9156099 20.0985762,13.9022002 L23.6760341,10.0619373 C24.1079957,9.59828848 24.1079957,8.84694151 23.675992,8.38320229 Z" id="Shape"></path>
                    <path d="M36.8518045,29.2393656 C32.8723126,28.4148859 28.3860979,25.8861712 28.3776949,25.8861712 C26.4167347,24.5630373 24.8754939,23.9198666 23.6655039,23.9198666 C22.6464131,23.9198666 21.7971922,24.3873385 21.3381726,25.2026419 C20.7444032,26.2523554 20.9367243,27.654858 21.4308211,28.497734 C21.6582194,28.8823578 22.101769,29.5432289 22.5734147,30.2281498 C12.7629684,29.6069414 11.0603037,27.3424273 9.11477053,24.7549579 C8.50695301,23.9481785 7.87952848,23.1144789 7.01763851,22.2722988 C5.42865139,20.7218003 4.13583797,20 2.94834223,20 C2.02892397,20 1.23585247,20.4412911 0.71365942,21.2424167 C-0.362959713,22.8970733 -0.00361266866,25.8833443 0.386588527,26.7928031 C4.81243085,37.1081065 15.4945922,38.9107589 15.9465446,38.9822996 C16.020922,38.9943463 16.0953425,39 16.1697199,39 L36.5626117,39 C37.3571053,39 38,38.3504798 38,37.549354 L38,30.6602645 C38.0000431,29.9717774 37.5199512,29.3774892 36.8518045,29.2393656 Z M35.1252666,36.0987516 L16.2974887,36.0987516 C15.2798199,35.9004381 6.60214206,33.9794499 3.02974361,25.6524135 C2.83182049,25.1119657 2.79812225,23.4700951 3.06201976,22.924646 C3.29644213,22.9954909 3.90563857,23.2717381 5.01875695,24.3575915 C5.72340297,25.0453828 6.25822204,25.7565281 6.82389527,26.5094671 C9.29019944,29.7868588 11.6175308,32.8829415 25.4130278,33.2569538 C26.0250253,33.2916587 26.4686179,32.9707909 26.7240693,32.4834442 C26.9795207,31.9947057 26.9374195,31.4018527 26.6159937,30.954908 C26.0095982,30.1127279 24.3420107,27.7631912 23.9096652,27.0272567 C23.887214,26.9833321 23.8689429,26.9132265 23.8577389,26.8402506 C24.2465611,26.9061376 25.1421062,27.1929964 26.8714882,28.3553484 C27.0539843,28.459463 31.0404571,30.7168883 35.1252235,31.8076996 L35.1252666,36.0987516 Z" id="Shape"></path>
                </g>
            </g>
        </g>
    </g>
</svg>