<?xml version="1.0" encoding="UTF-8"?>
<svg width="46px" height="46px" viewBox="0 0 46 46" version="1.1" xmlns="http://www.w3.org/2000/svg" xmlns:xlink="http://www.w3.org/1999/xlink">
    <!-- Generator: Sketch 49.2 (51160) - http://www.bohemiancoding.com/sketch -->
    <title>36</title>
    <desc>Created with Sketch.</desc>
    <defs></defs>
    <g id="Page-1" stroke="none" stroke-width="1" fill="none" fill-rule="evenodd">
        <g id="猩派客官网首页" transform="translate(-1541.000000, -4830.000000)" fill="#FF983E" fill-rule="nonzero">
            <g id="统计" transform="translate(1541.000000, 4830.000000)">
                <g id="Group-35" transform="translate(3.000000, 4.000000)">
                    <path d="M37.8365089,39 L2.16349109,39 C0.968653967,39 0,38.0288206 0,36.8308684 L0,2.16420172 C0,0.9662495 0.968653967,0 2.16349109,0 C3.35832822,0 4.32698218,0.971179375 4.32698218,2.16420172 L4.32698218,29.6086462 L4.32698218,34.6617368 L37.8365089,34.6617368 C39.031346,34.6617368 40,35.6329162 40,36.8308684 C39.9950829,38.0288206 39.026429,39 37.8365089,39 M34.0454825,32.497535 L31.9459127,32.497535 C30.7510756,32.497535 29.7824216,31.5263557 29.7824216,30.3333333 L29.7824216,12.8816837 C29.7824216,11.6837315 30.7510756,10.7125521 31.9459127,10.7125521 L34.0454825,10.7125521 C35.2403196,10.7125521 36.2089735,11.6837315 36.2089735,12.8816837 L36.2089735,30.3333333 C36.2040565,31.5312855 35.2403196,32.497535 34.0454825,32.497535 M23.0067609,32.497535 L20.9071911,32.497535 C19.712354,32.497535 18.7437,31.5263557 18.7437,30.3333333 L18.7437,5.35874098 C18.7437,4.16078876 19.712354,3.18960938 20.9071911,3.18960938 L23.0067609,3.18960938 C24.201598,3.18960938 25.170252,4.16078876 25.170252,5.35874098 L25.170252,30.3333333 C25.1653349,31.5312855 24.201598,32.497535 23.0067609,32.497535 M12.1893055,32.497535 L10.0897357,32.497535 C8.8948986,32.497535 7.92624463,31.5263557 7.92624463,30.3333333 L7.92624463,19.1425863 C7.92624463,17.944634 8.8948986,16.9734547 10.0897357,16.9734547 L12.1893055,16.9734547 C13.3841426,16.9734547 14.3527966,17.944634 14.3527966,19.1425863 L14.3527966,30.3333333 C14.3478795,31.5312855 13.3792255,32.497535 12.1893055,32.497535" id="Shape"></path>
                </g>
            </g>
        </g>
    </g>
</svg>