<?xml version="1.0" encoding="UTF-8"?>
<svg width="44px" height="72px" viewBox="0 0 44 72" version="1.1" xmlns="http://www.w3.org/2000/svg" xmlns:xlink="http://www.w3.org/1999/xlink">
    <!-- Generator: Sketch 49.2 (51160) - http://www.bohemiancoding.com/sketch -->
    <title>4</title>
    <desc>Created with Sketch.</desc>
    <defs></defs>
    <g id="Page-1" stroke="none" stroke-width="1" fill="none" fill-rule="evenodd">
        <g id="猩派客官网首页" transform="translate(-938.000000, -884.000000)" fill="#FFFFFF" fill-rule="nonzero">
            <g id="鼠标-线性" transform="translate(938.000000, 884.000000)">
                <g id="Group-6">
                    <path d="M22,0 C9.8470158,0 0,9.67223982 0,21.6028677 L2.31785156e-15,50.3972142 C2.31785156e-15,62.3279241 9.84985316,72 22,72 C34.1530676,72 44,62.3279241 44,50.3972142 L43.9999999,21.6028677 C43.9999999,9.67223974 34.1501468,0 22,0 Z M39.6000333,50.4086032 C39.6000333,59.9457314 31.7224207,67.6801967 21.9999999,67.6801967 C12.2790814,67.6801967 4.40005004,59.9428637 4.40005004,50.4086032 L4.40005004,21.5916426 C4.40005004,12.0515647 12.2776627,4.32004914 21.9999999,4.32004914 C31.721002,4.32004914 39.6000333,12.0573002 39.6000333,21.5916426 L39.6000333,50.4086032 Z" id="Shape"></path>
                </g>
            </g>
        </g>
    </g>
</svg>