<?xml version="1.0" encoding="UTF-8"?>
<svg width="89px" height="89px" viewBox="0 0 89 89" version="1.1" xmlns="http://www.w3.org/2000/svg" xmlns:xlink="http://www.w3.org/1999/xlink">
    <!-- Generator: Sketch 49.2 (51160) - http://www.bohemiancoding.com/sketch -->
    <title>46</title>
    <desc>Created with Sketch.</desc>
    <defs>
        <polygon id="path-1" points="0 0 70 0 70 89 0 89"></polygon>
    </defs>
    <g id="Page-1" stroke="none" stroke-width="1" fill="none" fill-rule="evenodd">
        <g id="猩派客官网首页" transform="translate(-325.000000, -7043.000000)">
            <g id="Page-1" transform="translate(325.000000, 7043.000000)">
                <g id="Group-71" transform="translate(10.000000, 0.000000)">
                    <mask id="mask-2" fill="white">
                        <use xlink:href="#path-1"></use>
                    </mask>
                    <g id="Clip-2"></g>
                    <path d="M65.483987,80.82779 C65.483987,83.2977453 63.4517304,85.3184406 60.9679739,85.3184406 C58.4838858,85.3184406 56.4519609,83.2977453 56.4519609,80.82779 L56.4519609,65.5607544 L47.4189493,56.5794514 L47.4189493,22.4522723 C47.4189493,12.5731076 55.5486293,4.49032617 65.483987,4.49032617 L65.483987,80.82779 Z M65.483987,0 C53.0645412,0 42.9032678,10.1034767 42.9032678,22.4522723 L42.9032678,58.3758439 L51.9356163,67.356817 L51.9356163,80.82779 C51.9356163,85.7670471 56.0001293,89.8090909 60.9679739,89.8090909 C65.9358185,89.8090909 70,85.7670471 70,80.82779 L70,4.49032617 C70,2.02036544 67.9677435,0 65.483987,0 Z M29.3548971,0 C27.999734,0 27.0970564,0.898200864 27.0970564,2.24499813 L27.0970564,34.3518117 C27.0970564,35.4743062 26.6452248,36.5971398 25.7418933,37.4950015 L21.6773802,41.5367222 L20.3228803,43.1081521 L20.3228803,80.82779 C20.3228803,83.2977453 18.2899606,85.3184406 15.8062041,85.3184406 C13.3221252,85.3184406 11.2901911,83.2977453 11.2901911,80.82779 L11.2901911,43.1081521 L9.93569109,41.7613548 L5.87117804,37.7196342 C4.96784372,36.8217633 4.51601215,35.6986182 4.51601215,34.5764444 L4.51601215,2.24499813 C4.51601215,0.898200864 3.61267784,0 2.25784169,0 C0.903333987,0 0,0.898200864 0,2.24499813 L0,34.3518117 C0,36.8217633 0.903333987,39.0670913 2.70967325,40.6382005 L6.77418262,44.9042148 L6.77418262,80.82779 C6.77418262,85.7670471 10.8390226,89.8090909 15.8062041,89.8090909 C20.7740487,89.8090909 24.8388933,85.7670471 24.8388933,80.82779 L24.8388933,44.9042148 L28.9030656,40.8628332 C30.7094063,39.0670913 31.6130695,36.8217633 31.6130695,34.5764444 L31.6130695,2.24499813 C31.6130695,0.898200864 30.7094063,0 29.3548971,0 Z M11.2901911,22.4522723 C12.6453634,22.4522723 13.548041,21.5540806 13.548041,20.2072742 L13.548041,2.24499813 C13.548041,0.898200864 12.6453634,0 11.2901911,0 C9.93569109,0 9.03235308,0.898200864 9.03235308,2.24499813 L9.03235308,20.2072742 C9.03235308,21.5540806 9.93569109,22.4522723 11.2901911,22.4522723 Z M20.3228803,22.4522723 C21.6773802,22.4522723 22.580721,21.5540806 22.580721,20.2072742 L22.580721,2.24499813 C22.580721,0.898200864 21.6773802,0 20.3228803,0 C18.9677079,0 18.064708,0.898200864 18.064708,2.24499813 L18.064708,20.2072742 C18.064708,21.5540806 18.9677079,22.4522723 20.3228803,22.4522723 Z" id="Fill-1" fill-opacity="0.8952" fill="#FDFDFD" mask="url(#mask-2)"></path>
                </g>
            </g>
        </g>
    </g>
</svg>