<?xml version="1.0" encoding="UTF-8"?>
<svg width="89px" height="89px" viewBox="0 0 89 89" version="1.1" xmlns="http://www.w3.org/2000/svg" xmlns:xlink="http://www.w3.org/1999/xlink">
    <!-- Generator: Sketch 49.2 (51160) - http://www.bohemiancoding.com/sketch -->
    <title>47</title>
    <desc>Created with Sketch.</desc>
    <defs></defs>
    <g id="Page-1" stroke="none" stroke-width="1" fill="none" fill-rule="evenodd" fill-opacity="0.9">
        <g id="猩派客官网首页" transform="translate(-557.000000, -7043.000000)" fill="#FDFDFD">
            <g id="Page-1" transform="translate(557.000000, 7043.000000)">
                <g id="Group-72" transform="translate(4.000000, 9.000000)">
                    <path d="M54.3658533,43.2004881 C51.3524299,43.2004881 48.9096437,45.6182729 48.9096437,48.6004467 C48.9096437,51.5829018 51.3524299,54.0004052 54.3658533,54.0004052 C57.3790037,54.0004052 59.8226174,51.5829018 59.8226174,48.6004467 C59.8226174,45.6182729 57.3790037,43.2004881 54.3658533,43.2004881 Z M75.3525291,20.340422 C74.6354422,22.9372964 72.9196739,25.1039585 70.5212877,26.4433406 C68.1220822,27.7824412 65.3185429,28.1348854 62.6341512,27.4341102 C59.9461761,26.7325157 57.7014147,25.0661709 56.3110947,22.7384854 L52.4128906,16.213291 L50.4662754,21.5513627 C48.9995527,25.5736054 45.0613679,28.2742674 40.665892,28.2742674 C36.1747141,28.2742674 32.2083914,25.4933709 30.796281,21.3547447 L28.9100714,15.8274454 L24.7840576,22.7384854 C21.9112907,27.5513212 15.5402425,29.2113681 10.5744108,26.4438868 C5.61243896,23.6731199 3.91459621,17.5061213 6.78791178,12.6938317 L11.2561929,5.21182342 L69.8392243,5.21182342 L74.3075112,12.6938317 C75.7003139,15.0248027 76.0712712,17.7399806 75.3525291,20.340422 Z M68.9351443,62.7158149 C68.9351443,64.9618954 67.0445153,66.7881713 64.7206036,66.7881713 L16.3811694,66.7881713 C14.0589046,66.7881713 12.1685487,64.9618954 12.1685487,62.7158149 L12.1685487,32.596924 C17.9742066,33.9056274 24.1855638,31.9197019 28.0230811,27.3538757 C30.9438397,31.1449902 35.5831224,33.485826 40.665892,33.485826 C45.6551692,33.485826 50.2558368,31.1981212 53.1914837,27.4949047 C55.2586285,29.9025516 58.0378947,31.6321654 61.2300354,32.4660247 C63.7950064,33.1342012 66.4275415,33.171724 68.9351443,32.6021212 L68.9351443,62.7158149 Z M78.9771332,10.0884662 L72.9511139,0 L8.14486184,0 L2.11884256,10.0884662 C-2.02068404,17.0197654 0.10079264,25.8096578 6.77825799,30.2821074 L6.77825799,62.7158149 C6.77825799,67.8359037 11.0857515,71.9999979 16.3817156,71.9999979 L64.7206036,71.9999979 C70.0162946,71.9999979 74.3254367,67.8353558 74.3254367,62.7158149 L74.3254367,30.2766288 C77.3918174,28.2244302 79.5861042,25.2162371 80.5605125,21.6855475 C81.6502118,17.7413544 81.0881235,13.6232606 78.9771332,10.0884662 Z M39.8142148,43.2004881 C36.8007914,43.2004881 34.3580052,45.6182729 34.3580052,48.6004467 C34.3580052,51.5829018 36.8007914,54.0004052 39.8142148,54.0004052 C42.8281844,54.0004052 45.271252,51.5829018 45.271252,48.6004467 C45.271252,45.6182729 42.8281844,43.2004881 39.8142148,43.2004881 Z M25.2631224,43.2004881 C22.2494259,43.2004881 19.8063666,45.6182729 19.8063666,48.6004467 C19.8063666,51.5829018 22.2494259,54.0004052 25.2631224,54.0004052 C28.2765459,54.0004052 30.7198866,51.5829018 30.7198866,48.6004467 C30.7198866,45.6182729 28.2765459,43.2004881 25.2631224,43.2004881 Z" id="Fill-1"></path>
                </g>
            </g>
        </g>
    </g>
</svg>