<?xml version="1.0" encoding="UTF-8"?>
<svg width="89px" height="89px" viewBox="0 0 89 89" version="1.1" xmlns="http://www.w3.org/2000/svg" xmlns:xlink="http://www.w3.org/1999/xlink">
    <!-- Generator: Sketch 49.2 (51160) - http://www.bohemiancoding.com/sketch -->
    <title>48</title>
    <desc>Created with Sketch.</desc>
    <defs>
        <polygon id="path-1" points="0 0 81 0 81 74 0 74"></polygon>
    </defs>
    <g id="Page-1" stroke="none" stroke-width="1" fill="none" fill-rule="evenodd">
        <g id="猩派客官网首页" transform="translate(-797.000000, -7045.000000)">
            <g id="Page-1" transform="translate(797.000000, 7045.000000)">
                <g id="Group-73" transform="translate(4.000000, 8.000000)">
                    <mask id="mask-2" fill="white">
                        <use xlink:href="#path-1"></use>
                    </mask>
                    <g id="Clip-2"></g>
                    <path d="M9.19133022,11.5693562 C9.19133022,8.02987652 12.0561906,5.14172441 15.5860694,5.14172441 L43.330578,5.14172441 C46.7925012,5.14172441 49.6060869,7.96996203 49.6060869,11.4492126 L49.6060869,39.4381405 C49.6060869,40.8606417 50.7486341,42.0086965 52.1642273,42.0086965 C53.5795167,42.0086965 54.7220554,40.8606417 54.7220554,39.4381405 L54.7220554,25.5205174 L65.2434325,25.5205174 C68.8758523,25.5205174 71.8343014,28.4943479 71.8343014,32.1449723 L71.8343014,68.8067338 L54.7220554,68.8067338 L54.7220554,55.7810328 C54.7220554,54.3579192 53.5795167,53.2095497 52.1642273,53.2095497 C50.7486341,53.2095497 49.6060869,54.3579192 49.6060869,55.7810328 L49.6060869,68.8067338 L9.19133022,68.8067338 L9.19133022,11.5693562 Z M78.4421718,68.8067338 L76.9502784,68.8067338 L76.9502784,32.1449723 C76.9502784,25.6580469 71.6980864,20.3787845 65.2434325,20.3787845 L54.7220554,20.3787845 L54.7220554,11.4492126 C54.7220554,5.13334625 49.6147353,0 43.330578,0 L15.5860694,0 C9.2426049,0 4.07535915,5.18488257 4.07535915,11.5693562 L4.07535915,68.8067338 L2.55752375,68.8067338 C1.14254611,68.8067338 0,69.9554121 0,71.3775994 C0,72.8000973 1.14254611,73.9484647 2.55752375,73.9484647 L6.10500741,73.9484647 C6.27550904,73.9829251 6.45435113,74 6.6335012,74 C6.81234245,74 6.99180133,73.9829251 7.16199415,73.9484647 L78.4421718,73.9484647 C79.857765,73.9484647 81,72.8000973 81,71.3775994 C81,69.963484 79.857765,68.8067338 78.4421718,68.8067338 Z" id="Fill-1" fill-opacity="0.9" fill="#FDFDFD" mask="url(#mask-2)"></path>
                    <path d="M32.4757381,20 L25.5248698,20 C24.1273794,20 23,21.1166479 23,22.500153 C23,23.8833521 24.1273794,25 25.5248698,25 L32.4757381,25 C33.8726206,25 35,23.8833521 35,22.500153 C35,21.1166479 33.8726206,20 32.4757381,20" id="Fill-3" fill-opacity="0.9" fill="#FDFDFD" mask="url(#mask-2)"></path>
                    <path d="M32.4757381,34 L25.5248698,34 C24.1273794,34 23,35.1167828 23,36.5001572 C23,37.8835233 24.1273794,39 25.5248698,39 L32.4757381,39 C33.8726206,39 35,37.8835233 35,36.5001572 C35,35.1167828 33.8726206,34 32.4757381,34" id="Fill-4" fill-opacity="0.9" fill="#FDFDFD" mask="url(#mask-2)"></path>
                    <path d="M32.4757381,49 L25.5248698,49 C24.1273794,49 23,50.1164084 23,51.4996981 C23,52.8835916 24.1273794,54 25.5248698,54 L32.4757381,54 C33.8726206,54 35,52.8835916 35,51.4996981 C35,50.1251677 33.8726206,49 32.4757381,49" id="Fill-5" fill-opacity="0.9" fill="#FDFDFD" mask="url(#mask-2)"></path>
                </g>
            </g>
        </g>
    </g>
</svg>