<?xml version="1.0" encoding="UTF-8"?>
<svg width="89px" height="89px" viewBox="0 0 89 89" version="1.1" xmlns="http://www.w3.org/2000/svg" xmlns:xlink="http://www.w3.org/1999/xlink">
    <!-- Generator: Sketch 49.2 (51160) - http://www.bohemiancoding.com/sketch -->
    <title>49</title>
    <desc>Created with Sketch.</desc>
    <defs>
        <polygon id="path-1" points="0 0 87 0 87 87 0 87"></polygon>
    </defs>
    <g id="Page-1" stroke="none" stroke-width="1" fill="none" fill-rule="evenodd">
        <g id="猩派客官网首页" transform="translate(-1036.000000, -7045.000000)">
            <g id="Page-1" transform="translate(1036.000000, 7045.000000)">
                <g id="Group-74" transform="translate(1.000000, 1.000000)">
                    <mask id="mask-2" fill="white">
                        <use xlink:href="#path-1"></use>
                    </mask>
                    <g id="Clip-2"></g>
                    <path d="M18.2047547,67.534226 C13.1104218,64.4446855 7.64538176,60.9664076 5.34111522,59.4578724 C6.39727782,58.6391845 6.92358998,58.4314518 7.04319231,58.3915215 L7.90548432,58.3892702 C8.7002582,58.3892702 9.97408717,58.4082667 11.4205624,58.4266264 L11.821488,58.4333891 C14.6986798,58.4749338 18.109907,58.5248557 19.8955828,58.4868537 C21.0015748,58.4633368 22.0339488,58.0147038 22.8030003,57.218887 L33.3614153,46.3067729 C34.3471682,45.2913125 34.7468023,43.8578126 34.433011,42.4761629 C34.1179281,41.0932306 33.1376374,39.9772807 31.8091591,39.4880716 C24.9330071,36.9560128 11.3520747,31.8706475 7.38495811,30.368875 C8.56779603,29.2632306 11.3777979,26.6535624 12.8374576,25.442926 C13.5650362,24.8409936 14.0061522,24.8409936 14.2173824,24.8409936 C14.2942203,24.8409936 14.3639906,24.8425991 14.4733054,24.8490479 C15.0661688,24.8744841 23.642145,25.4345579 31.2098649,25.9289242 C38.3191047,26.3939795 45.9733132,26.8931712 50.4683519,27.1798138 C51.6730573,27.2609659 52.8285584,26.814916 53.676708,25.9653117 L71.3392147,8.26025544 C74.3774906,5.22191943 77.4103044,4.76780633 78.946802,4.76780633 C80.6408411,4.76780633 81.5661514,5.27988654 81.6664613,5.36845613 C82.408507,6.12756253 83.2441179,11.1011642 78.7053461,15.6338732 L61.0222645,33.3508494 C60.1840795,34.1917537 59.741367,35.3531051 59.8101686,36.5395878 C60.0963083,41.5544203 60.6351601,50.5132319 61.100071,58.2317733 L61.1627647,59.2862133 C61.4993823,64.8807529 61.9205601,71.8440625 61.941458,72.3748253 C61.9610733,72.8936682 61.9771458,73.3026848 61.326728,74.0878733 C60.1390728,75.5381184 57.6187507,78.266634 56.4452397,79.5291188 C54.997473,75.6337736 49.970973,62.0353326 47.5236321,55.2858726 C47.0413661,53.9544676 45.9289433,52.9692778 44.5525523,52.6488218 C43.1954627,52.3319176 41.7306548,52.7348173 40.7223986,53.7055131 L29.7592101,64.2723807 C28.95961,65.0456493 28.506601,66.0814067 28.4821693,67.1902621 C28.4461586,68.9203871 28.4529123,72.0096047 28.459657,74.8186374 C28.4644823,76.9078572 28.4693077,78.8653483 28.4509839,79.6315348 C28.4484098,79.7642242 28.4509839,79.9149495 28.474133,80.0573012 C28.474133,80.0618099 28.3484228,80.5555314 27.5234223,81.6218805 L25.7756856,78.8279894 C23.5582305,75.2843385 20.5206003,70.4331109 19.6004382,68.9271498 C19.253847,68.358708 18.7709352,67.8791586 18.2047547,67.534226 M15.6169136,71.5384324 C16.6277439,73.1896386 19.577289,77.901738 21.7410553,81.3584328 C23.0492815,83.4466858 24.0697536,85.0769653 24.198038,85.2911369 C24.8204813,86.3388059 25.8695736,86.9629628 27.0954908,87 L27.1816565,87 C28.3345925,87 29.4814206,86.4547484 30.6308228,85.3349374 C33.3141484,82.1922525 33.2466294,80.6325048 33.2141614,79.8830653 L33.2096589,79.7252545 C33.2289514,78.9191331 33.224126,76.9378049 33.2196236,74.7258793 C33.212556,72.1487329 33.2058023,69.2408341 33.2357051,67.5390603 L43.362323,57.7773463 C46.2639554,65.7532194 52.0019614,81.2634244 52.3967702,82.2972454 C53.2330269,84.4209244 54.8900865,84.7929068 55.5617251,84.8550642 C56.9085362,84.9774481 58.3154668,84.4254331 59.4561869,83.2840442 C59.6146881,83.1143171 63.3709009,79.1081832 65.0048114,77.1142983 C66.8072056,74.9429487 66.7290761,73.0105801 66.6959624,72.1886722 C66.6917828,71.9258694 66.4104595,67.2456551 65.9140492,58.9947454 C65.4436762,51.1934284 64.8810295,41.8268828 64.576566,36.5337937 L82.0709208,19.0068364 C86.3611601,14.7217903 87.0009676,10.2589773 86.9999989,7.9781243 C86.9999989,5.46153716 86.2627786,3.2244891 85.0313902,1.99743033 C83.8083701,0.76586011 81.4780574,0 78.946802,0 C76.6746896,0 72.2288372,0.634140315 67.9768599,4.88665551 L50.4995373,22.4036213 C45.976847,22.1160191 38.4862968,21.62681 31.5185169,21.1714143 C22.6554324,20.5920212 15.000901,20.0925067 14.656884,20.0844525 C14.5356762,20.0776898 14.3848885,20.0728554 14.2180282,20.0728554 C12.6233304,20.0728554 11.1781378,20.6280948 9.80239258,21.7714183 C7.81964061,23.4149022 3.81200993,27.1875361 3.62842775,27.3608096 C2.50185449,28.4944645 1.93470893,29.914439 2.06942232,31.2616296 C2.15815945,32.1044623 2.61148951,33.6336173 4.63347033,34.4233172 C5.61375563,34.808503 21.1041359,40.6169011 29.3087663,43.6475058 L19.556705,53.7238728 C19.1416352,53.729021 18.6664457,53.7563946 18.1115214,53.729021 C16.3139526,53.729021 13.9621052,53.6958534 11.889321,53.6652509 C9.74517001,53.6356261 7.91480765,53.6050326 7.25571135,53.6285405 L7.27918157,54.2250017 L7.10363656,53.6285405 L6.96281434,53.6262893 C5.98349321,53.6262893 4.50036419,53.9267711 1.68168026,56.2919962 L1.43058083,56.5264567 C0.294040442,57.6726772 0.0268650638,58.8221177 0.00210872615,59.5863723 C-0.0361510423,60.7387097 0.447401039,61.7770413 1.35599059,62.5084422 C1.98840127,63.0224598 9.52976025,67.8443765 15.6169136,71.5384324" id="Fill-1" fill-opacity="0.9" fill="#FBFBFB" mask="url(#mask-2)"></path>
                </g>
            </g>
        </g>
    </g>
</svg>