<?xml version="1.0" encoding="UTF-8"?>
<svg width="89px" height="89px" viewBox="0 0 89 89" version="1.1" xmlns="http://www.w3.org/2000/svg" xmlns:xlink="http://www.w3.org/1999/xlink">
    <!-- Generator: Sketch 49.2 (51160) - http://www.bohemiancoding.com/sketch -->
    <title>50</title>
    <desc>Created with Sketch.</desc>
    <defs></defs>
    <g id="Page-1" stroke="none" stroke-width="1" fill="none" fill-rule="evenodd">
        <g id="猩派客官网首页" transform="translate(-1275.000000, -7048.000000)" fill="#FFFFFF" fill-rule="nonzero">
            <g id="娱乐" transform="translate(1275.000000, 7048.000000)">
                <g id="Group-75" transform="translate(9.000000, 3.000000)">
                    <path d="M71.9999087,18.9699596 C71.6667381,20.3057847 71.472495,21.6935717 70.9792199,22.9643528 C68.4284108,29.5330587 63.5485107,33.2323299 56.674242,34.3897643 C56.093521,34.4871015 55.4866941,34.603833 54.9126365,34.5388805 C53.4472334,34.3767738 52.2988444,34.9280464 51.1178686,35.7449836 C41.9482825,42.0997124 32.820685,48.5095136 24.247885,55.671574 C22.5010668,57.1305343 20.8172316,58.6642356 19.0412039,60.2204416 C15.8770254,57.1693579 12.7137298,54.1173546 9.55131753,51.0644322 C10.9245282,49.6247747 12.2719981,48.2663536 13.5579454,46.8526771 C21.6227743,38.0048717 28.8093105,28.4566776 35.8438662,18.7883672 C36.038018,18.5193177 36.1463669,18.1172528 36.1350482,17.7832508 C35.8324562,8.87378634 42.7197779,1.26776218 51.6678284,0.152409568 C51.8571423,0.129630466 52.0399754,0.0517790007 52.2241777,0 L55.9429097,0 C56.154861,0.0551638471 56.3651692,0.136217194 56.5803153,0.162015213 C63.5403868,0.982428779 69.5427525,6.11797253 71.406226,12.868271 C71.6505816,13.7598578 71.8042052,14.6773341 72,15.5819114 L72,18.9699596 L71.9999087,18.9699596 Z M44.0754629,9.67453121 C50.0217828,15.4046726 55.9671597,21.1357969 61.9115931,26.8679039 C65.5751922,24.2935911 67.4628549,19.3849235 66.5474115,14.936595 C65.557484,10.1252647 61.6480689,6.22820874 56.6743333,5.30734757 C51.7213182,4.38666937 47.5318572,5.86831724 44.0754629,9.67453121 Z M29.7119747,37.0387268 C29.765282,38.6921785 30.6952389,39.7816416 32.0977503,40.4364721 C33.5308405,41.1010913 34.9266885,40.8417389 36.0881305,39.7619729 C37.7380097,38.2253441 39.3457178,36.6462676 40.959998,35.0738692 C42.5175022,33.5565432 42.6275855,31.6111714 41.2575696,30.1132397 C39.7032601,28.4145042 37.445276,28.2102242 35.8519901,29.6918721 C34.1181336,31.2999485 32.4324727,32.9632803 30.735767,34.6103282 C30.0596588,35.2683607 29.699013,36.0758752 29.7119747,37.0387268 Z M0,69.6161346 C0.132629297,69.0423574 0.2491021,68.4651954 0.401173957,67.8945286 C0.930048112,65.90369 1.7920929,64.0493431 3.16858967,62.5320172 C4.63727885,60.9109502 6.27739118,59.4454032 7.88856786,57.8664182 C9.53506976,59.4551918 11.1914299,61.0503693 12.6957181,62.5029258 C11.6912771,63.6084898 10.7514621,64.6913662 9.76162579,65.7222806 C8.50790012,67.0288313 7.46630831,68.4424163 7.24961048,70.3036244 C6.88239254,73.4454021 8.97050527,75.889993 12.1262245,76.0551187 C13.9200517,76.1524559 15.5781461,75.6757414 17.1778216,74.9236652 C19.2367248,73.9509335 21.0517289,72.6216952 22.6869121,71.0524987 C29.0535748,64.9442233 35.4070932,58.8196641 41.7574168,52.6918114 C44.2128387,50.325072 47.0822138,48.833727 50.4999056,48.525706 C58.2331155,47.8319955 65.5280919,54.1152766 64.9022788,61.9287827 C64.6662297,64.8858576 63.4626166,67.4696846 61.4181355,69.5480718 C57.8013629,73.2215449 54.0486749,76.7620026 50.2767269,80.4321824 C48.5752307,78.7931409 46.8730785,77.1547837 45.1702707,75.5171111 C45.6602598,75.0468919 46.0841624,74.6384232 46.5064219,74.2331565 C49.4291955,71.4155006 52.3729635,68.6176049 55.2605032,65.7645454 C55.9913791,65.0414691 56.6596373,64.2017527 57.1560159,63.3036706 C58.1475865,61.5075065 57.93883,59.7081405 56.7613228,58.0449917 C54.8544914,55.3571492 51.2230228,54.617972 48.4311441,56.3621741 C47.7453603,56.7933304 47.1210989,57.341401 46.5338058,57.9020963 C40.4567734,63.744707 34.3947109,69.6030526 28.3226076,75.4489567 C25.3284533,78.3311076 22.0255,80.749992 18.0352111,82.0596531 C16.7880576,82.4714151 15.4779211,82.691979 14.1969941,83 L10.986142,83 C10.774282,82.9417258 10.5655255,82.8700951 10.3504707,82.8280132 C5.57718516,81.9365179 2.21763852,79.3363155 0.571136622,74.6836155 C0.320391488,73.9769145 0.187762191,73.2281316 9.12796268e-05,72.4951751 L5.03298665e-13,69.6161346 Z" id="Shape"></path>
                </g>
            </g>
        </g>
    </g>
</svg>