<?xml version="1.0" encoding="UTF-8"?>
<svg width="89px" height="89px" viewBox="0 0 89 89" version="1.1" xmlns="http://www.w3.org/2000/svg" xmlns:xlink="http://www.w3.org/1999/xlink">
    <!-- Generator: Sketch 49.2 (51160) - http://www.bohemiancoding.com/sketch -->
    <title>51</title>
    <desc>Created with Sketch.</desc>
    <defs></defs>
    <g id="Page-1" stroke="none" stroke-width="1" fill="none" fill-rule="evenodd">
        <g id="猩派客官网首页" transform="translate(-1512.000000, -7049.000000)" fill="#FFFFFF" fill-rule="nonzero">
            <g id="更多-2" transform="translate(1512.000000, 7049.000000)">
                <g id="Group-76" transform="translate(15.000000, 37.000000)">
                    <path d="M0,8 C5.07265313e-16,12.418278 3.35786438,16 7.5,16 C11.6421356,16 15,12.418278 15,8 C15,3.581722 11.6421356,0 7.5,0 C3.35786438,0 5.07265313e-16,3.581722 0,8 Z" id="Shape"></path>
                    <path d="M23,8 C23,12.418278 26.581722,16 31,16 C35.418278,16 39,12.418278 39,8 C39,3.581722 35.418278,0 31,0 C26.581722,0 23,3.581722 23,8 Z" id="Shape"></path>
                    <path d="M47,8 C47,12.418278 50.3578644,16 54.5,16 C58.6421356,16 62,12.418278 62,8 C62,3.581722 58.6421356,0 54.5,0 C50.3578644,0 47,3.581722 47,8 Z" id="Shape"></path>
                </g>
            </g>
        </g>
    </g>
</svg>