<?xml version="1.0" encoding="UTF-8"?>
<svg width="167px" height="167px" viewBox="0 0 167 167" version="1.1" xmlns="http://www.w3.org/2000/svg" xmlns:xlink="http://www.w3.org/1999/xlink">
    <!-- Generator: Sketch 49.2 (51160) - http://www.bohemiancoding.com/sketch -->
    <title>54</title>
    <desc>Created with Sketch.</desc>
    <defs>
        <circle id="path-1" cx="83.5" cy="83.5" r="83.5"></circle>
    </defs>
    <g id="Page-1" stroke="none" stroke-width="1" fill="none" fill-rule="evenodd">
        <g id="猩派客官网解决方案" transform="translate(-309.000000, -1594.000000)">
            <g id="Group" transform="translate(309.000000, 1594.000000)">
                <g id="Group-2">
                    <mask id="mask-2" fill="white">
                        <use xlink:href="#path-1"></use>
                    </mask>
                    <use id="Mask" fill="#EDF6FF" xlink:href="#path-1"></use>
                    <g id="Group" mask="url(#mask-2)">
                        <g transform="translate(-10.800995, 41.542289)">
                            <g id="小程序" stroke-width="1" fill="none" transform="translate(54.835821, 0.000000)">
                                <path d="M63.3989705,36.5040837 C61.5209323,39.4963192 58.5955931,41.6816597 55.193557,42.633842 L54.9305263,42.7081768 C54.393934,42.867888 53.8378171,42.9525563 53.2780074,42.9597713 C50.8478327,42.9597713 49.4754987,41.3186886 50.2131282,39.2887779 C50.7506257,37.8078008 52.1687041,36.5555461 53.9012758,35.9723042 C56.577327,35.0002344 58.4528502,32.7701917 58.4528502,30.1741932 C58.4528502,26.6804597 55.0506055,23.8443028 50.8535508,23.8443028 C46.6564961,23.8443028 43.2599695,26.6804597 43.2599694,30.1741932 L43.2599694,49.5870008 C43.2599694,54.2643724 40.5553279,58.3585022 36.5126608,60.6685976 C34.195902,61.9883343 31.5739151,62.6783308 28.9076433,62.669918 C21.0052869,62.669918 14.5667533,56.8031903 14.5667533,49.5870008 C14.5667533,47.2997775 15.218612,45.1383515 16.3622236,43.2628285 C18.1348216,40.3523369 21.0853397,38.1280122 24.6190997,37.1159159 L24.6305358,37.1159159 C25.2194958,36.9272199 25.831328,36.830013 26.4488783,36.8242949 C28.8962072,36.8242949 30.2799773,38.4768137 29.5366297,40.5124424 C29.0334406,41.8904945 27.6782608,43.0855686 26.1057948,43.714555 C25.9184616,43.7763823 25.7334539,43.845045 25.5511432,43.9204051 C23.0409156,44.9553737 21.3197801,47.1053635 21.31978,49.5927189 C21.31978,53.0864525 24.7163066,55.9226094 28.9133614,55.9226094 C33.1046981,55.9226094 36.5069427,53.0864525 36.5069427,49.5927189 L36.5069427,30.1741932 C36.5069427,25.5082577 39.2173023,21.414128 43.2542514,19.0925964 C45.5710101,17.7728597 48.192997,17.0828632 50.8592688,17.091276 C58.7673433,17.091276 65.2058769,22.9580037 65.2058769,30.1741932 C65.2001588,32.409954 64.5768905,34.5999703 63.3989705,36.5040837 M39.880597,2.38061996e-15 C17.8551515,-5.95154989e-16 2.38061996e-15,17.8551515 0,39.880597 C-2.97577495e-15,61.9060426 17.8551515,79.761194 39.880597,79.761194 C61.9060426,79.761194 79.761194,61.9060426 79.761194,39.880597 C79.761194,17.8551515 61.9060426,1.19030998e-15 39.880597,0" id="Shape" fill="#9FE874" fill-rule="nonzero"></path>
                            </g>
                            <path d="M19.1094527,109.625691 C8.44768517,108.837201 0,97.9997322 0,84.7462687 C0,70.9803652 9.1135669,59.8208955 20.3557214,59.8208955 C27.9283333,59.8208955 34.5351526,64.8842211 38.0413973,72.3968532 C41.2927117,69.7027951 45.2139562,68.1293532 49.4353234,68.1293532 C58.6051108,68.1293532 66.3587427,75.5537812 68.9057384,85.7612322 C70.7885994,84.5816243 72.925886,83.9154229 75.1915423,83.9154229 C80.6097578,83.9154229 85.2938194,87.7254672 87.5196782,93.2557996 C89.846996,91.0476094 92.7780262,89.7313433 95.9626866,89.7313433 C99.1286712,89.7313433 102.043992,91.0322169 104.364689,93.2170435 C106.803385,88.6212329 111.059901,85.5771144 115.902985,85.5771144 C118.103423,85.5771144 120.182775,86.2055136 122.025561,87.3223359 C124.2344,78.1542719 131.258528,71.4527363 139.58209,71.4527363 C144.556494,71.4527363 149.066791,73.8462614 152.362523,77.7293507 C153.960369,67.5331712 161.394167,59.8208955 170.323383,59.8208955 C180.418379,59.8208955 188.60199,69.6784271 188.60199,81.8383085 C188.60199,93.9981899 180.418379,103.855721 170.323383,103.855721 C169.188459,103.855721 168.077694,103.73113 167,103.492682 L167,154.537313 L19.1094527,154.537313 L19.1094527,109.625691 Z" id="Combined-Shape" fill="#D4E9FF"></path>
                        </g>
                    </g>
                </g>
            </g>
        </g>
    </g>
</svg>