<?xml version="1.0" encoding="UTF-8"?>
<svg width="167px" height="167px" viewBox="0 0 167 167" version="1.1" xmlns="http://www.w3.org/2000/svg" xmlns:xlink="http://www.w3.org/1999/xlink">
    <!-- Generator: Sketch 49.2 (51160) - http://www.bohemiancoding.com/sketch -->
    <title>55</title>
    <desc>Created with Sketch.</desc>
    <defs></defs>
    <g id="Page-1" stroke="none" stroke-width="1" fill="none" fill-rule="evenodd">
        <g id="猩派客官网解决方案" transform="translate(-554.000000, -1593.000000)">
            <g id="Group-15" transform="translate(554.000000, 1593.000000)">
                <g id="Group-6">
                    <circle id="Oval-Copy-2" fill="#EDF6FF" cx="83.5" cy="83.5" r="83.5"></circle>
                    <g id="电商" transform="translate(39.000000, 46.000000)" fill-rule="nonzero">
                        <path d="M31.8186068,67.0490745 L56.8974774,67.0490745 C56.8974774,69.4199596 56.9040896,71.7842478 56.8775112,74.1552623 C59.459766,74.1883763 62.2079737,73.8638332 64.5777308,75.1420855 C67.5582728,76.5725846 69.3771437,79.7449321 69.5231305,82.9901046 C52.7486522,83.0032985 35.967432,83.0032985 19.1929537,82.9901046 C19.3522945,79.890582 20.9852462,76.8175765 23.7864811,75.3407695 C26.209395,73.8638332 29.130168,74.1750531 31.838573,74.1552623 C31.8053824,71.7842478 31.8186068,69.4132333 31.8186068,67.0489451 L31.8186068,67.0490745 Z M6.11866351,0.396610397 C7.07097076,0.10081195 8.06888684,0.0219837175 9.05393562,0.00888847377 L78.9394013,0.00888847377 C82.3052819,-0.14902476 85.638421,1.80986965 87.1190517,4.87300122 C88.0452422,6.59528255 87.9996334,8.60668631 87.9996334,10.5063954 C87.9670192,25.1977182 88.0061307,39.8890411 87.9801413,54.580364 C88.1823235,59.2013161 84.112054,63.3359467 79.5656946,63.3951321 C55.8812082,63.4279986 32.1968491,63.4147749 8.51249003,63.4016797 C3.92689175,63.3819084 -0.18885916,59.2210873 0.00669824876,54.5671404 C0.0131955959,39.2053924 -0.0127937926,23.8369683 0.0263176891,8.47522034 C0.000200901633,4.81381586 2.66806259,1.41547172 6.11853611,0.396610397 L6.11866351,0.396610397 Z" id="Shape" fill="#F8B341"></path>
                        <path d="M10,10.0134158 C14.2043796,9.99335723 18.4087591,10.0066428 22.6197862,10 C23.3004432,11.700549 23.8210375,13.4611434 24.5885036,15.1217056 C25.5561783,15.6618539 26.8108707,15.2350234 27.8852972,15.3683998 C37.8089155,15.3416985 47.7326642,15.3683998 57.6562826,15.3551142 C53.5119917,23.084172 49.2608186,30.7600875 45.1565433,38.5158466 C37.6221324,38.575892 30.0809437,38.5959506 22.5464025,38.5025611 C21.1716632,30.7667303 19.5099062,23.0843022 18.0684307,15.3551142 L10.0066475,15.3551142 C10.0132951,13.5745915 10.0066475,11.7939385 10,10.0134158 Z M24.5350626,20.7369298 C24.7553441,21.9305443 24.9756257,23.1242891 25.2425704,24.3046181 C32.1564129,24.271274 39.0636079,24.2979753 45.9774505,24.2913325 C46.004171,24.9114546 46.0642596,26.1519592 46.0908498,26.7720813 C47.1787018,24.7581499 48.2131126,22.7241599 49.3742179,20.7502154 C41.0990615,20.6835272 32.8171272,20.7034555 24.5350626,20.7367996 L24.5350626,20.7369298 Z M26.2235401,29.6597323 C26.4838373,30.8334185 26.7441345,32.0137475 26.9910063,33.1942067 C32.189781,33.2074922 37.395073,33.214135 42.5939781,33.1875639 C43.2279718,32.0071047 43.8885558,30.8400613 44.5492701,29.6796606 C38.4429093,29.626258 32.3299009,29.6530895 26.2235401,29.6597323 Z M58.5905892,27.6456706 C63.6959072,30.4999775 68.8078728,33.3742127 73.9732795,36.1284873 C72.5718196,37.2955308 70.8967675,38.0490292 69.3684828,39.0294239 C70.9568561,41.1833744 72.6118352,43.3041112 74,45.5982112 C73.0323253,46.2450346 72.0845933,46.9119165 71.1436392,47.5922143 C69.4886601,45.3381012 67.9336548,43.0106571 66.2318822,40.7966611 C64.7703337,41.8769577 63.2887122,42.9240406 61.793926,43.9577076 C60.7795881,38.5093341 59.5582638,33.1008172 58.5905892,27.6456706 Z M23.5074296,41.5635753 C26.523853,39.3562221 31.2154588,42.2838599 30.5881126,45.9382949 C30.2944473,49.0525816 26.4770594,51.0532275 23.7810219,49.4127239 C20.7712461,47.9589994 20.5843326,43.2241374 23.5072993,41.5635753 L23.5074296,41.5635753 Z M39.9778415,41.4034976 C42.8074818,39.6696045 46.8850365,41.9703473 46.8317258,45.2914715 C47.0785975,48.9259782 42.3136079,51.4334283 39.4907456,49.0792829 C36.7678571,47.2987602 37.1015381,42.8372938 39.9778415,41.4034976 Z" id="Shape" fill="#FFFFFF"></path>
                    </g>
                </g>
            </g>
        </g>
    </g>
</svg>