<?xml version="1.0" encoding="UTF-8"?>
<svg width="167px" height="167px" viewBox="0 0 167 167" version="1.1" xmlns="http://www.w3.org/2000/svg" xmlns:xlink="http://www.w3.org/1999/xlink">
    <!-- Generator: Sketch 49.2 (51160) - http://www.bohemiancoding.com/sketch -->
    <title>58</title>
    <desc>Created with Sketch.</desc>
    <defs></defs>
    <g id="Page-1" stroke="none" stroke-width="1" fill="none" fill-rule="evenodd">
        <g id="猩派客官网解决方案" transform="translate(-1235.000000, -1593.000000)">
            <g id="Group-17" transform="translate(1235.000000, 1593.000000)">
                <g id="Group-4">
                    <g id="Group-10">
                        <g id="Group-11">
                            <circle id="Oval-Copy-5" fill="#EDF6FF" cx="83.5" cy="83.5" r="83.5"></circle>
                            <g id="Page-1" transform="translate(30.000000, 41.000000)">
                                <polygon id="Fill-1" fill="#B7B8B7" points="12.9996 0.0002 12.9996 70.0002 18.9996 63.0002 18.9996 4.0002"></polygon>
                                <polygon id="Fill-2" fill="#F4F4F6" points="18.9999 63.0002 12.9999 70.0002 104.0009 70.0002 96.9999 63.0002"></polygon>
                                <polygon id="Fill-3" fill="#D7D8DA" points="0 82 13 82 13 0 0 0"></polygon>
                                <polygon id="Fill-4" fill="#D7D8DA" points="0 83 104 83 104 70 0 70"></polygon>
                                <g id="Group-27" transform="translate(7.000000, 2.000000)">
                                    <polyline id="Stroke-5" stroke="#D7D8DA" stroke-width="5" points="0 61 33 29 66 45 77 11"></polyline>
                                    <path d="M47,30 C47,38.284 40.284,45 32,45 C23.716,45 17,38.284 17,30 C17,21.716 23.716,15 32,15 C40.284,15 47,21.716 47,30" id="Fill-7" fill="#FEC828"></path>
                                    <path d="M40,30 C40,34.418 36.418,38 32,38 C27.582,38 24,34.418 24,30 C24,25.582 27.582,22 32,22 C36.418,22 40,25.582 40,30" id="Fill-9" fill="#FFD486"></path>
                                    <path d="M37,30 C37,32.761 34.762,35 32,35 C29.238,35 27,32.761 27,30 C27,27.239 29.238,25 32,25 C34.762,25 37,27.239 37,30" id="Fill-11" fill="#FEAD32"></path>
                                    <path d="M76,44.5 C76,50.851 70.852,56 64.5,56 C58.148,56 53,50.851 53,44.5 C53,38.149 58.148,33 64.5,33 C70.852,33 76,38.149 76,44.5" id="Fill-13" fill="#12B98C"></path>
                                    <path d="M70.6338,44.5 C70.6338,47.887 67.8878,50.633 64.4998,50.633 C61.1128,50.633 58.3658,47.887 58.3658,44.5 C58.3658,41.113 61.1128,38.367 64.4998,38.367 C67.8878,38.367 70.6338,41.113 70.6338,44.5" id="Fill-15" fill="#00C77F"></path>
                                    <path d="M87,11.5 C87,17.851 81.852,23 75.5,23 C69.148,23 64,17.851 64,11.5 C64,5.149 69.148,0 75.5,0 C81.852,0 87,5.149 87,11.5" id="Fill-17" fill="#F35936"></path>
                                    <path d="M81.6338,11.5 C81.6338,14.887 78.8878,17.633 75.4998,17.633 C72.1128,17.633 69.3658,14.887 69.3658,11.5 C69.3658,8.113 72.1128,5.367 75.4998,5.367 C78.8878,5.367 81.6338,8.113 81.6338,11.5" id="Fill-19" fill="#F36C37"></path>
                                    <path d="M79.333,11.5 C79.333,13.617 77.617,15.333 75.5,15.333 C73.383,15.333 71.667,13.617 71.667,11.5 C71.667,9.383 73.383,7.667 75.5,7.667 C77.617,7.667 79.333,9.383 79.333,11.5" id="Fill-21" fill="#CD4A30"></path>
                                    <path d="M68.333,44.5 C68.333,46.617 66.617,48.333 64.5,48.333 C62.383,48.333 60.667,46.617 60.667,44.5 C60.667,42.383 62.383,40.667 64.5,40.667 C66.617,40.667 68.333,42.383 68.333,44.5" id="Fill-23" fill="#00936E"></path>
                                    <path d="M62,23.5 C62,26.538 59.537,29 56.5,29 C53.463,29 51,26.538 51,23.5 C51,20.462 53.463,18 56.5,18 C59.537,18 62,20.462 62,23.5" id="Fill-25" fill="#50D0FF"></path>
                                </g>
                            </g>
                        </g>
                    </g>
                </g>
            </g>
        </g>
    </g>
</svg>