<?xml version="1.0" encoding="UTF-8"?>
<svg width="30px" height="30px" viewBox="0 0 30 30" version="1.1" xmlns="http://www.w3.org/2000/svg" xmlns:xlink="http://www.w3.org/1999/xlink">
    <!-- Generator: Sketch 49.2 (51160) - http://www.bohemiancoding.com/sketch -->
    <title>6</title>
    <desc>Created with Sketch.</desc>
    <defs></defs>
    <g id="Page-1" stroke="none" stroke-width="1" fill="none" fill-rule="evenodd">
        <g id="猩派客官网首页" transform="translate(-1807.000000, -578.000000)" fill="#FFFFFF" fill-rule="nonzero">
            <g id="时间-copy" transform="translate(1807.000000, 578.000000)">
                <g id="Group-9">
                    <path d="M15.0604201,30 C6.75617275,30 0,23.2736594 0,15.0013022 C0,6.72791699 6.75617275,0 15.0604201,0 C15.8785681,0 16.5376146,0.65844665 16.5376146,1.47069306 C16.5376146,2.28393327 15.8759531,2.94241419 15.0604201,2.94241419 C8.38717003,2.94241419 2.9532536,8.35288957 2.9532536,14.9997258 C2.9532536,21.6481728 8.38562168,27.0560094 15.0604201,27.0560094 C18.9058672,27.0560094 22.4357607,25.2997176 24.748376,22.2349627 C25.2372416,21.5848777 26.1599204,21.4509883 26.8147348,21.9405225 C27.4680008,22.4300567 27.6024319,23.350011 27.1108825,24.000096 C24.2363883,27.8148988 19.8453371,30 15.0604201,30 Z M28.0576468,19.9870463 C27.9327122,19.9870463 27.8029604,19.971351 27.6748259,19.9352657 C26.8845137,19.7266011 26.4187701,18.9180214 26.6314102,18.134047 C26.9050208,17.1157748 27.0457486,16.0629592 27.0457486,14.9996916 C27.0457486,10.0656596 24.0793168,5.67612951 19.4871865,3.82049156 C18.7304908,3.51244654 18.3665598,2.65787778 18.6732363,1.90423155 C18.9772978,1.15058532 19.8379738,0.783974394 20.5972501,1.09198514 C26.3100416,3.40316235 30,8.86223133 30,14.9996916 C30,16.3171332 29.8261719,17.6288176 29.4859135,18.8955409 C29.3068554,19.5545359 28.7092612,19.987012 28.057578,19.987012 L28.0576468,19.9870463 Z M20.7306491,18.1319909 L14.9543409,18.1319909 C14.13781,18.1319909 13.4750475,17.4703572 13.4750475,16.6586591 L13.4750475,8.61751563 C13.4750475,7.80266477 14.1393584,7.14418385 14.9543409,7.14418385 C15.7698739,7.14418385 16.4299182,7.80420688 16.4299182,8.61751563 L16.4299182,15.1890627 L20.7306835,15.1890627 C21.5462165,15.1890627 22.2094264,15.8490857 22.2094264,16.6607495 C22.2094264,17.4756004 21.5462165,18.1319909 20.7306835,18.1319909 L20.7306491,18.1319909 Z" id="Shape"></path>
                </g>
            </g>
        </g>
    </g>
</svg>