<?xml version="1.0" encoding="UTF-8"?>
<svg width="71px" height="79px" viewBox="0 0 71 79" version="1.1" xmlns="http://www.w3.org/2000/svg" xmlns:xlink="http://www.w3.org/1999/xlink">
    <!-- Generator: Sketch 49.2 (51160) - http://www.bohemiancoding.com/sketch -->
    <title>63</title>
    <desc>Created with Sketch.</desc>
    <defs>
        <rect id="path-1" x="0" y="0" width="53" height="53"></rect>
        <filter x="-36.8%" y="-27.4%" width="192.5%" height="192.5%" filterUnits="objectBoundingBox" id="filter-2">
            <feOffset dx="5" dy="10" in="SourceAlpha" result="shadowOffsetOuter1"></feOffset>
            <feGaussianBlur stdDeviation="6.5" in="shadowOffsetOuter1" result="shadowBlurOuter1"></feGaussianBlur>
            <feColorMatrix values="0 0 0 0 0   0 0 0 0 0   0 0 0 0 0  0 0 0 0.199530118 0" type="matrix" in="shadowBlurOuter1"></feColorMatrix>
        </filter>
    </defs>
    <g id="Page-1" stroke="none" stroke-width="1" fill="none" fill-rule="evenodd">
        <g id="猩派客官网解决方案" transform="translate(-728.000000, -2660.000000)">
            <g id="Group-38" transform="translate(728.000000, 2660.000000)">
                <g id="Group-39" transform="translate(0.000000, 3.000000)">
                    <g id="Rectangle-3-Copy-61">
                        <use fill="black" fill-opacity="1" filter="url(#filter-2)" xlink:href="#path-1"></use>
                        <use fill="#FF983E" fill-rule="evenodd" xlink:href="#path-1"></use>
                    </g>
                    <path d="M26.675,15.8 C28.475,15.8 29.95,16.225 31.05,17.1 C32.125,17.975 32.675,19.175 32.675,20.725 C32.675,22.675 31.675,23.975 29.7,24.625 C30.75,24.95 31.575,25.425 32.125,26.075 C32.725,26.75 33.025,27.625 33.025,28.675 C33.025,30.325 32.45,31.675 31.3,32.725 C30.1,33.8 28.525,34.35 26.575,34.35 C24.725,34.35 23.225,33.875 22.1,32.925 C20.85,31.875 20.15,30.325 20,28.325 L22.975,28.325 C23.025,29.475 23.375,30.375 24.075,31 C24.7,31.575 25.525,31.875 26.55,31.875 C27.675,31.875 28.575,31.55 29.225,30.925 C29.8,30.35 30.1,29.65 30.1,28.8 C30.1,27.775 29.775,27.025 29.175,26.55 C28.575,26.05 27.7,25.825 26.55,25.825 L25.3,25.825 L25.3,23.625 L26.55,23.625 C27.6,23.625 28.4,23.4 28.95,22.95 C29.475,22.5 29.75,21.825 29.75,20.95 C29.75,20.075 29.5,19.425 29.025,18.975 C28.5,18.525 27.725,18.3 26.7,18.3 C25.65,18.3 24.85,18.55 24.275,19.075 C23.675,19.6 23.325,20.4 23.225,21.475 L20.35,21.475 C20.5,19.675 21.15,18.275 22.35,17.275 C23.475,16.275 24.925,15.8 26.675,15.8 Z" id="3" fill="#FFFFFF"></path>
                </g>
            </g>
        </g>
    </g>
</svg>