<?xml version="1.0" encoding="UTF-8"?>
<svg width="71px" height="79px" viewBox="0 0 71 79" version="1.1" xmlns="http://www.w3.org/2000/svg" xmlns:xlink="http://www.w3.org/1999/xlink">
    <!-- Generator: Sketch 49.2 (51160) - http://www.bohemiancoding.com/sketch -->
    <title>65</title>
    <desc>Created with Sketch.</desc>
    <defs>
        <rect id="path-1" x="0" y="0" width="53" height="53"></rect>
        <filter x="-36.8%" y="-27.4%" width="192.5%" height="192.5%" filterUnits="objectBoundingBox" id="filter-2">
            <feOffset dx="5" dy="10" in="SourceAlpha" result="shadowOffsetOuter1"></feOffset>
            <feGaussianBlur stdDeviation="6.5" in="shadowOffsetOuter1" result="shadowBlurOuter1"></feGaussianBlur>
            <feColorMatrix values="0 0 0 0 0   0 0 0 0 0   0 0 0 0 0  0 0 0 0.199530118 0" type="matrix" in="shadowBlurOuter1"></feColorMatrix>
        </filter>
    </defs>
    <g id="Page-1" stroke="none" stroke-width="1" fill="none" fill-rule="evenodd">
        <g id="猩派客官网解决方案" transform="translate(-1204.000000, -2660.000000)">
            <g id="Group-42" transform="translate(1204.000000, 2660.000000)">
                <g id="Group-43" transform="translate(0.000000, 3.000000)">
                    <g id="Rectangle-3-Copy-62">
                        <use fill="black" fill-opacity="1" filter="url(#filter-2)" xlink:href="#path-1"></use>
                        <use fill="#FF983E" fill-rule="evenodd" xlink:href="#path-1"></use>
                    </g>
                    <path d="M21.3,16.15 L32.175,16.15 L32.175,18.725 L23.65,18.725 L23.15,23.625 L23.225,23.625 C23.775,23.075 24.4,22.675 25.125,22.425 C25.775,22.175 26.5,22.05 27.3,22.05 C28.975,22.05 30.35,22.6 31.4,23.7 C32.45,24.8 33,26.325 33,28.25 C33,30.1 32.3,31.6 30.9,32.775 C29.6,33.825 28.075,34.35 26.3,34.35 C24.675,34.35 23.275,33.9 22.125,33.025 C20.825,32.05 20.125,30.725 20,29.075 L22.875,29.075 C23,30.05 23.375,30.775 24.025,31.25 C24.575,31.65 25.35,31.875 26.325,31.875 C27.375,31.875 28.275,31.55 29,30.9 C29.7,30.25 30.075,29.375 30.075,28.275 C30.075,27.075 29.75,26.125 29.15,25.45 C28.55,24.75 27.65,24.425 26.5,24.425 C25.725,24.425 25.05,24.55 24.5,24.825 C23.875,25.125 23.4,25.575 23.05,26.2 L20.325,26.2 L21.3,16.15 Z" id="5" fill="#FFFFFF"></path>
                </g>
            </g>
        </g>
    </g>
</svg>