<?xml version="1.0" encoding="UTF-8"?>
<svg width="31px" height="30px" viewBox="0 0 31 30" version="1.1" xmlns="http://www.w3.org/2000/svg" xmlns:xlink="http://www.w3.org/1999/xlink">
    <!-- Generator: Sketch 49.2 (51160) - http://www.bohemiancoding.com/sketch -->
    <title>7</title>
    <desc>Created with Sketch.</desc>
    <defs></defs>
    <g id="Page-1" stroke="none" stroke-width="1" fill="none" fill-rule="evenodd">
        <g id="猩派客官网首页" transform="translate(-1806.000000, -626.000000)" fill="#161519" fill-rule="nonzero">
            <g id="客服-copy" transform="translate(1806.000000, 626.000000)">
                <g id="Group-10">
                    <path d="M29.9221679,10.274811 C29.2599705,9.42877714 28.3476878,8.84915394 27.3508692,8.63674547 C25.6601523,3.38413537 21.0987388,0 15.7060561,0 C10.3415521,0 5.79070562,3.35893435 4.082377,8.56834274 C2.98693331,8.68354735 1.97602546,9.2271691 1.21872514,10.1020041 C0.433246204,11.0128405 0,12.200888 0,13.4465379 L0,17.2986919 C0,20.0024001 2.02886035,22.2056882 4.5226679,22.2056882 L6.85092603,22.2056882 C7.61527098,22.2056882 8.23872288,21.5684627 8.23872288,20.7872315 L8.23872288,9.95439816 C8.23872288,9.25957039 7.74559709,8.67994719 7.10101127,8.56114244 C7.80899899,6.8402736 8.9572776,5.4074163 10.4331326,4.40657626 C11.9512556,3.37693507 13.7758209,2.83331332 15.7060561,2.83331332 C17.632769,2.83331332 19.4608567,3.37693507 20.9860243,4.40657626 C22.458357,5.400216 23.6207249,6.82587305 24.353369,8.53954159 L24.149074,8.53954159 C23.384729,8.53954159 22.7612771,9.17676709 22.7612771,9.95799833 L22.7612771,20.7908316 C22.7612771,21.0824433 22.8528576,21.3632545 23.018407,21.6044642 C22.8211567,21.8384735 22.6274287,22.076083 22.4407454,22.3064923 C21.0952165,23.9589584 19.8201341,25.5214209 17.6679923,25.8958358 C17.1889558,25.1578063 16.3717759,24.700588 15.5017612,24.700588 C14.0716964,24.700588 12.9093285,25.8886355 12.9093285,27.350294 C12.9093285,28.8119525 14.0716964,30 15.5017612,30 C16.1287354,30 16.7310533,29.7695908 17.2030451,29.3483739 C17.6362913,28.9631585 17.9321668,28.4411377 18.0448813,27.8687148 C19.5101693,27.6131045 20.831042,26.9290772 22.081468,25.7770311 C23.2191797,24.7293892 24.1983865,23.3937358 25.064879,22.2020881 L26.4773321,22.2020881 C28.9711397,22.2020881 31,20.0024001 31,17.2950918 L31,13.4429377 C30.9964777,12.2836914 30.6160664,11.1568463 29.9221679,10.274811 Z M5.46312918,19.3687747 L4.5226679,19.3687747 C3.56107263,19.3687747 2.77559369,18.4399376 2.77559369,17.2986919 L2.77559369,13.4429377 C2.77559369,13.2809312 2.79672765,13.1153246 2.83899559,12.9209168 C2.84604025,12.8849154 2.86012954,12.8453138 2.87069652,12.8021121 C2.91648678,12.6401056 2.96932167,12.5069003 3.02920125,12.3880955 C3.03272356,12.3808952 3.03624591,12.3700948 3.03976823,12.3628945 C3.04329054,12.3592944 3.04329054,12.3556942 3.04681289,12.3484939 C3.20883993,12.0424817 3.4413135,11.7904716 3.71605501,11.6212649 C3.82876948,11.5528621 3.94852858,11.4952598 4.07533237,11.4520581 L4.1070333,11.4412576 L4.11407797,11.4376575 L4.11760028,11.4376575 C4.25497102,11.3944558 4.39234179,11.3728549 4.5226679,11.3728549 L5.46312918,11.3728549 L5.46312918,19.3687747 Z M28.2244063,17.2986919 C28.2244063,18.4399376 27.4389274,19.3687747 26.4773321,19.3687747 L25.5368708,19.3687747 L25.5368708,11.3728549 L26.4773321,11.3728549 C26.9352346,11.3728549 27.3684809,11.5852634 27.6960573,11.9668787 C28.0412453,12.3772951 28.2279287,12.9029161 28.220884,13.4465379 L28.220884,17.2986919 L28.2244063,17.2986919 Z" id="Shape"></path>
                    <path d="M19.7950791,18.6983471 C19.9441047,18.5 20.0150692,18.2438016 19.9973281,17.9710744 C19.9795869,17.6818182 19.8589472,17.4090909 19.667343,17.2231405 C19.5218656,17.0785124 19.3231649,17 19.1102712,17 C18.8299613,17 18.560296,17.1363636 18.3935293,17.3636363 C17.5632441,18.4214876 16.6974766,18.876033 15.5017239,18.8760331 C14.2491996,18.8760331 13.4934272,18.4834711 12.6134668,17.3719008 C12.4396037,17.1404958 12.1699384,17.0041322 11.8896284,17.0041322 C11.6767348,17.0041322 11.4815822,17.0826446 11.3325567,17.2314049 C11.1374042,17.4214876 11.0203127,17.6859504 11.0025716,17.9752066 C10.9848304,18.2479339 11.0593432,18.5082645 11.211917,18.714876 C12.4821824,20.3595041 13.6814833,21 15.5017239,21 C17.265193,20.9917355 18.6312605,20.2603306 19.7950791,18.6983471 Z" id="Shape"></path>
                </g>
            </g>
        </g>
    </g>
</svg>