<?xml version="1.0" encoding="UTF-8"?>
<svg width="72px" height="72px" viewBox="0 0 72 72" version="1.1" xmlns="http://www.w3.org/2000/svg" xmlns:xlink="http://www.w3.org/1999/xlink">
    <!-- Generator: Sketch 49.2 (51160) - http://www.bohemiancoding.com/sketch -->
    <title>73</title>
    <desc>Created with Sketch.</desc>
    <defs>
        <polygon id="path-1" points="0 0 72 0 72 52 0 52"></polygon>
    </defs>
    <g id="Page-1" stroke="none" stroke-width="1" fill="none" fill-rule="evenodd">
        <g id="猩派客官网解决方案" transform="translate(-327.000000, -2551.000000)">
            <g id="Page-1" transform="translate(327.000000, 2551.000000)">
                <g id="Group-28" transform="translate(0.000000, 10.000000)">
                    <mask id="mask-2" fill="white">
                        <use xlink:href="#path-1"></use>
                    </mask>
                    <g id="Clip-2"></g>
                    <path d="M0.842133439,24.646638 L4.89068813,26.7196459 C4.89068813,26.7196459 6.72679485,27.7698529 7.69948954,25.8050016 L17.7141288,4.94398218 C17.7141288,4.94398218 18.6593229,3.16407472 17.1123409,2.32586142 L12.6932325,0.180742018 C12.6932325,0.180742018 11.3224874,-0.58105116 10.4359181,1.02328547 C10.4044368,1.66789465 0.158930864,22.2765452 0.158930864,22.2765452 C0.158930864,22.2765452 -0.492427484,23.9663294 0.842133439,24.646638" id="Fill-1" fill="#FFFFFF" mask="url(#mask-2)"></path>
                    <path d="M65.6944255,26.8499585 L69.7412121,24.9456094 C69.7412121,24.9456094 71.6758643,24.1479559 70.7482974,22.1569078 L60.6448078,1.30916303 C60.6448078,1.30916303 59.8372273,-0.54077638 58.2444222,0.157488207 L53.9179142,2.30196555 C53.9179142,2.30196555 52.4979825,2.90954375 53.1901959,4.60532607 C53.6740415,5.03153147 63.4537749,25.9202682 63.4537749,25.9202682 C63.4537749,25.9202682 64.3586315,27.4803848 65.6944255,26.8499585" id="Fill-3" fill="#FFFFFF" mask="url(#mask-2)"></path>
                    <path d="M10,27.0103523 L11.3500725,24.1523317 L16.0948863,30.1375042 C16.0948863,30.1375042 19.1803583,29.4293562 20.2609874,31.3559636 C20.2609874,31.3559636 21.2835064,32.5249719 20.8397,34.737917 C20.8397,34.737917 21.4765228,35.2038007 21.5213757,35.4905033 C21.5213757,35.4905033 23.6471186,34.9798163 24.9250746,36.4806847 C24.9250746,36.4806847 26.1000675,37.4214043 25.9612199,39.2401467 C25.9612199,39.2401467 26.8043488,39.6028132 26.9790701,40.0998789 C26.9790701,40.0998789 29.0689393,39.5848983 30.0781793,40.7944056 C30.0781793,40.7944056 31.3159512,41.9544521 31.226267,43.3030054 L33.1636514,44.7139151 C33.1636514,44.7139151 34.9664986,44.8662228 35.262489,46.2774911 L36.9978885,47.5586697 C36.9978885,47.5586697 39.7741022,48.6560045 39.9355445,45.8832819 L33.4101308,40.9241334 C33.4101308,40.9241334 32.6434289,38.9265663 35.033588,39.2354882 L44.7564161,46.0714269 C44.7564161,46.0714269 46.3439997,46.7476748 47.3037289,45.2428713 C47.3037289,45.2428713 48.2412107,43.9391149 46.9090751,42.5368063 L36.572019,35.0737165 C36.572019,35.0737165 35.6614532,32.9865621 38.0071286,33.1474633 L50.2726006,41.8200625 C50.2726006,41.8200625 52.0173269,42.5099286 52.7528239,41.2154892 C52.7528239,41.2154892 53.743758,39.9206871 52.7528239,38.5814605 L39.204358,28.7126103 C39.204358,28.7126103 38.3928139,26.3473619 40.9264895,26.9569511 L54.8875352,36.8924481 C54.8875352,36.8924481 56.9996517,37.5557928 57.946102,35.835255 C57.946102,35.835255 59.1390318,33.9899998 57.5335114,32.4622644 L37.7782276,15.2467959 C37.7782276,15.2467959 34.1097434,13.4907718 31.9169111,17.159782 C31.9169111,17.159782 31.5312257,23.1313332 24.8892009,24.2243669 C24.8892009,24.2243669 20.3506824,23.8749568 21.4090751,20.9047668 C21.4090751,20.9047668 22.7412107,19.1444491 22.6246105,15.4442569 C22.6246105,15.4442569 22.7770844,12.7876473 24.6201158,10.5209468 L17.5073902,10.5209468 L19.0727264,7.28234473 L29.8134047,7.28234473 C29.8134047,7.28234473 34.2263436,4.78269701 37.5586534,5.01527929 C37.5586534,5.01527929 41.8951871,5.24822653 43.0612007,5.91120626 C43.0612007,5.91120626 48.8062862,7.74786352 51.3805041,7.31782029 L61,27.2210696 L59.4752062,30.6972774 C59.4752062,30.6972774 62.2872936,33.5868343 60.2106924,37.0942134 C59.632349,38.2678802 58.1523973,39.4057172 55.7259953,39.5085695 C55.7259953,39.5085695 56.0937439,41.8741765 54.394218,43.2044531 C54.394218,43.2044531 53.1428089,44.9203367 50.1111474,44.445136 C50.1111474,44.445136 50.2862378,46.5283511 48.2813949,47.9170416 C48.2813949,47.9170416 45.8912249,49.9687205 42.2048038,47.4644185 C42.2048038,47.4644185 41.6171336,49.8117532 38.6708674,50.2959136 C38.6708674,50.2959136 36.5225081,50.6317078 35.2714574,49.4222026 C35.2714574,49.4222026 33.0201458,53.6556488 29.8134047,51.2721181 C29.8134047,51.2721181 27.7863145,49.5924294 29.2124556,47.2182171 C29.2124556,47.2182171 26.4767844,51.5276372 23.2298592,48.2886731 C23.2298592,48.2886731 21.4316807,46.9361783 23.0999908,44.1093418 C23.0999908,44.1093418 20.5211041,47.0347306 17.6824698,44.3827795 C17.6824698,44.3827795 15.7493851,42.8055854 17.2921265,39.8669317 C17.2921265,39.8669317 14.6597767,42.9761697 11.591894,40.010283 C11.591894,40.010283 10.3049598,38.8233598 11.0451137,36.18503 L14.0139855,32.1307692 L10,27.0103523 Z" id="Fill-4" fill="#FFFFFF" mask="url(#mask-2)"></path>
                </g>
            </g>
        </g>
    </g>
</svg>