<?xml version="1.0" encoding="UTF-8"?>
<svg width="72px" height="72px" viewBox="0 0 72 72" version="1.1" xmlns="http://www.w3.org/2000/svg" xmlns:xlink="http://www.w3.org/1999/xlink">
    <!-- Generator: Sketch 49.2 (51160) - http://www.bohemiancoding.com/sketch -->
    <title>74</title>
    <desc>Created with Sketch.</desc>
    <defs></defs>
    <g id="Page-1" stroke="none" stroke-width="1" fill="none" fill-rule="evenodd">
        <g id="猩派客官网解决方案" transform="translate(-569.000000, -2550.000000)" fill="#FFFFFF" fill-rule="nonzero">
            <g id="一对一销售服务" transform="translate(569.000000, 2550.000000)">
                <g id="Group-29" transform="translate(7.000000, 7.000000)">
                    <path d="M36.9850746,59 L36.6915423,59 C32.5820896,58.7035176 30.5273632,55.7386935 30.5273632,53.6633166 L30.5273632,40.0251256 C30.5273632,36.4673366 33.4626865,34.6884422 35.8109453,34.6884422 L41.0945274,34.6884422 L41.0945274,22.2361809 C41.0945274,19.8643216 41.9751244,18.0854271 44.0298507,16.3065327 C43.1492537,16.0100503 42.8557214,15.4170854 42.2686567,14.8241206 C40.5074627,13.3417086 39.920398,10.9698492 40.2139303,8.59798993 C40.2139303,3.85427137 44.3233831,0 49.6069652,0 C54.8905473,0 59,3.85427137 59,8.89447233 C59,12.4522613 56.9452736,15.120603 54.0099503,16.6030151 L54.3034826,16.8994975 C55.477612,18.3819095 56.358209,20.160804 56.0646766,21.9396985 L56.0646766,37.6532663 C56.0646766,43.5829145 51.9552239,45.9547738 49.6069652,45.9547738 L42.8557214,46.2512562 L42.8557214,52.7738693 C42.2686567,57.5175879 39.3333333,59 36.9850746,59 Z M35.8109453,38.2462312 C35.5174129,38.2462312 34.6368159,38.2462312 34.6368159,39.7286432 L34.6368159,53.3668342 C34.6368159,53.6633166 34.9303482,54.5527638 36.9850746,54.8492462 C38.159204,54.8492462 38.7462686,52.7738693 38.7462686,52.1809045 L38.7462686,42.3969849 L49.6069652,42.1005025 C49.9004975,42.1005025 51.9552239,41.2110552 51.9552239,37.9497487 L51.9552239,22.2361809 C51.9552239,21.0502512 51.6616916,20.160804 51.0746269,19.8643216 C49.9004975,18.6783919 47.5522388,18.6783919 46.0845771,19.5678392 C45.2039801,20.4572864 44.9104478,21.0502512 44.9104478,22.8291457 L44.9104478,38.839196 L35.5174129,38.839196 L35.8109453,38.2462312 Z M49.0199005,4.15075377 C46.0845771,4.15075377 43.7363184,6.52261308 43.7363184,9.19095473 C43.7363184,10.3768844 44.0298507,11.562814 44.9104478,12.7487437 C46.0845771,13.9346734 47.2587065,14.2311558 49.0199005,14.2311558 C51.9552239,14.2311558 54.3034826,11.8592964 54.3034826,9.19095473 C54.3034826,6.22613062 51.9552239,4.1507537 49.0199005,4.15075377 Z M21.1343283,59 C18.7860696,59 15.8507462,57.5175879 15.5572139,53.0703517 L15.5572139,46.5477387 L8.80597012,46.2512562 C6.4577114,46.2512562 2.34825866,43.8793969 2.34825873,37.9497487 L2.34825873,22.2361809 C2.0547264,20.4572864 2.93532337,18.3819095 4.69651739,16.8994975 C2.05472634,14.8241206 0,12.1557789 0,8.59798993 C0,3.55778891 4.10945274,0 9.39303484,0 C14.6766169,0 18.7860697,3.85427137 18.7860697,8.89447233 C18.7860697,12.1557788 17.0248757,14.8241206 14.6766169,16.3065327 L14.9701493,16.8994975 C16.7313433,18.3819095 17.6119403,20.4572864 17.6119403,22.8291457 L17.6119403,34.6884422 L22.8955224,34.6884422 C24.6567164,34.6884422 25.8308458,35.5778895 26.4179104,36.1708542 C27.2985075,37.3567839 27.5920398,38.839196 27.5920398,40.321608 L27.5920398,53.0703517 C27.5920398,55.442211 25.8308458,58.4070351 22.0149254,59 L21.1343283,59 Z M7.33830844,19.5678392 C6.4577114,20.4572864 6.16417907,21.6432161 6.16417907,22.2361809 L6.16417907,37.9497487 C6.16417907,41.5075377 8.21890547,42.1005025 8.5124378,42.1005025 L19.6666666,42.6934673 L19.6666666,52.7738693 C19.6666666,53.0703517 19.960199,55.1457286 21.4278607,55.1457286 L21.721393,55.1457286 C23.4825871,54.8492462 23.7761194,53.959799 23.7761194,53.0703517 L23.7761194,38.5427136 C23.7761194,38.5427136 23.4825871,38.2462312 22.8955224,38.2462312 L13.5024876,38.2462312 L13.5024876,22.2361809 C13.5024876,21.3467336 13.2089552,20.160804 11.7412935,19.5678392 C11.4477612,19.2713568 10.5671641,18.9748744 9.68656716,18.9748744 C9.09950251,18.9748744 8.5124378,19.2713568 7.92537315,19.2713568 C7.92537315,19.5678392 7.3383085,19.5678392 7.33830844,19.5678392 Z M9.39303484,4.15075377 C6.16417914,4.15075377 4.10945274,6.22613068 4.10945274,8.89447233 C4.10945274,11.562814 6.45771146,14.2311558 9.39303484,14.2311558 C12.3283582,14.2311558 14.6766169,11.8592964 14.6766169,9.19095473 C14.6766169,6.22613062 12.3283582,4.1507537 9.39303484,4.15075377 Z" id="Shape"></path>
                </g>
            </g>
        </g>
    </g>
</svg>