<?xml version="1.0" encoding="UTF-8"?>
<svg width="72px" height="72px" viewBox="0 0 72 72" version="1.1" xmlns="http://www.w3.org/2000/svg" xmlns:xlink="http://www.w3.org/1999/xlink">
    <!-- Generator: Sketch 49.2 (51160) - http://www.bohemiancoding.com/sketch -->
    <title>75</title>
    <desc>Created with Sketch.</desc>
    <defs></defs>
    <g id="Page-1" stroke="none" stroke-width="1" fill="none" fill-rule="evenodd">
        <g id="猩派客官网解决方案" transform="translate(-807.000000, -2550.000000)" fill="#FFFFFF" fill-rule="nonzero">
            <g id="微信" transform="translate(807.000000, 2550.000000)">
                <g id="Group-30" transform="translate(3.000000, 9.000000)">
                    <path d="M23.3957482,0 C10.5345895,0 0,8.82314996 0,20.0263584 C0,26.493344 3.5053367,31.801986 9.35995081,35.9148849 L7.01996311,43 L15.1980498,38.8704791 C18.1253569,39.4553647 20.47257,40.0537557 23.3926516,40.0537557 C24.1265428,40.0537557 24.855273,40.0173951 25.5767778,39.9592182 C25.1205473,38.3832475 24.855273,36.7355947 24.855273,35.0256094 C24.855273,24.7438815 33.6330654,16.3954966 44.7467168,16.3954966 C45.5043484,16.3954966 46.2547547,16.4515958 47,16.5347056 C44.9758642,7.04875459 34.8995696,0 23.3957482,0 Z M15.7956912,15.8978764 C14.0430228,15.8978764 12.2728072,14.7156387 12.2728072,12.9505932 C12.2728072,11.1782755 14.0430228,10.0126598 15.7956912,10.0126598 C17.5483595,10.0126598 18.716805,11.1793144 18.716805,12.9505932 C18.7157728,14.7156387 17.5483595,15.8978764 15.7956912,15.8978764 Z M32.1694119,15.8978764 C30.4157114,15.8978764 28.6558177,14.7156387 28.6558177,12.9505932 C28.6558177,11.1782755 30.4157114,10.0126598 32.1694119,10.0126598 C33.93137,10.0126598 35.0977512,11.1793144 35.0977512,12.9505932 C35.0977512,14.7156387 33.9303378,15.8978764 32.1694119,15.8978764 Z" id="Shape"></path>
                    <path d="M66,34.8367277 C66,25.5633178 56.5860368,18 46.013496,18 C34.8180638,18 26,25.5633177 26,34.8367277 C26,44.1306178 34.8180638,51.6785755 46.013496,51.6785755 C48.3566052,51.6785755 50.7184012,51.0969394 53.0729302,50.5142792 L59.5281599,54 L57.7581105,48.1989988 C62.4806644,44.7061099 66,40.071453 66,34.8367277 Z M39.5240073,31.9367391 C38.3519335,31.9367391 37.1694783,30.788827 37.1694783,29.6163386 C37.1694783,28.4581864 38.3519335,27.2928661 39.5240073,27.2928661 C41.3044381,27.2928661 42.4692447,28.4581864 42.4692447,29.6163386 C42.4692447,30.788827 41.3044381,31.9367391 39.5240073,31.9367391 Z M52.4676875,31.9367391 C51.303919,31.9367391 50.129769,30.788827 50.129769,29.6163386 C50.129769,28.4581864 51.303919,27.2928661 52.4676875,27.2928661 C54.2304698,27.2928661 55.412925,28.4581864 55.412925,29.6163386 C55.412925,30.788827 54.2304698,31.9367391 52.4676875,31.9367391 Z" id="Shape"></path>
                </g>
            </g>
        </g>
    </g>
</svg>