<svg xmlns="http://www.w3.org/2000/svg" width="72" height="72" viewBox="0 0 72 72">
  <path fill="#FFF" d="M50.6395322,20.0340514 C48.7117496,23.1055436 45.7089255,25.3487683 42.2167781,26.3261715 L41.9467804,26.4024752 C41.3959751,26.5664167 40.8251282,26.6533277 40.2504905,26.6607338 C37.7559467,26.6607338 36.3472631,24.976183 37.1044305,22.8925052 C37.6561649,21.3723007 39.1118046,20.0868769 40.8902677,19.4881865 C43.6372007,18.490369 45.5624017,16.2012581 45.5624017,13.5364982 C45.5624017,9.95022458 42.0700402,7.03894509 37.7618162,7.03894509 C33.4535922,7.03894509 29.9671003,9.95022458 29.9671002,13.5364982 L29.9671002,33.4635018 C29.9671002,38.2647651 27.1908196,42.4673379 23.0410725,44.8386219 C20.6629487,46.193315 17.971512,46.9015878 15.2346175,46.8929522 C7.12294769,46.8929522 0.513873727,40.8708297 0.513873727,33.4635018 C0.513873727,31.1156957 1.18299844,28.8970191 2.35690142,26.9718182 C4.17645111,23.984235 7.20512088,21.7009936 10.8324812,20.6620895 L10.8442202,20.6620895 C11.4487803,20.4683955 12.0768183,20.3686138 12.710726,20.3627442 C15.2228784,20.3627442 16.6433011,22.0590341 15.8802641,24.1485814 C15.3637467,25.5631346 13.9726717,26.7898632 12.3585551,27.4355098 C12.1662599,27.4989748 11.9763518,27.5694561 11.7892122,27.6468123 C9.21249502,28.7091946 7.44577105,30.9161322 7.44577096,33.4693713 C7.44577096,37.055645 10.9322629,39.9669245 15.240487,39.9669245 C19.5428416,39.9669245 23.0352029,37.055645 23.0352029,33.4693713 L23.0352029,13.5364982 C23.0352029,8.74697397 25.8173531,4.54440123 29.9612307,2.16137809 C32.3393545,0.806684966 35.0307912,0.0984121333 37.7676857,0.107047769 C45.885225,0.107047769 52.4942989,6.1291702 52.4942989,13.5364982 C52.4884294,15.8314787 51.8486523,18.0795029 50.6395322,20.0340514" transform="translate(10 13)"/>
</svg>
