<?xml version="1.0" encoding="UTF-8"?>
<svg width="72px" height="72px" viewBox="0 0 72 72" version="1.1" xmlns="http://www.w3.org/2000/svg" xmlns:xlink="http://www.w3.org/1999/xlink">
    <!-- Generator: Sketch 49.2 (51160) - http://www.bohemiancoding.com/sketch -->
    <title>77</title>
    <desc>Created with Sketch.</desc>
    <defs></defs>
    <g id="Page-1" stroke="none" stroke-width="1" fill="none" fill-rule="evenodd">
        <g id="猩派客官网解决方案" transform="translate(-1280.000000, -2553.000000)" fill="#FFFFFF" fill-rule="nonzero">
            <g id="培训指导服务线性图标" transform="translate(1280.000000, 2553.000000)">
                <g id="Group-32" transform="translate(8.000000, 7.000000)">
                    <path d="M13.2316559,46.2424258 L10.9197895,45.460502 C10.898096,45.4529232 10.8752909,45.4490557 10.8523239,45.4490605 C10.7609418,45.4495085 10.6799476,45.5082781 10.6507725,45.5953067 L6.79722983,56.9313047 C6.77863731,56.9859401 6.78240841,57.0457608 6.8077132,57.0976016 C6.83258506,57.1493934 6.87721754,57.188895 6.93148465,57.2071445 L9.24335104,57.9886719 C9.26600866,57.9964883 9.28866627,58 9.31092935,58 C9.39941809,58 9.48215782,57.9436426 9.5126498,57.854207 L13.365798,46.5179258 C13.3846041,46.4633448 13.3809313,46.4034752 13.3555964,46.3516289 C13.3307338,46.2998394 13.2859994,46.2604243 13.2316559,46.2424258 Z M54.9261866,8.24823438 C54.2336638,7.54594727 53.3076885,7.15943166 52.3187566,7.15943166 L3.68118703,7.15943166 C2.69242424,7.15943166 1.76656175,7.54594727 1.07392613,8.24823438 C0.381403283,8.95091798 0,9.89035939 0,10.8933516 L0,40.211332 C0,41.2142676 0.381403283,42.1537656 1.07392613,42.8564492 C1.7665617,43.5591328 2.69242424,43.9460449 3.68118703,43.9460449 L52.704218,43.9460449 C54.6447136,43.9460449 56,42.4099512 56,40.211332 L56,10.8932949 C55.9999436,9.89035939 55.6187094,8.95086134 54.9261866,8.24823438 Z M51.214494,38.8542321 C51.214494,39.1054098 50.942197,39.3815889 50.6943578,39.3815889 L5.30559717,39.3815889 C5.05791577,39.3815889 4.78561879,39.1054098 4.78561873,38.8542321 L4.78561873,11.4950596 C4.78561873,11.3769765 4.83053698,11.3320478 5.30559717,11.3320478 L50.6943578,11.3320478 C50.9421444,11.3320478 51.2144939,11.6082269 51.214494,11.8594046 L51.214494,38.8542321 Z M43.2211584,46.4472949 L47.074532,57.7836894 L49.3865111,57.0017656 L45.5331375,45.6654844 L43.2211584,46.4472949 Z M29.3488893,45.8399942 L26.651618,45.8399942 C26.5335954,45.8399942 26.4381178,45.9365098 26.4381178,46.0563047 L26.4381178,53.4837598 C26.4381178,53.6031582 26.5335954,53.7000703 26.651618,53.7000703 L29.3488893,53.7000703 C29.4665173,53.7000703 29.5623895,53.6031582 29.5623895,53.4837598 L29.5623895,46.0563047 C29.5623895,45.9365098 29.4664609,45.8399941 29.3488893,45.8399942 Z M46.0368468,20.095414 L43.724755,18.5311699 C43.6897723,18.5075589 43.6485908,18.4949404 43.6064506,18.4949199 C43.5371874,18.4950613 43.4723156,18.5290306 43.4325168,18.5859981 L33.1975848,33.1987695 L21.8125251,17.7997695 C21.778781,17.7540093 21.7282237,17.7237158 21.6721206,17.7156402 C21.6160176,17.7075646 21.5590312,17.7223781 21.5138616,17.7567793 L10.7242689,25.9653652 C10.6337192,26.0348288 10.6120575,26.1628432 10.6746701,26.2584805 L12.2162338,28.6041387 C12.2494474,28.6548968 12.3025158,28.6891264 12.3622683,28.698332 C12.3728644,28.6995215 12.3833477,28.7007676 12.3939439,28.7007676 C12.4427536,28.7007676 12.4906615,28.6833789 12.5289878,28.6518301 L20.8354857,21.75725 L33.0325562,37.9971934 C33.0727424,38.0507438 33.1355777,38.0822746 33.2023193,38.0823809 L33.2041792,38.0823809 C33.271547,38.0815994 33.3345885,38.0488835 33.3742241,37.9941347 L46.0906728,20.4031426 C46.1249974,20.3555644 46.1386934,20.295582 46.1287736,20.2376387 C46.1188044,20.1795803 46.0855764,20.1281716 46.0368468,20.095414 Z M30.8122222,5.17831249 L30.8769824,0 L25.1291047,0 L25.188116,5.17831249 L30.8122222,5.17831249 Z" id="Shape"></path>
                </g>
            </g>
        </g>
    </g>
</svg>