<?xml version="1.0" encoding="UTF-8"?>
<svg width="72px" height="72px" viewBox="0 0 72 72" version="1.1" xmlns="http://www.w3.org/2000/svg" xmlns:xlink="http://www.w3.org/1999/xlink">
    <!-- Generator: Sketch 49.2 (51160) - http://www.bohemiancoding.com/sketch -->
    <title>78</title>
    <desc>Created with Sketch.</desc>
    <defs></defs>
    <g id="Page-1" stroke="none" stroke-width="1" fill="none" fill-rule="evenodd">
        <g id="猩派客官网解决方案" transform="translate(-1519.000000, -2554.000000)" fill="#FFFFFF" fill-rule="nonzero">
            <g id="客服" transform="translate(1519.000000, 2554.000000)">
                <g id="Group-33" transform="translate(10.000000, 11.000000)">
                    <path d="M50.1920236,17.124685 C49.0812408,15.7146286 47.5509602,14.7485899 45.8788774,14.3945758 C43.0428361,5.64022562 35.3914328,0 26.3456426,0 C17.3471197,0 9.71344168,5.59822391 6.8478582,14.2805712 C5.01033974,14.4725789 3.31462336,15.3786152 2.04431314,16.8366734 C0.726735567,18.3547342 0,20.3348134 0,22.4108964 L0,28.8311532 C0,33.3373335 3.40324962,37.0094804 7.58641067,37.0094804 L11.4918759,37.0094804 C12.7740029,37.0094804 13.8197932,35.9474379 13.8197932,34.6453858 L13.8197932,16.5906636 C13.8197932,15.4326173 12.9926145,14.4665786 11.9113737,14.2685707 C13.098966,11.400456 15.0251108,9.0123605 17.5007386,7.34429377 C20.0472674,5.62822512 23.1078287,4.72218887 26.3456426,4.72218887 C29.577548,4.72218887 32.6440178,5.62822512 35.2023634,7.34429377 C37.6720828,9.00036001 39.6218612,11.3764551 40.8508124,14.2325693 L40.5081241,14.2325693 C39.2259971,14.2325693 38.1802068,15.2946118 38.1802068,16.5966639 L38.1802068,34.651386 C38.1802068,35.1374055 38.3338257,35.6054242 38.6115214,36.0074403 C38.2806499,36.3974559 37.9556868,36.7934717 37.6425407,37.1774871 C35.3855244,39.9315973 33.2466766,42.5357015 29.6366322,43.1597264 C28.8330872,41.9296772 27.4623338,41.1676467 26.0029542,41.1676467 C23.6041359,41.1676467 21.6543575,43.1477259 21.6543575,45.5838234 C21.6543575,48.0199209 23.6041359,50 26.0029542,50 C27.0546529,50 28.0649926,49.6159846 28.8567208,48.9139566 C29.5834565,48.2719309 30.0797637,47.4018961 30.2688331,46.4478579 C32.7267356,46.0218409 34.942393,44.8817953 37.0398818,42.9617185 C38.9483014,41.2156486 40.5908419,38.9895596 42.0443131,37.0034801 L44.4135894,37.0034801 C48.5967504,37.0034801 52,33.3373335 52,28.825153 L52,22.4048962 C51.9940916,20.4728189 51.3559823,18.5947438 50.1920236,17.124685 Z M9.16395863,32.2812912 L7.58641067,32.2812912 C5.97341216,32.2812912 4.65583458,30.7332294 4.65583458,28.8311532 L4.65583458,22.4048962 C4.65583458,22.1348854 4.69128509,21.8588743 4.76218615,21.5348614 C4.77400301,21.474859 4.79763666,21.4088563 4.81536191,21.3368535 C4.89217137,21.0668427 4.98079763,20.8448338 5.08124081,20.6468258 C5.0871492,20.6348253 5.09305766,20.6168246 5.09896606,20.6048242 C5.10487446,20.598824 5.10487446,20.5928237 5.11078291,20.5808232 C5.38257021,20.0708028 5.77252587,19.650786 6.2333826,19.3687748 C6.42245203,19.2547702 6.62333826,19.1587664 6.8360414,19.0867635 L6.88921716,19.0687627 L6.90103401,19.0627625 L6.90694241,19.0627625 C7.13737074,18.9907597 7.36779914,18.9547582 7.58641067,18.9547582 L9.16395863,18.9547582 L9.16395863,32.2812912 Z M47.3441654,28.8311532 C47.3441654,30.7332293 46.0265878,32.2812912 44.4135894,32.2812912 L42.8360414,32.2812912 L42.8360414,18.9547582 L44.4135894,18.9547582 C45.1816839,18.9547582 45.9084195,19.3087724 46.4579025,19.9447978 C47.0369276,20.6288251 47.3500739,21.5048602 47.338257,22.4108964 L47.338257,28.8311532 L47.3441654,28.8311532 Z" id="Shape"></path>
                    <path d="M32.6584652,30.9721074 C32.9068412,30.625 33.0251154,30.1766529 32.9955468,29.6993802 C32.9659782,29.1931818 32.7649121,28.7159091 32.4455716,28.3904959 C32.2031094,28.1373967 31.8719415,28 31.5171187,28 C31.0499354,28 30.6004933,28.2386363 30.3225488,28.6363636 C28.9387401,30.4876033 27.4957943,31.2830578 25.5028732,31.2830579 C23.4153327,31.2830579 22.1557121,30.5960744 20.6891114,28.6508264 C20.3993395,28.2458677 19.9498973,28.0072314 19.482714,28.0072314 C19.1278913,28.0072314 18.8026371,28.1446281 18.5542612,28.4049586 C18.229007,28.7376033 18.0338545,29.2004132 18.004286,29.7066116 C17.9747174,30.1838842 18.0989054,30.6394628 18.3531949,31.001033 C20.470304,33.8791322 22.4691388,35 25.5028732,35 C28.4419883,34.9855372 30.7187675,33.7055785 32.6584652,30.9721074 Z" id="Shape"></path>
                </g>
            </g>
        </g>
    </g>
</svg>