<?xml version="1.0" encoding="UTF-8"?>
<svg width="19px" height="34px" viewBox="0 0 19 34" version="1.1" xmlns="http://www.w3.org/2000/svg" xmlns:xlink="http://www.w3.org/1999/xlink">
    <!-- Generator: Sketch 49.2 (51160) - http://www.bohemiancoding.com/sketch -->
    <title>9</title>
    <desc>Created with Sketch.</desc>
    <defs></defs>
    <g id="Page-1" stroke="none" stroke-width="1" fill="none" fill-rule="evenodd">
        <g id="猩派客官网首页" transform="translate(-1842.000000, -568.000000)">
            <g id="Group-2-Copy" transform="translate(1842.000000, 568.000000)">
                <g id="Group-14">
                    <path d="M14.471178,23.798091 L18.1052632,23.798091 L14.9799499,26.5 L14.471178,23.798091 Z M25.0506968,7.5 L-6.05069673,7.5 C-6.85110274,7.5 -7.5,8.04434196 -7.5,8.71578041 L-7.5,22.5823106 C-7.5,23.2537491 -6.85110274,23.798091 -6.05069673,23.798091 L25.0506968,23.798091 C25.8511028,23.798091 26.5,23.2537491 26.5,22.5823106 L26.5,8.71578041 C26.5,8.04434196 25.8511027,7.5 25.0506968,7.5 Z" id="Shape" fill="#FF983E" fill-rule="nonzero" transform="translate(9.500000, 17.000000) scale(1, -1) rotate(90.000000) translate(-9.500000, -17.000000) "></path>
                    <path d="M9.272,10.1127474 L11.9,10.1127474 L11.9,8.0007474 L13.064,8.0007474 L13.064,10.1127474 L15.836,10.1127474 L15.836,11.2167474 L13.064,11.2167474 L13.064,14.1687474 L16.364,14.1687474 L16.364,15.2847474 L8.828,15.2847474 L8.828,14.1687474 L11.9,14.1687474 L11.9,11.2167474 L9.272,11.2167474 L9.272,10.1127474 Z M7.22,11.1087474 C6.86,11.4687474 6.488,11.8047474 6.092,12.1407474 L5.372,11.2047474 C6.764,10.0527474 7.868,8.7327474 8.684,7.2687474 L5.804,7.2687474 L5.804,6.1527474 L9.224,6.1527474 C9.464,5.6247474 9.656,5.0727474 9.824,4.5087474 L11,4.6407474 C10.844,5.1567474 10.676,5.6607474 10.484,6.1527474 L16.364,6.1527474 L16.364,7.2687474 L9.98,7.2687474 C9.524,8.1807474 8.984,9.0447474 8.348,9.8367474 L8.348,15.7287474 L7.22,15.7287474 L7.22,11.1087474 Z M9.764,27.1367474 L9.764,28.2047474 C8.588,28.6607474 7.256,29.0207474 5.756,29.2967474 L5.612,28.1807474 C7.196,27.9167474 8.588,27.5687474 9.764,27.1367474 Z M7.46,18.5447474 L8.552,18.9767474 C7.976,20.4287474 7.4,21.6047474 6.824,22.5047474 C7.244,22.4567474 7.664,22.4087474 8.096,22.3487474 C8.312,21.9407474 8.528,21.4967474 8.756,21.0407474 L9.776,21.4247474 C8.804,23.2967474 7.988,24.6647474 7.316,25.5287474 C8.084,25.3607474 8.852,25.1447474 9.644,24.8807474 L9.644,25.9007474 C8.348,26.3327474 7.124,26.6327474 5.972,26.7767474 L5.66,25.7447474 C5.864,25.6607474 6.032,25.5527474 6.176,25.4207474 C6.536,25.0247474 6.992,24.3407474 7.544,23.3687474 C6.968,23.4407474 6.38,23.5247474 5.768,23.6087474 L5.492,22.5767474 C5.66,22.5047474 5.816,22.3607474 5.96,22.1567474 C6.536,21.0767474 7.028,19.8647474 7.46,18.5447474 Z M15.608,20.6447474 L15.764,21.7007474 L12.764,22.1207474 C12.788,22.6007474 12.812,23.0447474 12.86,23.4767474 L15.932,22.9967474 L16.1,24.0767474 L12.992,24.5687474 L13.04,24.9167474 C13.136,25.4807474 13.268,25.9847474 13.424,26.4287474 C13.976,25.9007474 14.48,25.3007474 14.924,24.6287474 L15.824,25.2407474 C15.224,26.1047474 14.588,26.8607474 13.892,27.4847474 C14.252,28.0367474 14.576,28.3247474 14.864,28.3247474 C15.14,28.3247474 15.368,27.7487474 15.56,26.6087474 L16.532,27.2567474 C16.172,28.7927474 15.668,29.5727474 14.996,29.5727474 C14.396,29.5607474 13.82,29.1887474 13.28,28.4687474 C13.196,28.3607474 13.124,28.2527474 13.064,28.1567474 C12.2,28.7807474 11.288,29.2367474 10.328,29.5247474 L9.668,28.6127474 C10.748,28.2767474 11.708,27.7967474 12.548,27.1727474 C12.332,26.6687474 12.164,26.1167474 12.02,25.5167474 C11.96,25.2647474 11.912,25.0007474 11.864,24.7367474 L9.812,25.0607474 L9.656,23.9807474 L11.72,23.6567474 C11.672,23.2127474 11.648,22.7567474 11.624,22.2767474 L10.028,22.5047474 L9.86,21.4487474 L11.6,21.1967474 L11.6,18.6167474 L12.74,18.6167474 L12.74,21.0407474 L15.608,20.6447474 Z M14.084,18.5687474 C14.66,19.1207474 15.116,19.5887474 15.428,19.9847474 L14.54,20.6087474 C14.216,20.1527474 13.772,19.6607474 13.22,19.1207474 L14.084,18.5687474 Z" id="在-线" fill="#FFFFFF"></path>
                </g>
            </g>
        </g>
    </g>
</svg>