<?xml version="1.0" encoding="UTF-8"?>
<svg width="46px" height="46px" viewBox="0 0 46 46" version="1.1" xmlns="http://www.w3.org/2000/svg" xmlns:xlink="http://www.w3.org/1999/xlink">
    <!-- Generator: Sketch 49.2 (51160) - http://www.bohemiancoding.com/sketch -->
    <title>Group 26</title>
    <desc>Created with Sketch.</desc>
    <defs></defs>
    <g id="Page-1" stroke="none" stroke-width="1" fill="none" fill-rule="evenodd">
        <g id="猩派客官网首页" transform="translate(-1620.000000, -1554.000000)">
            <g id="Group-23" transform="translate(1620.000000, 1554.000000)">
                <g id="Group-26">
                    <circle id="Oval-2" fill="#FF973F" cx="23" cy="23" r="23"></circle>
                    <path d="M36.4874523,14.3927698 C35.8514632,13.8276816 34.8719009,13.8783607 34.2992305,14.5059806 L19.8154341,30.3769127 L11.4933727,23.5903834 C10.8318842,23.0891414 9.88721107,23.1944935 9.35566844,23.8287851 C8.82412581,24.4630767 8.89630985,25.3988687 9.51901396,25.9463922 L18.9661809,33.6569665 C19.2358343,33.8772687 19.5581786,33.9629417 19.8836224,33.9782405 C19.9518106,33.98436 20.0199988,34.0027185 20.0912865,33.9996587 C20.1222811,33.996599 20.1501763,33.9813002 20.1811709,33.9782405 C20.5483633,33.9386382 20.8885951,33.7690715 21.1389054,33.5009192 L36.6021324,16.5560143 C37.1745549,15.9281739 37.123218,14.9611625 36.4874523,14.3958296 L36.4874523,14.3927698 Z" id="Shape" stroke="#FFFFFF" fill="#FFFFFF" fill-rule="nonzero"></path>
                </g>
            </g>
        </g>
    </g>
</svg>