<svg xmlns="http://www.w3.org/2000/svg" xmlns:xlink="http://www.w3.org/1999/xlink" width="84" height="120" viewBox="0 0 84 120">
  <defs>
    <path id="group-10-a" d="M20.048,3.342 L4.957,11.163 C4.957,11.163 0.314,26.59 1.086,27.837 C1.862,29.086 17.858,54.835 17.858,54.835 L30.635,54.835 L47.535,50.665 L57.358,16.001 L38.955,0.836 L20.048,3.342 Z"/>
    <path id="group-10-c" d="M28.583,0.001 L25.679,0.001 L21.188,0.001 L19.265,0.001 L12.696,0.001 L11.351,0.001 L6.281,0.001 L3.377,0.001 L0.478,0.001 C0.478,0.001 0.66,3.695 1.478,5.856 C1.595,6.245 1.771,6.614 2,6.958 C3.588,9.335 7.259,9.691 10.202,7.748 C12.438,6.275 13.607,3.898 13.34,1.799 L14.633,1.799 L15.758,3.885 C15.836,4.028 16.042,4.028 16.118,3.885 L17.246,1.799 L18.618,1.799 C18.352,3.898 19.521,6.275 21.759,7.748 C24.699,9.691 28.371,9.335 29.958,6.958 C30.188,6.614 30.361,6.245 30.481,5.856 C31.296,3.695 31.478,0.001 31.478,0.001 L28.583,0.001 Z"/>
    <path id="group-10-e" d="M0.295,0.837 C0.08,0.837 -0.041,1.069 0.091,1.228 L0.59,1.817 C0.59,1.817 0.855,2.333 1.996,2.333 L3.284,2.333 C3.284,2.333 4.158,2.216 4.158,3.104 L4.158,7.836 L5.913,7.836 L5.913,3.104 C5.913,2.216 6.787,2.333 6.787,2.333 L8.073,2.333 C9.216,2.333 9.483,1.817 9.483,1.817 L9.981,1.228 C10.114,1.069 9.992,0.837 9.778,0.837 L0.295,0.837 Z"/>
  </defs>
  <g fill="none" fill-rule="evenodd" transform="translate(0 -1)">
    <rect width="62" height="59" x="11" y="62" fill="#FF983E"/>
    <path fill="#FFF" d="M31.3,71.56 L32.7,71.56 C35.22,74.4 38.1,76.64 41.38,78.28 L40.36,80.1 C39.26,79.5 38.22,78.86 37.26,78.18 L37.26,79.6 L26.74,79.6 L26.74,78.14 C25.74,78.86 24.68,79.52 23.56,80.14 L22.56,78.3 C26.06,76.5 28.98,74.24 31.3,71.56 Z M27.24,77.78 L36.72,77.78 C34.96,76.46 33.38,74.96 32,73.28 C30.66,74.92 29.08,76.42 27.24,77.78 Z M38.52,81.74 L38.52,90.04 L36.68,90.04 L36.68,88.96 L27.32,88.96 L27.32,90.04 L25.48,90.04 L25.48,81.74 L38.52,81.74 Z M27.32,87.16 L36.68,87.16 L36.68,83.52 L27.32,83.52 L27.32,87.16 Z M51.88,76.12 C50.96,78.04 49.92,79.7 48.78,81.1 L47.42,79.46 C49.08,77.52 50.5,74.84 51.66,71.44 L53.58,71.86 C53.3,72.7 53,73.5 52.7,74.26 L60.94,74.26 L60.94,76.12 L54.52,76.12 L54.52,78.98 L60.14,78.98 L60.14,80.82 L54.52,80.82 L54.52,83.76 L60.18,83.76 L60.18,85.58 L54.52,85.58 L54.52,90.1 L52.6,90.1 L52.6,76.12 L51.88,76.12 Z M45.06,79.42 C44.5,80.1 43.88,80.78 43.24,81.44 L42.6,79.4 C44.66,77.14 46.18,74.5 47.16,71.5 L48.96,72.34 C48.44,73.86 47.78,75.3 46.98,76.66 L46.98,90.1 L45.06,90.1 L45.06,79.42 Z M31.84,97.96 C31.24,99.04 30.5,100.02 29.64,100.88 L28.46,99.36 C29.8,98.04 30.7,96.42 31.18,94.5 L33.06,94.74 C32.94,95.24 32.8,95.72 32.64,96.16 L40.2,96.16 L40.2,97.68 C39.6,99.04 38.96,100.16 38.28,101.04 L36.86,99.92 C37.32,99.38 37.76,98.72 38.16,97.96 L31.84,97.96 Z M24.84,94.96 C26.16,95.8 27.26,96.66 28.18,97.54 L26.86,98.82 C26.1,98 25,97.12 23.56,96.18 L24.84,94.96 Z M27.44,99.86 L28.88,100.94 C27.42,102.72 25.9,104.2 24.34,105.36 L23.1,103.96 C24.7,102.8 26.14,101.42 27.44,99.86 Z M38.76,105.6 L38.76,113.08 L36.9,113.08 L36.9,112.22 L27.18,112.22 L27.18,113.08 L25.32,113.08 L25.32,105.6 L38.76,105.6 Z M27.18,110.44 L36.9,110.44 L36.9,107.38 L27.18,107.38 L27.18,110.44 Z M33.74,98.4 L35.52,98.58 C35.44,99.06 35.36,99.5 35.24,99.94 C36.06,101.7 38.06,102.94 41.26,103.66 L40.34,105.32 C37.52,104.56 35.56,103.38 34.48,101.74 C34.2,102.18 33.9,102.58 33.56,102.94 C32.6,103.9 30.88,104.68 28.44,105.24 L27.74,103.58 C29.76,103.16 31.2,102.56 32.08,101.78 C32.98,100.98 33.54,99.84 33.74,98.4 Z M50.32,101.02 C50.06,101.3 49.8,101.58 49.52,101.86 L48.34,100.34 C49.96,98.74 51.04,96.8 51.6,94.52 L53.52,94.8 C53.36,95.44 53.16,96.04 52.96,96.62 L60.64,96.62 C60.64,104.18 60.54,108.84 60.34,110.6 C60.14,112.14 59.16,112.92 57.44,112.92 C57.06,112.92 56.4,112.88 55.46,112.84 L55,111.14 C55.84,111.2 56.58,111.24 57.18,111.24 C57.94,111.24 58.4,110.74 58.52,109.76 C58.64,108.64 58.7,104.86 58.74,98.42 L52.14,98.42 C51.74,99.14 51.3,99.8 50.8,100.44 L56.72,100.44 L56.72,109.84 L50.32,109.84 L50.32,101.02 Z M54.94,108.24 L54.94,105.9 L52.16,105.9 L52.16,108.24 L54.94,108.24 Z M52.16,104.34 L54.94,104.34 L54.94,102.04 L52.16,102.04 L52.16,104.34 Z M45.46,94.76 C46.74,95.74 47.84,96.72 48.74,97.72 L47.44,99.04 C46.64,98.1 45.54,97.1 44.14,96.06 L45.46,94.76 Z M42.76,100.56 L47.38,100.56 L47.38,108.98 C47.92,108.48 48.5,107.92 49.12,107.3 L49.64,109.3 C48.44,110.48 47.14,111.54 45.78,112.46 L45.06,110.76 C45.38,110.48 45.56,110.12 45.56,109.72 L45.56,102.38 L42.76,102.38 L42.76,100.56 Z"/>
    <g transform="translate(13 11.16)">
      <mask id="group-10-b" fill="#fff">
        <use xlink:href="#group-10-a"/>
      </mask>
      <polygon fill="#FFF" points="-4 59.836 68 59.836 68 -4.164 -4 -4.164" mask="url(#group-10-b)"/>
    </g>
    <path fill="#FF973F" d="M55.507,42.6898 L58.02,45.8628 C58.02,45.8628 59.71,47.9898 58.134,50.4838 C56.881,52.4698 54.478,52.6428 52.405,51.9738 C52.405,51.9738 46.949,49.8518 42.033,49.8518 C37.111,49.8518 31.62,51.9738 31.62,51.9738 C29.547,52.6428 27.144,52.4698 25.888,50.4838 C24.315,47.9898 26.003,45.8628 26.003,45.8628 L28.559,42.6898 C30.442,39.6668 28.559,38.0278 28.559,38.0278 L21.009,31.0148 L30.197,18.1698 C33.42,15.0868 36.091,19.9138 36.091,19.9138 C39.126,24.5158 42.033,26.0048 42.033,26.0048 C42.033,26.0048 44.885,24.5158 47.918,19.9138 C47.918,19.9138 50.589,15.0868 53.814,18.1698 L62.949,31.0148 L55.507,38.0278 C55.507,38.0278 53.578,39.7118 55.507,42.6898 M54.932,56.8758 C48.289,62.2568 42.038,61.8158 42.038,61.8158 C42.038,61.8158 35.786,62.2568 29.141,56.8758 C29.141,56.8758 27.153,55.2938 28.717,54.4198 C28.717,54.4198 34.025,50.9918 42.038,50.9918 C50.032,50.9918 55.356,54.4198 55.356,54.4198 C56.92,55.2938 54.932,56.8758 54.932,56.8758 M70.939,16.7168 L70.366,16.7168 C68.488,13.6598 66.024,11.9378 64.056,12.6408 C63.062,12.9978 62.338,13.9238 61.907,15.2158 C58.56,10.1438 54.258,6.3918 49.409,4.5088 C49.132,4.3918 48.951,4.3158 48.859,4.2818 C48.816,4.2678 48.775,4.2448 48.731,4.2308 C49.799,3.2238 51.7,3.0698 51.7,3.0698 C48.115,1.9018 45.396,2.5298 45.396,2.5298 C45.929,1.5958 47.389,0.9968 47.389,0.9968 C32.937,1.1268 24.624,12.7718 24.635,12.7768 C24.042,13.5258 23.474,14.3128 22.922,15.1218 C22.491,13.8458 21.772,12.9258 20.787,12.5718 C18.803,11.8618 16.313,13.6138 14.43,16.7168 L13.063,16.7168 C-3.364,16.7168 0.363,32.3308 0.363,32.3308 L2.367,46.5548 L2.819,49.3648 C4.136,55.5698 9.304,69.9968 28.983,69.9968 L55.049,69.9968 C74.815,69.9968 79.942,55.4428 81.231,49.2838 L83.636,32.3308 C83.636,32.3308 87.366,16.7168 70.939,16.7168"/>
    <g transform="translate(26 27.16)">
      <mask id="group-10-d" fill="#fff">
        <use xlink:href="#group-10-c"/>
      </mask>
      <polygon fill="#FF973F" points="-4.521 14 36.479 14 36.479 -5 -4.521 -5" mask="url(#group-10-d)"/>
    </g>
    <g transform="translate(37 39.16)">
      <mask id="group-10-f" fill="#fff">
        <use xlink:href="#group-10-e"/>
      </mask>
      <polygon fill="#FF973F" points="-4.964 12.836 15.036 12.836 15.036 -4.164 -4.964 -4.164" mask="url(#group-10-f)"/>
    </g>
  </g>
</svg>
