<svg xmlns="http://www.w3.org/2000/svg" width="46" height="46" viewBox="0 0 46 46">
  <path fill="#F00" d="M44.1943502,14.047161 C43.0340118,11.3077983 41.379408,8.84982229 39.2647646,6.73523545 C37.1501211,4.6206486 34.6922017,2.96598822 31.952839,1.80564977 C29.1173047,0.604183833 26.1032307,0 23,0 C19.8967693,0 16.8826953,0.611028987 14.047161,1.80564977 C11.3077983,2.96598822 8.84982229,4.62059203 6.73523545,6.73523545 C4.6206486,8.84982229 2.96598822,11.3077983 1.80564977,14.047161 C0.604183833,16.8826953 0,19.8967693 0,23 C0,26.1032307 0.611028987,29.1173047 1.80564977,31.952839 C2.96598822,34.6922017 4.62059203,37.1501777 6.73523545,39.2647646 C8.84982229,41.3793514 11.3077983,43.0340118 14.047161,44.1943502 C16.8826953,45.3958162 19.8967693,46 23,46 C26.1032307,46 29.1173047,45.388971 31.952839,44.1943502 C34.6922017,43.0340118 37.1501777,41.379408 39.2647646,39.2647646 C41.3793514,37.1501777 43.0340118,34.6922017 44.1943502,31.952839 C45.3958162,29.1173047 46,26.1032307 46,23 C46,19.8967693 45.3957596,16.8826953 44.1943502,14.047161 Z M32.618799,30.5591431 C33.2572651,31.1976092 33.2572651,32.2480858 32.618799,32.8866085 C31.9803328,33.5251313 30.9298562,33.5250747 30.2913335,32.8866085 L22.7940231,25.3961999 L15.3036144,32.8935103 C14.6651483,33.5319764 13.6146717,33.5319764 12.976149,32.8935103 C12.3376262,32.2550441 12.3376828,31.2045675 12.976149,30.5660448 L20.4665576,23.0756361 L12.9692472,15.5783257 C12.3307811,14.9398596 12.3307811,13.889383 12.9692472,13.2508603 C13.6077134,12.6123941 14.65819,12.6123941 15.2967127,13.2508603 L22.7871214,20.7412689 L30.27753,13.2508603 C30.9159962,12.6123941 31.9664728,12.6123941 32.6049955,13.2508603 C33.2435183,13.8893264 33.2434617,14.939803 32.6049955,15.5783257 L25.1282772,23.0687344 L32.6186858,30.5591431 L32.618799,30.5591431 Z"/>
</svg>
